<svg width="89" height="50" viewBox="0 0 89 50" version="2.0" xmlns="http://www.w3.org/2000/svg" xmlns:xlink="http://www.w3.org/1999/xlink" xmlns:figma="http://www.figma.com/figma/ns">
<title>amazon-cta-white</title>
<desc>Created using Figma (9000)</desc>
<g id="Canvas" transform="translate(2458 2673)" figma:type="canvas">
<mask id="mask0_outline" mask-type="alpha">
<path d="
M -2458 -2673
L -2369 -2673
L -2369 -2623
L -2458 -2623
L -2458 -2673
Z" fill="#FFFFFF"/>
</mask>
<g id="amazon-cta-white" style="mix-blend-mode:normal;" mask="url(#mask0_outline)" figma:type="frame">
<g id="amazon" style="mix-blend-mode:normal;" figma:type="group">
<g id="path8" style="mix-blend-mode:normal;" figma:type="vector">
<use xlink:href="#path0_fill" transform="translate(-2442.3 -2642.33)" fill="#FF9900" style="mix-blend-mode:normal;"/>
</g>
<g id="path10" style="mix-blend-mode:normal;" figma:type="vector">
<use xlink:href="#path1_fill" transform="translate(-2409.49 -2643.12)" fill="#FF9900" style="mix-blend-mode:normal;"/>
</g>
<g id="path12" style="mix-blend-mode:normal;" figma:type="vector">
<use xlink:href="#path2_fill" transform="translate(-2409.46 -2656.66)" fill="#221F1F" style="mix-blend-mode:normal;"/>
</g>
<g id="path14" style="mix-blend-mode:normal;" figma:type="vector">
<use xlink:href="#path3_fill" transform="translate(-2440.03 -2656.88)" fill="#221F1F" style="mix-blend-mode:normal;"/>
</g>
<g id="path16" style="mix-blend-mode:normal;" figma:type="vector">
<use xlink:href="#path4_fill" transform="translate(-2399.04 -2656.88)" fill="#221F1F" style="mix-blend-mode:normal;"/>
</g>
<g id="path18" style="mix-blend-mode:normal;" figma:type="vector">
<use xlink:href="#path5_fill" transform="translate(-2386.59 -2656.88)" fill="#221F1F" style="mix-blend-mode:normal;"/>
</g>
<g id="path28" style="mix-blend-mode:normal;" figma:type="vector">
<use xlink:href="#path6_fill" transform="translate(-2422.13 -2657)" fill="#221F1F" style="mix-blend-mode:normal;"/>
</g>
<g id="path30" style="mix-blend-mode:normal;" figma:type="vector">
<use xlink:href="#path7_fill" transform="translate(-2453 -2657)" fill="#221F1F" style="mix-blend-mode:normal;"/>
</g>
<g id="path32" style="mix-blend-mode:normal;" figma:type="vector">
<use xlink:href="#path8_fill" transform="translate(-2376.47 -2656.69)" fill="#221F1F" style="mix-blend-mode:normal;"/>
</g>
</g>
</g>
</g>
<defs>
<path id="path0_fill" fill-rule="evenodd" d="
M 36.495 3.31246
C 32.0739 6.58156 25.6656 8.32575 20.1483 8.32575
C 12.412 8.32575 5.44744 5.45532 0.178454 0.68123
C -0.235514 0.305812 0.1354 -0.205814 0.632163 0.0865435
C 6.31842 3.40548 13.3493 5.40216 20.6119 5.40216
C 25.51 5.40216 30.8982 4.38555 35.8526 2.27591
C 36.601 1.95697 37.2269 2.76761 36.495 3.31246"/>
<path id="path1_fill" fill-rule="evenodd" d="
M 5.52707 2.00056
C 4.96407 1.2763 1.79142 1.65836 0.367368 1.8278
C -0.0664725 1.88095 -0.132705 1.50222 0.258079 1.22979
C 2.78494 -0.554263 6.93125 -0.0393128 7.41476 0.558694
C 7.89828 1.16002 7.28892 5.32946 4.91439 7.31949
C 4.5501 7.62514 4.20237 7.46235 4.36465 7.05703
C 4.89784 5.72149 6.09338 2.72813 5.52707 2.00056"/>
<path id="path2_fill" fill-rule="evenodd" d="
M 0.440462 2.17276
L 0.440462 0.438538
C 0.440462 0.176079 0.639167 0 0.877612 0
L 8.61716 0
C 8.86554 0 9.06424 0.179402 9.06424 0.438538
L 9.06424 1.92359
C 9.06093 2.17276 8.85229 2.49834 8.48137 3.01329
L 4.47085 8.75748
C 5.96114 8.72093 7.53422 8.94352 8.88541 9.70764
C 9.19009 9.8804 9.27288 10.1329 9.29607 10.3821
L 9.29607 12.2326
C 9.29607 12.4851 9.01788 12.7807 8.72645 12.6279
C 6.3453 11.3754 3.18259 11.2392 0.549749 12.6412
C 0.281498 12.7874 0 12.495 0 12.2425
L 0 10.4851
C 0 10.2027 0.00330961 9.72093 0.284808 9.29236
L 4.93119 2.60797
L 0.887547 2.60797
C 0.639167 2.60797 0.440462 2.4319 0.440462 2.17276"/>
<path id="path3_fill" fill-rule="evenodd" d="
M 2.77524 13.2159
L 0.420591 13.2159
C 0.195395 13.1993 0.0165594 13.0299 0 12.814
L 0 0.691032
C 0 0.448507 0.202017 0.255814 0.453709 0.255814
L 2.64939 0.255814
C 2.87791 0.265775 3.06005 0.44186 3.07661 0.661129
L 3.07661 2.24585
L 3.11966 2.24585
C 3.69259 0.714286 4.76891 0 6.21945 0
C 7.69318 0 8.61384 0.714286 9.27619 2.24585
C 9.84581 0.714286 11.1407 0 12.5283 0
C 13.5152 0 14.5949 0.408638 15.2539 1.32558
C 15.999 2.34551 15.8467 3.82724 15.8467 5.12625
L 15.8434 12.7774
C 15.8434 13.0199 15.6414 13.2159 15.3897 13.2159
L 13.0383 13.2159
C 12.8032 13.1993 12.6144 13.01 12.6144 12.7774
L 12.6144 6.35216
C 12.6144 5.84053 12.6608 4.56478 12.5482 4.07973
C 12.3727 3.26578 11.8461 3.03654 11.1639 3.03654
C 10.5943 3.03654 9.99815 3.4186 9.75639 4.0299
C 9.51464 4.6412 9.53782 5.66445 9.53782 6.35216
L 9.53782 12.7774
C 9.53782 13.0199 9.3358 13.2159 9.08411 13.2159
L 6.73277 13.2159
C 6.49433 13.1993 6.30887 13.01 6.30887 12.7774
L 6.30556 6.35216
C 6.30556 5 6.52744 3.00997 4.85502 3.00997
C 3.16271 3.00997 3.22895 4.95017 3.22895 6.35216
L 3.22895 12.7774
C 3.22895 13.0199 3.02693 13.2159 2.77524 13.2159"/>
<path id="path4_fill" fill-rule="evenodd" d="
M 5.29879 1.44067e-14
C 8.79268 1.44067e-14 10.6837 3.00997 10.6837 6.83721
C 10.6837 10.5349 8.59397 13.4684 5.29879 13.4684
C 1.86782 13.4684 0 10.4585 0 6.70764
C 0 2.93355 1.89101 0 5.29879 0
M 5.31866 2.47508
C 3.58331 2.47508 3.47402 4.84718 3.47402 6.32558
C 3.47402 7.80731 3.45084 10.9701 5.29879 10.9701
C 7.12356 10.9701 7.20967 8.41861 7.20967 6.86379
C 7.20967 5.84053 7.16661 4.61794 6.85862 3.64784
C 6.59368 2.80399 6.06712 2.47508 5.31866 2.47508"/>
<path id="path5_fill" fill-rule="evenodd" d="
M 2.77193 13.2159
L 0.427214 13.2159
C 0.192079 13.1993 0.00330961 13.01 0.00330961 12.7774
L 0 0.651163
C 0.0198703 0.428571 0.215264 0.255814 0.453709 0.255814
L 2.63615 0.255814
C 2.84147 0.265775 3.01037 0.405316 3.05674 0.594685
L 3.05674 2.4485
L 3.09979 2.4485
C 3.75883 0.790698 4.6828 0 6.30887 0
C 7.36531 0 8.39527 0.38206 9.05762 1.42857
C 9.6736 2.39867 9.6736 4.0299 9.6736 5.20266
L 9.6736 12.8339
C 9.64711 13.0465 9.45171 13.2159 9.21989 13.2159
L 6.85862 13.2159
C 6.64335 13.1993 6.46452 13.0399 6.44134 12.8339
L 6.44134 6.24917
C 6.44134 4.92359 6.59368 2.98339 4.96761 2.98339
C 4.39468 2.98339 3.86811 3.36877 3.60649 3.95349
C 3.27531 4.69435 3.23226 5.4319 3.23226 6.24917
L 3.23226 12.7774
C 3.22895 13.0199 3.02362 13.2159 2.77193 13.2159"/>
<path id="path6_fill" fill-rule="evenodd" d="
M 6.9381 7.54153
C 6.9381 8.46179 6.96129 9.22923 6.49764 10.0465
C 6.12342 10.711 5.5273 11.1196 4.86827 11.1196
C 3.96416 11.1196 3.43428 10.4286 3.43428 9.40864
C 3.43428 7.39535 5.23256 7.0299 6.9381 7.0299
L 6.9381 7.54153
M 9.31263 13.299
C 9.15698 13.4385 8.93177 13.4485 8.75625 13.3555
C 7.97468 12.7043 7.83228 12.402 7.40506 11.7807
C 6.11348 13.103 5.19613 13.4983 3.5237 13.4983
C 1.53996 13.4983 0 12.2724 0 9.81728
C 0 7.90033 1.03327 6.59468 2.5103 5.95681
C 3.78864 5.39203 5.57366 5.29236 6.9381 5.13621
L 6.9381 4.83057
C 6.9381 4.2691 6.98116 3.60465 6.64998 3.1196
C 6.36517 2.68439 5.81542 2.50498 5.3286 2.50498
C 4.43111 2.50498 3.63299 2.96678 3.43759 3.92359
C 3.39785 4.13621 3.2422 4.34552 3.02693 4.35548
L 0.745143 4.10963
C 0.553061 4.06645 0.337798 3.9103 0.394098 3.61462
C 0.917354 0.837211 3.42103 0 5.65977 0
C 6.80564 0 8.30254 0.305648 9.20665 1.17608
C 10.3525 2.24917 10.2432 3.68106 10.2432 5.2392
L 10.2432 8.92027
C 10.2432 10.0266 10.7002 10.5116 11.1308 11.1096
C 11.2798 11.3223 11.3129 11.5781 11.1208 11.7375
C 10.6406 12.1395 9.7862 12.887 9.31593 13.3056
L 9.31262 13.299"/>
<path id="path7_fill" fill-rule="evenodd" d="
M 6.9381 7.54153
C 6.9381 8.46179 6.96128 9.22923 6.49764 10.0465
C 6.12341 10.711 5.53061 11.1196 4.86826 11.1196
C 3.96416 11.1196 3.43759 10.4286 3.43759 9.40864
C 3.43759 7.39535 5.23586 7.0299 6.9381 7.0299
L 6.9381 7.54153
M 9.31262 13.299
C 9.15697 13.4385 8.93177 13.4485 8.75625 13.3555
C 7.97468 12.7043 7.83558 12.402 7.40506 11.7807
C 6.11348 13.103 5.19944 13.4983 3.52369 13.4983
C 1.54327 13.4983 0 12.2724 0 9.81728
C 0 7.90033 1.03658 6.59468 2.5103 5.95681
C 3.78863 5.39203 5.57366 5.29236 6.9381 5.13621
L 6.9381 4.83057
C 6.9381 4.2691 6.98116 3.60465 6.65329 3.1196
C 6.36517 2.68439 5.81542 2.50498 5.33191 2.50498
C 4.43443 2.50498 3.63298 2.96678 3.43759 3.92359
C 3.39785 4.13621 3.2422 4.34552 3.03024 4.35548
L 0.745142 4.10963
C 0.553061 4.06645 0.341109 3.9103 0.394097 3.61462
C 0.920664 0.837211 3.42103 0 5.65977 0
C 6.80563 0 8.30254 0.305648 9.20664 1.17608
C 10.3525 2.24917 10.2432 3.68106 10.2432 5.2392
L 10.2432 8.92027
C 10.2432 10.0266 10.7002 10.5116 11.1308 11.1096
C 11.2831 11.3223 11.3162 11.5781 11.1241 11.7375
C 10.6439 12.1395 9.78951 12.887 9.31924 13.3056
L 9.31262 13.299"/>
<path id="path8_fill" fill-rule="evenodd" d="
M 1.23197 0.199335
C 1.79828 0.199335 2.26855 0.657809 2.26855 1.23588
C 2.26855 1.80066 1.80491 2.27575 1.23197 2.27575
C 0.662353 2.27575 0.198708 1.81063 0.198708 1.23588
C 0.198708 0.651163 0.668976 0.199335 1.23197 0.199335
Z
M 1.23528 0
C 0.572933 0 0 0.538206 0 1.2392
C 0 1.92691 0.562998 2.47508 1.23528 2.47508
C 1.91088 2.47508 2.46725 1.92027 2.46725 1.2392
C 2.46725 0.538206 1.90095 0 1.23528 0
Z
M 0.771638 1.93355
L 1.03658 1.93355
L 1.03658 1.37541
L 1.28165 1.37541
C 1.37769 1.37541 1.40418 1.41528 1.42405 1.49502
C 1.42405 1.51495 1.47042 1.86711 1.47373 1.93355
L 1.76848 1.93355
C 1.73205 1.86711 1.71218 1.67774 1.69893 1.56478
C 1.67243 1.3887 1.65919 1.26578 1.47042 1.25249
C 1.56646 1.21927 1.73205 1.16611 1.73205 0.910301
C 1.73205 0.54485 1.41081 0.54485 1.24522 0.54485
L 0.771638 0.54485
L 0.771638 1.93355
Z
M 1.02996 0.767442
L 1.25184 0.767442
C 1.3247 0.767442 1.45717 0.767442 1.45717 0.95681
C 1.45717 1.0299 1.42405 1.15283 1.24522 1.15283
L 1.02996 1.15283
L 1.02996 0.767442
Z"/>
</defs>
</svg>
