<svg width="139" height="40" viewBox="0 0 139 40" version="2.0" xmlns="http://www.w3.org/2000/svg" xmlns:xlink="http://www.w3.org/1999/xlink" xmlns:figma="http://www.figma.com/figma/ns">
<title>app-store</title>
<desc>Created using Figma (9000)</desc>
<g id="Canvas" transform="translate(2383 2851)" figma:type="canvas">
<g id="app-store" style="mix-blend-mode:normal;" figma:type="group">
<g id="Canvas" style="mix-blend-mode:normal;" figma:type="group">
<g id="app-store-badge" style="mix-blend-mode:normal;isolation:isolate;" figma:type="group">
<g id="Page 1" style="mix-blend-mode:normal;isolation:isolate;" figma:type="group">
<g id="app store badge" style="mix-blend-mode:normal;isolation:isolate;" figma:type="group">
<g id="US UK Download on the" style="mix-blend-mode:normal;isolation:isolate;" figma:type="group">
<g id="Group" style="mix-blend-mode:normal;isolation:isolate;" figma:type="group">
<g id="Shape" style="mix-blend-mode:normal;isolation:isolate;" figma:type="group">
<g id="Vector" style="mix-blend-mode:normal;isolation:isolate;" figma:type="vector">
<use xlink:href="#path0_fill" transform="matrix(1 0 0 1 -2383 -2851)" style="mix-blend-mode:normal;"/>
</g>
</g>
<g id="Shape" style="mix-blend-mode:normal;isolation:isolate;" figma:type="group">
<g id="Vector" style="mix-blend-mode:normal;isolation:isolate;" figma:type="group">
<g id="Vector" style="mix-blend-mode:normal;isolation:isolate;" figma:type="vector">
<use xlink:href="#path1_fill" transform="matrix(1 0 0 1 -2370.57 -2838.98)" fill="#FFFFFF" style="mix-blend-mode:normal;"/>
</g>
</g>
<g id="Vector" style="mix-blend-mode:normal;isolation:isolate;" figma:type="group">
<g id="Vector" style="mix-blend-mode:normal;isolation:isolate;" figma:type="vector">
<use xlink:href="#path2_fill" transform="matrix(1 0 0 1 -2359.81 -2845.42)" fill="#FFFFFF" style="mix-blend-mode:normal;"/>
</g>
</g>
</g>
<g id="Shape" style="mix-blend-mode:normal;isolation:isolate;" figma:type="group">
<g id="Vector" style="mix-blend-mode:normal;isolation:isolate;" figma:type="group">
<g id="Vector" style="mix-blend-mode:normal;isolation:isolate;" figma:type="vector">
<use xlink:href="#path3_fill" transform="matrix(1 0 0 1 -2339.65 -2832.89)" fill="#FFFFFF" style="mix-blend-mode:normal;"/>
</g>
</g>
<g id="Vector" style="mix-blend-mode:normal;isolation:isolate;" figma:type="group">
<g id="Vector" style="mix-blend-mode:normal;isolation:isolate;" figma:type="vector">
<use xlink:href="#path4_fill" transform="matrix(1 0 0 1 -2326.07 -2829.2)" fill="#FFFFFF" style="mix-blend-mode:normal;"/>
</g>
</g>
<g id="Vector" style="mix-blend-mode:normal;isolation:isolate;" figma:type="group">
<g id="Vector" style="mix-blend-mode:normal;isolation:isolate;" figma:type="vector">
<use xlink:href="#path5_fill" transform="matrix(1 0 0 1 -2314.55 -2829.2)" fill="#FFFFFF" style="mix-blend-mode:normal;"/>
</g>
</g>
<g id="Vector" style="mix-blend-mode:normal;isolation:isolate;" figma:type="group">
<g id="Vector" style="mix-blend-mode:normal;isolation:isolate;" figma:type="vector">
<use xlink:href="#path6_fill" transform="matrix(1 0 0 1 -2300.64 -2833.09)" fill="#FFFFFF" style="mix-blend-mode:normal;"/>
</g>
</g>
<g id="Vector" style="mix-blend-mode:normal;isolation:isolate;" figma:type="group">
<g id="Vector" style="mix-blend-mode:normal;isolation:isolate;" figma:type="vector">
<use xlink:href="#path7_fill" transform="matrix(1 0 0 1 -2290.76 -2831.5)" fill="#FFFFFF" style="mix-blend-mode:normal;"/>
</g>
</g>
<g id="Vector" style="mix-blend-mode:normal;isolation:isolate;" figma:type="group">
<g id="Vector" style="mix-blend-mode:normal;isolation:isolate;" figma:type="vector">
<use xlink:href="#path8_fill" transform="matrix(1 0 0 1 -2283.4 -2829.2)" fill="#FFFFFF" style="mix-blend-mode:normal;"/>
</g>
</g>
<g id="Vector" style="mix-blend-mode:normal;isolation:isolate;" figma:type="group">
<g id="Vector" style="mix-blend-mode:normal;isolation:isolate;" figma:type="vector">
<use xlink:href="#path9_fill" transform="matrix(1 0 0 1 -2271.71 -2829.2)" fill="#FFFFFF" style="mix-blend-mode:normal;"/>
</g>
</g>
<g id="Vector" style="mix-blend-mode:normal;isolation:isolate;" figma:type="group">
<g id="Vector" style="mix-blend-mode:normal;isolation:isolate;" figma:type="vector">
<use xlink:href="#path10_fill" transform="matrix(1 0 0 1 -2265.3 -2829.22)" fill="#FFFFFF" style="mix-blend-mode:normal;"/>
</g>
</g>
</g>
<g id="Shape" style="mix-blend-mode:normal;isolation:isolate;" figma:type="group">
<g id="Vector" style="mix-blend-mode:normal;isolation:isolate;" figma:type="group">
<g id="Vector" style="mix-blend-mode:normal;isolation:isolate;" figma:type="vector">
<use xlink:href="#path11_fill" transform="matrix(1 0 0 1 -2338.33 -2844.77)" fill="#FFFFFF" style="mix-blend-mode:normal;"/>
</g>
</g>
<g id="Vector" style="mix-blend-mode:normal;isolation:isolate;" figma:type="group">
<g id="Vector" style="mix-blend-mode:normal;isolation:isolate;" figma:type="vector">
<use xlink:href="#path12_fill" transform="matrix(1 0 0 1 -2331.42 -2842.91)" fill="#FFFFFF" style="mix-blend-mode:normal;"/>
</g>
</g>
<g id="Vector" style="mix-blend-mode:normal;isolation:isolate;" figma:type="group">
<g id="Vector" style="mix-blend-mode:normal;isolation:isolate;" figma:type="vector">
<use xlink:href="#path13_fill" transform="matrix(1 0 0 1 -2325.53 -2842.8)" fill="#FFFFFF" style="mix-blend-mode:normal;"/>
</g>
</g>
<g id="Vector" style="mix-blend-mode:normal;isolation:isolate;" figma:type="group">
<g id="Vector" style="mix-blend-mode:normal;isolation:isolate;" figma:type="vector">
<use xlink:href="#path14_fill" transform="matrix(1 0 0 1 -2317.04 -2842.91)" fill="#FFFFFF" style="mix-blend-mode:normal;"/>
</g>
</g>
<g id="Vector" style="mix-blend-mode:normal;isolation:isolate;" figma:type="group">
<g id="Vector" style="mix-blend-mode:normal;isolation:isolate;" figma:type="vector">
<use xlink:href="#path15_fill" transform="matrix(1 0 0 1 -2310.81 -2845.07)" fill="#FFFFFF" style="mix-blend-mode:normal;"/>
</g>
</g>
<g id="Vector" style="mix-blend-mode:normal;isolation:isolate;" figma:type="group">
<g id="Vector" style="mix-blend-mode:normal;isolation:isolate;" figma:type="vector">
<use xlink:href="#path16_fill" transform="matrix(1 0 0 1 -2308.09 -2842.91)" fill="#FFFFFF" style="mix-blend-mode:normal;"/>
</g>
</g>
<g id="Vector" style="mix-blend-mode:normal;isolation:isolate;" figma:type="group">
<g id="Vector" style="mix-blend-mode:normal;isolation:isolate;" figma:type="vector">
<use xlink:href="#path17_fill" transform="matrix(1 0 0 1 -2302.02 -2842.91)" fill="#FFFFFF" style="mix-blend-mode:normal;"/>
</g>
</g>
<g id="Vector" style="mix-blend-mode:normal;isolation:isolate;" figma:type="group">
<g id="Vector" style="mix-blend-mode:normal;isolation:isolate;" figma:type="vector">
<use xlink:href="#path18_fill" transform="matrix(1 0 0 1 -2296.46 -2845.07)" fill="#FFFFFF" style="mix-blend-mode:normal;"/>
</g>
</g>
<g id="Vector" style="mix-blend-mode:normal;isolation:isolate;" figma:type="group">
<g id="Vector" style="mix-blend-mode:normal;isolation:isolate;" figma:type="vector">
<use xlink:href="#path19_fill" transform="matrix(1 0 0 1 -2287.22 -2842.91)" fill="#FFFFFF" style="mix-blend-mode:normal;"/>
</g>
</g>
<g id="Vector" style="mix-blend-mode:normal;isolation:isolate;" figma:type="group">
<g id="Vector" style="mix-blend-mode:normal;isolation:isolate;" figma:type="vector">
<use xlink:href="#path20_fill" transform="matrix(1 0 0 1 -2280.83 -2842.91)" fill="#FFFFFF" style="mix-blend-mode:normal;"/>
</g>
</g>
<g id="Vector" style="mix-blend-mode:normal;isolation:isolate;" figma:type="group">
<g id="Vector" style="mix-blend-mode:normal;isolation:isolate;" figma:type="vector">
<use xlink:href="#path21_fill" transform="matrix(1 0 0 1 -2272.15 -2844.04)" fill="#FFFFFF" style="mix-blend-mode:normal;"/>
</g>
</g>
<g id="Vector" style="mix-blend-mode:normal;isolation:isolate;" figma:type="group">
<g id="Vector" style="mix-blend-mode:normal;isolation:isolate;" figma:type="vector">
<use xlink:href="#path22_fill" transform="matrix(1 0 0 1 -2267.64 -2845.07)" fill="#FFFFFF" style="mix-blend-mode:normal;"/>
</g>
</g>
<g id="Vector" style="mix-blend-mode:normal;isolation:isolate;" figma:type="group">
<g id="Vector" style="mix-blend-mode:normal;isolation:isolate;" figma:type="vector">
<use xlink:href="#path23_fill" transform="matrix(1 0 0 1 -2261.76 -2842.92)" fill="#FFFFFF" style="mix-blend-mode:normal;"/>
</g>
</g>
</g>
</g>
</g>
</g>
</g>
</g>
</g>
</g>
</g>
<defs>
<path id="path0_fill" fill-rule="evenodd" d="
M 139 35.9904
C 139 38.2056 137.211 40 134.997 40
L 4.00791 40
C 1.79568 40 0 38.2056 0 35.9904
L 0 4.01487
C 0 1.80067 1.79568 0 4.00791 0
L 134.996 0
C 137.211 0 138.999 1.80067 138.999 4.01487
L 139 35.9904
Z"/>
<path id="path1_fill" fill-rule="evenodd" d="
M 18.0989 7.76078
C 18.0686 4.38662 20.854 2.74508 20.9813 2.66866
C 19.4039 0.362336 16.9588 0.047219 16.0996 0.0220934
C 14.0461 -0.194616 12.0541 1.25429 11.008 1.25429
C 9.94105 1.25429 8.33016 0.0430314 6.59399 0.078626
C 4.35984 0.113173 2.26975 1.41028 1.12344 3.42452
C -1.24226 7.53151 0.522096 13.5669 2.78862 16.8866
C 3.9224 18.5125 5.24724 20.3278 6.98132 20.2639
C 8.67781 20.1938 9.31152 19.1793 11.3588 19.1793
C 13.3873 19.1793 13.9824 20.2639 15.7509 20.2231
C 17.5716 20.1938 18.7179 18.5899 19.8121 16.9494
C 21.1223 15.086 21.6484 13.2507 21.6693 13.1565
C 21.6265 13.1419 18.1333 11.805 18.0989 7.76078
Z"/>
<path id="path2_fill" fill-rule="evenodd" d="
M 3.98973 4.28078
C 4.90219 3.13652 5.5265 1.57977 5.35319 0
C 4.03254 0.0586265 2.38093 0.916039 1.42985 2.03518
C 0.588391 3.02136 -0.163287 4.63777 0.0308964 6.15787
C 1.51441 6.26884 3.03761 5.40724 3.98973 4.28078
Z"/>
<path id="path3_fill" fill-rule="evenodd" d="
M 11.7293 13.9322
L 9.3584 13.9322
L 8.05967 9.83982
L 3.54542 9.83982
L 2.30828 13.9322
L 0 13.9322
L 4.47249 0
L 7.23491 0
L 11.7293 13.9322
Z
M 7.66817 8.12291
L 6.49367 4.48492
C 6.36943 4.11327 6.13662 3.23807 5.79315 1.86034
L 5.75139 1.86034
C 5.61462 2.45289 5.39434 3.3281 5.09158 4.48492
L 3.93796 8.12291
L 7.66817 8.12291
Z"/>
<path id="path4_fill" fill-rule="evenodd" d="
M 9.64759 5.10574
C 9.64759 6.81428 9.18718 8.16478 8.26638 9.1562
C 7.44162 10.0387 6.41746 10.4795 5.19493 10.4795
C 3.87532 10.4795 2.92737 10.0042 2.35004 9.0536
L 2.30828 9.0536
L 2.30828 14.3457
L 0.0824759 14.3457
L 0.0824759 3.5134
C 0.0824759 2.43928 0.0542879 1.33689 0 0.20624
L 1.9575 0.20624
L 2.08173 1.79858
L 2.12349 1.79858
C 2.86577 0.598827 3.99225 0 5.50396 0
C 6.68576 0 7.67234 0.467965 8.4616 1.40494
C 9.25296 2.34296 9.64759 3.57621 9.64759 5.10574
Z
M 7.38002 5.1874
C 7.38002 4.20959 7.16078 3.40348 6.72022 2.76905
C 6.23893 2.10741 5.5927 1.77659 4.78256 1.77659
C 4.23341 1.77659 3.73438 1.96085 3.28859 2.32412
C 2.84176 2.69054 2.54944 3.16897 2.41268 3.76152
C 2.34378 4.0379 2.30932 4.26403 2.30932 4.442
L 2.30932 6.11704
C 2.30932 6.84778 2.53274 7.46441 2.97957 7.96796
C 3.4264 8.47152 4.00686 8.72278 4.72096 8.72278
C 5.55929 8.72278 6.21179 8.39824 6.67846 7.75126
C 7.14617 7.10322 7.38002 6.24895 7.38002 5.1874
Z"/>
<path id="path5_fill" fill-rule="evenodd" d="
M 9.64654 5.10574
C 9.64654 6.81428 9.18614 8.16478 8.26429 9.1562
C 7.44057 10.0387 6.41641 10.4795 5.19389 10.4795
C 3.87428 10.4795 2.92633 10.0042 2.35004 9.0536
L 2.30828 9.0536
L 2.30828 14.3457
L 0.0824759 14.3457
L 0.0824759 3.5134
C 0.0824759 2.43928 0.0542879 1.33689 0 0.20624
L 1.9575 0.20624
L 2.08173 1.79858
L 2.12349 1.79858
C 2.86473 0.598827 3.9912 0 5.50396 0
C 6.68472 0 7.6713 0.467965 8.46265 1.40494
C 9.25087 2.34296 9.64654 3.57621 9.64654 5.10574
Z
M 7.37898 5.1874
C 7.37898 4.20959 7.1587 3.40348 6.71813 2.76905
C 6.23684 2.10741 5.5927 1.77659 4.78151 1.77659
C 4.23132 1.77659 3.73334 1.96085 3.28651 2.32412
C 2.83967 2.69054 2.5484 3.16897 2.41164 3.76152
C 2.34378 4.0379 2.30828 4.26403 2.30828 4.442
L 2.30828 6.11704
C 2.30828 6.84778 2.5317 7.46441 2.97644 7.96796
C 3.42327 8.47048 4.00373 8.72278 4.71992 8.72278
C 5.55825 8.72278 6.21074 8.39824 6.67741 7.75126
C 7.14512 7.10322 7.37898 6.24895 7.37898 5.1874
Z"/>
<path id="path6_fill" fill-rule="evenodd" d="
M 8.61925 10.2293
C 8.61925 11.4144 8.20896 12.3786 7.38524 13.1229
C 6.4801 13.9363 5.21999 14.3425 3.60075 14.3425
C 2.10574 14.3425 0.907234 14.0536 0 13.4747
L 0.515735 11.6143
C 1.49292 12.2069 2.5651 12.5042 3.73334 12.5042
C 4.57167 12.5042 5.22417 12.3137 5.69292 11.9347
C 6.15959 11.5557 6.3924 11.0469 6.3924 10.4125
C 6.3924 9.84715 6.2003 9.37081 5.81507 8.98451
C 5.43192 8.5982 4.79195 8.23911 3.89829 7.90724
C 1.46577 6.99749 0.25056 5.66478 0.25056 3.91227
C 0.25056 2.76696 0.676511 1.82789 1.52946 1.09715
C 2.37927 0.365369 3.51305 0 4.9308 0
C 6.19508 0 7.24535 0.220896 8.08368 0.661642
L 7.52723 2.48116
C 6.74423 2.05402 5.85892 1.84045 4.86816 1.84045
C 4.08516 1.84045 3.47338 2.03413 3.0349 2.41939
C 2.66428 2.76382 2.47845 3.18363 2.47845 3.6809
C 2.47845 4.23157 2.69038 4.68698 3.11633 5.04502
C 3.48695 5.37584 4.16033 5.73388 5.13751 6.12018
C 6.33289 6.60281 7.2109 7.16709 7.7757 7.81407
C 8.33841 8.45896 8.61925 9.26612 8.61925 10.2293
Z"/>
<path id="path7_fill" fill-rule="evenodd" d="
M 6.10113 4.17818
L 3.64773 4.17818
L 3.64773 9.0557
C 3.64773 10.2963 4.07994 10.916 4.94646 10.916
C 5.34423 10.916 5.67413 10.8815 5.93513 10.8124
L 5.99673 12.5073
C 5.55825 12.6717 4.98092 12.7544 4.26578 12.7544
C 3.38673 12.7544 2.69978 12.4853 2.20388 11.9483
C 1.71007 11.4102 1.4616 10.5077 1.4616 9.23995
L 1.4616 4.17609
L 0 4.17609
L 0 2.50105
L 1.4616 2.50105
L 1.4616 0.661642
L 3.64773 0
L 3.64773 2.50105
L 6.10113 2.50105
L 6.10113 4.17818
Z"/>
<path id="path8_fill" fill-rule="evenodd" d="
M 9.81254 5.14552
C 9.81254 6.6897 9.37197 7.9575 8.49292 8.94891
C 7.57107 9.96964 6.34751 10.4784 4.82223 10.4784
C 3.35228 10.4784 2.18196 9.98953 1.30917 9.01173
C 0.436391 8.03392 0 6.79962 0 5.31198
C 0 3.75523 0.448919 2.48011 1.34989 1.48869
C 2.24877 0.496231 3.4619 0 4.98718 0
C 6.45713 0 7.63998 0.488903 8.5326 1.46776
C 9.38659 2.41729 9.81254 3.64322 9.81254 5.14552
Z
M 7.50321 5.21776
C 7.50321 4.29125 7.3059 3.49665 6.90605 2.83396
C 6.43938 2.03204 5.77227 1.63212 4.90784 1.63212
C 4.01313 1.63212 3.33349 2.03308 2.86682 2.83396
C 2.46697 3.4977 2.26965 4.30486 2.26965 5.25963
C 2.26965 6.18614 2.46697 6.98074 2.86682 7.64238
C 3.3481 8.4443 4.02044 8.84422 4.888 8.84422
C 5.73781 8.84422 6.40493 8.43593 6.88621 7.62144
C 7.2965 6.94619 7.50321 6.14322 7.50321 5.21776
Z"/>
<path id="path9_fill" fill-rule="evenodd" d="
M 5.35989 2.16918
C 5.1396 2.12835 4.9047 2.10741 4.65832 2.10741
C 3.87532 2.10741 3.2698 2.40369 2.84385 2.99728
C 2.47323 3.52073 2.2874 4.18237 2.2874 4.98116
L 2.2874 10.2523
L 0.0626399 10.2523
L 0.0835199 3.36997
C 0.0835199 2.2121 0.0553319 1.15787 0 0.207286
L 1.9387 0.207286
L 2.02014 2.1294
L 2.08173 2.1294
C 2.31663 1.4688 2.68725 0.936977 3.19463 0.538107
C 3.69053 0.17902 4.2261 0 4.80344 0
C 5.0091 0 5.19493 0.0146566 5.35989 0.0408291
L 5.35989 2.16918
Z"/>
<path id="path10_fill" fill-rule="evenodd" d="
M 8.90322 4.77282
C 8.90322 5.17274 8.87712 5.50984 8.82178 5.78518
L 2.14437 5.78518
C 2.17047 6.77764 2.49307 7.53664 3.1132 8.06009
C 3.67592 8.52806 4.40358 8.76256 5.29725 8.76256
C 6.28591 8.76256 7.18793 8.60448 7.99911 8.28727
L 8.34781 9.83668
C 7.39986 10.2513 6.28069 10.4575 4.98927 10.4575
C 3.4358 10.4575 2.21641 9.99895 1.32901 9.08291
C 0.443699 8.16688 0 6.93677 0 5.39363
C 0 3.87877 0.412379 2.61725 1.23818 1.61118
C 2.10261 0.53706 3.27085 0 4.7408 0
C 6.18464 0 7.27771 0.53706 8.01999 1.61118
C 8.60776 2.46441 8.90322 3.51968 8.90322 4.77282
Z
M 6.78077 4.19389
C 6.79538 3.53224 6.65027 2.96064 6.34855 2.47802
C 5.96332 1.8572 5.37137 1.54732 4.5748 1.54732
C 3.84713 1.54732 3.25519 1.84987 2.80313 2.45708
C 2.43252 2.9397 2.21223 3.51863 2.14437 4.19284
L 6.78077 4.19284
L 6.78077 4.19389
Z"/>
<path id="path11_fill" fill-rule="evenodd" d="
M 5.61045 3.31135
C 5.61045 4.54355 5.24191 5.47111 4.5059 6.09401
C 3.82417 6.66876 2.85533 6.95666 1.60045 6.95666
C 0.978226 6.95666 0.445787 6.92944 0 6.875
L 0 0.142379
C 0.581507 0.0481575 1.20791 0 1.88442 0
C 3.07979 0 3.98076 0.260678 4.58837 0.782035
C 5.26906 1.37144 5.61045 2.2142 5.61045 3.31135
Z
M 4.45683 3.34171
C 4.45683 2.54292 4.24594 1.93049 3.82417 1.50335
C 3.40239 1.07726 2.78643 0.863693 1.97524 0.863693
C 1.63073 0.863693 1.33736 0.886725 1.09411 0.934883
L 1.09411 6.05318
C 1.22879 6.07412 1.47517 6.08354 1.83326 6.08354
C 2.67055 6.08354 3.31678 5.85008 3.77197 5.38317
C 4.22715 4.91625 4.45683 4.23576 4.45683 3.34171
Z"/>
<path id="path12_fill" fill-rule="evenodd" d="
M 4.82014 2.52722
C 4.82014 3.28622 4.60403 3.90808 4.17182 4.39594
C 3.71872 4.8974 3.11842 5.14761 2.36883 5.14761
C 1.64639 5.14761 1.07114 4.90787 0.642059 4.4263
C 0.21402 3.94577 0 3.33961 0 2.60888
C 0 1.84464 0.220284 1.21755 0.662939 0.730737
C 1.10559 0.243928 1.70067 0 2.45026 0
C 3.17271 0 3.75317 0.23974 4.1927 0.720268
C 4.6103 1.18719 4.82014 1.7902 4.82014 2.52722
Z
M 3.68531 2.56281
C 3.68531 2.10741 3.58718 1.71692 3.39195 1.39133
C 3.16227 0.997697 2.8355 0.800879 2.41059 0.800879
C 1.97107 0.800879 1.63699 0.997697 1.40731 1.39133
C 1.21104 1.71692 1.11395 2.11369 1.11395 2.58271
C 1.11395 3.03811 1.21208 3.4286 1.40731 3.75419
C 1.6443 4.14782 1.9742 4.34464 2.40015 4.34464
C 2.81775 4.34464 3.14557 4.14468 3.38151 3.74372
C 3.58405 3.41185 3.68531 3.01822 3.68531 2.56281
Z"/>
<path id="path13_fill" fill-rule="evenodd" d="
M 7.13051 0
L 5.59061 4.93509
L 4.58837 4.93509
L 3.95049 2.79209
C 3.78867 2.25712 3.65713 1.72529 3.55481 1.19765
L 3.53498 1.19765
C 3.43997 1.73995 3.30843 2.27073 3.1393 2.79209
L 2.46175 4.93509
L 1.44803 4.93509
L 0 0
L 1.12439 0
L 1.68084 2.34611
C 1.81551 2.90096 1.92618 3.42965 2.01492 3.93007
L 2.03475 3.93007
C 2.11618 3.51759 2.25086 2.99204 2.44087 2.35657
L 3.1393 0.0010469
L 4.03088 0.0010469
L 4.70008 2.30632
C 4.8619 2.86851 4.99344 3.40976 5.09471 3.93111
L 5.12499 3.93111
C 5.19911 3.42337 5.31082 2.88212 5.45907 2.30632
L 6.05623 0.0010469
L 7.13051 0.0010469
L 7.13051 0
Z"/>
<path id="path14_fill" fill-rule="evenodd" d="
M 4.3138 5.03874
L 3.21969 5.03874
L 3.21969 2.2121
C 3.21969 1.34108 2.88979 0.90557 2.22789 0.90557
C 1.90321 0.90557 1.64117 1.02492 1.43759 1.26466
C 1.23609 1.5044 1.13378 1.78706 1.13378 2.11055
L 1.13378 5.03769
L 0.0396719 5.03769
L 0.0396719 1.51382
C 0.0396719 1.0804 0.0261 0.610343 0 0.101549
L 0.961522 0.101549
L 1.01268 0.873116
L 1.04295 0.873116
C 1.17032 0.633375 1.36033 0.435511 1.60985 0.277429
C 1.90634 0.0931742 2.23833 0 2.60164 0
C 3.061 0 3.44311 0.14866 3.74691 0.447027
C 4.12484 0.812395 4.3138 1.35783 4.3138 2.08229
L 4.3138 5.03874
Z"/>
<path id="path15_fill" fill-rule="evenodd" d="
M 1.09307 7.19954
L 0 7.19954
L 0 0
L 1.09307 0
L 1.09307 7.19954
Z"/>
<path id="path16_fill" fill-rule="evenodd" d="
M 4.82014 2.52722
C 4.82014 3.28622 4.60403 3.90808 4.17182 4.39594
C 3.71872 4.8974 3.11738 5.14761 2.36883 5.14761
C 1.64534 5.14761 1.0701 4.90787 0.642059 4.4263
C 0.21402 3.94577 0 3.33961 0 2.60888
C 0 1.84464 0.220284 1.21755 0.662939 0.730737
C 1.10559 0.243928 1.70067 0 2.44922 0
C 3.17271 0 3.75213 0.23974 4.1927 0.720268
C 4.6103 1.18719 4.82014 1.7902 4.82014 2.52722
Z
M 3.68427 2.56281
C 3.68427 2.10741 3.58613 1.71692 3.39091 1.39133
C 3.16227 0.997697 2.83445 0.800879 2.41059 0.800879
C 1.97002 0.800879 1.63595 0.997697 1.40731 1.39133
C 1.21104 1.71692 1.11395 2.11369 1.11395 2.58271
C 1.11395 3.03811 1.21208 3.4286 1.40731 3.75419
C 1.6443 4.14782 1.9742 4.34464 2.40015 4.34464
C 2.81775 4.34464 3.14452 4.14468 3.38047 3.74372
C 3.58405 3.41185 3.68427 3.01822 3.68427 2.56281
Z"/>
<path id="path17_fill" fill-rule="evenodd" d="
M 4.04027 5.03559
L 3.05787 5.03559
L 2.97644 4.46713
L 2.94616 4.46713
C 2.61 4.92044 2.1308 5.14761 1.50858 5.14761
C 1.044 5.14761 0.668159 4.99791 0.385235 4.70059
C 0.128412 4.43049 0 4.09443 0 3.69556
C 0 3.09255 0.25056 2.63296 0.754811 2.3147
C 1.25802 1.99644 1.96585 1.84045 2.87726 1.84778
L 2.87726 1.75565
C 2.87726 1.10553 2.53692 0.780988 1.85518 0.780988
C 1.36973 0.780988 0.941686 0.903476 0.572111 1.14636
L 0.349739 0.426089
C 0.807011 0.142379 1.37181 0 2.03788 0
C 3.32409 0 3.96928 0.680486 3.96928 2.04146
L 3.96928 3.85888
C 3.96928 4.35197 3.99329 4.74456 4.04027 5.03559
Z
M 2.9044 3.33961
L 2.9044 2.57852
C 1.69754 2.55758 1.09411 2.88945 1.09411 3.57307
C 1.09411 3.83061 1.16301 4.02324 1.30395 4.15201
C 1.44489 4.28078 1.62446 4.34464 1.83848 4.34464
C 2.0786 4.34464 2.30306 4.26822 2.50768 4.11642
C 2.71335 3.96357 2.83967 3.76989 2.88665 3.53224
C 2.89814 3.47885 2.9044 3.41394 2.9044 3.33961
Z"/>
<path id="path18_fill" fill-rule="evenodd" d="
M 4.69799 7.19954
L 3.72707 7.19954
L 3.67592 6.40704
L 3.64564 6.40704
C 3.33557 7.01005 2.80731 7.31156 2.06503 7.31156
C 1.47204 7.31156 0.978226 7.0781 0.586727 6.61118
C 0.195228 6.14426 0 5.53811 0 4.79376
C 0 3.99497 0.211932 3.34799 0.637883 2.85385
C 1.05026 2.39322 1.55556 2.1629 2.1569 2.1629
C 2.81775 2.1629 3.28024 2.38589 3.54333 2.83291
L 3.56421 2.83291
L 3.56421 0
L 4.65936 0
L 4.65936 5.86997
C 4.65936 6.3505 4.67189 6.79334 4.69799 7.19954
Z
M 3.56421 5.1183
L 3.56421 4.29544
C 3.56421 4.15306 3.55377 4.0379 3.53393 3.94996
C 3.47234 3.68614 3.33975 3.4642 3.13826 3.28518
C 2.93468 3.10616 2.68934 3.01612 2.40642 3.01612
C 1.99821 3.01612 1.67875 3.17839 1.44385 3.50398
C 1.21104 3.82956 1.09307 4.24518 1.09307 4.75293
C 1.09307 5.24079 1.20477 5.63652 1.42923 5.94116
C 1.66622 6.2657 1.98568 6.42797 2.38554 6.42797
C 2.74467 6.42797 3.03177 6.29292 3.24997 6.02178
C 3.46085 5.77157 3.56421 5.47006 3.56421 5.1183
Z"/>
<path id="path19_fill" fill-rule="evenodd" d="
M 4.82014 2.52722
C 4.82014 3.28622 4.60403 3.90808 4.17182 4.39594
C 3.71872 4.8974 3.11947 5.14761 2.36883 5.14761
C 1.64743 5.14761 1.07219 4.90787 0.642059 4.4263
C 0.21402 3.94577 0 3.33961 0 2.60888
C 0 1.84464 0.220284 1.21755 0.662939 0.730737
C 1.10559 0.243928 1.70067 0 2.45131 0
C 3.17271 0 3.75422 0.23974 4.1927 0.720268
C 4.6103 1.18719 4.82014 1.7902 4.82014 2.52722
Z
M 3.68636 2.56281
C 3.68636 2.10741 3.58822 1.71692 3.39299 1.39133
C 3.16227 0.997697 2.83654 0.800879 2.41059 0.800879
C 1.97211 0.800879 1.63803 0.997697 1.40731 1.39133
C 1.21104 1.71692 1.11395 2.11369 1.11395 2.58271
C 1.11395 3.03811 1.21208 3.4286 1.40731 3.75419
C 1.6443 4.14782 1.9742 4.34464 2.40015 4.34464
C 2.81775 4.34464 3.14661 4.14468 3.38255 3.74372
C 3.58405 3.41185 3.68636 3.01822 3.68636 2.56281
Z"/>
<path id="path20_fill" fill-rule="evenodd" d="
M 4.31276 5.03874
L 3.21969 5.03874
L 3.21969 2.2121
C 3.21969 1.34108 2.88979 0.90557 2.22685 0.90557
C 1.90216 0.90557 1.64012 1.02492 1.43759 1.26466
C 1.23505 1.5044 1.13378 1.78706 1.13378 2.11055
L 1.13378 5.03769
L 0.0386279 5.03769
L 0.0386279 1.51382
C 0.0386279 1.0804 0.0261 0.610343 0 0.101549
L 0.960478 0.101549
L 1.01163 0.873116
L 1.04191 0.873116
C 1.17032 0.633375 1.36033 0.435511 1.6088 0.277429
C 1.90634 0.0931742 2.23729 0 2.60164 0
C 3.05996 0 3.44206 0.14866 3.74587 0.447027
C 4.12484 0.812395 4.31276 1.35783 4.31276 2.08229
L 4.31276 5.03874
Z"/>
<path id="path21_fill" fill-rule="evenodd" d="
M 2.99732 2.05088
L 1.79254 2.05088
L 1.79254 4.44828
C 1.79254 5.05758 2.00656 5.36223 2.43043 5.36223
C 2.6267 5.36223 2.78956 5.34548 2.91797 5.31093
L 2.94616 6.14322
C 2.73006 6.22487 2.44609 6.2657 2.09635 6.2657
C 1.66413 6.2657 1.32797 6.13379 1.08471 5.86997
C 0.840419 5.60616 0.719315 5.16227 0.719315 4.53936
L 0.719315 2.05088
L 0 2.05088
L 0 1.22906
L 0.719315 1.22906
L 0.719315 0.324539
L 1.7915 0
L 1.7915 1.22802
L 2.99627 1.22802
L 2.99627 2.05088
L 2.99732 2.05088
Z"/>
<path id="path22_fill" fill-rule="evenodd" d="
M 4.27413 7.19954
L 3.17897 7.19954
L 3.17897 4.39384
C 3.17897 3.50921 2.84907 3.06637 2.18822 3.06637
C 1.68084 3.06637 1.33423 3.32286 1.14422 3.83585
C 1.11186 3.94368 1.09307 4.07559 1.09307 4.23053
L 1.09307 7.19849
L 0 7.19849
L 0 0
L 1.09307 0
L 1.09307 2.97425
L 1.11395 2.97425
C 1.45847 2.433 1.95228 2.1629 2.59225 2.1629
C 3.04534 2.1629 3.42014 2.31156 3.71768 2.60992
C 4.0883 2.98157 4.27413 3.53434 4.27413 4.26508
L 4.27413 7.19954
Z"/>
<path id="path23_fill" fill-rule="evenodd" d="
M 4.3754 2.34401
C 4.3754 2.54083 4.36078 2.70624 4.33468 2.84129
L 1.05339 2.84129
C 1.06801 3.32915 1.22461 3.7008 1.52841 3.95833
C 1.80612 4.18865 2.16421 4.30381 2.60269 4.30381
C 3.08815 4.30381 3.5308 4.22634 3.92961 4.07035
L 4.10082 4.8325
C 3.63416 5.03559 3.08501 5.13714 2.44922 5.13714
C 1.6871 5.13714 1.0868 4.91206 0.652499 4.46189
C 0.216108 4.01173 0 3.40766 0 2.64971
C 0 1.90536 0.201492 1.28559 0.607607 0.791457
C 1.03147 0.263819 1.60463 0 2.32812 0
C 3.03595 0 3.57361 0.263819 3.93692 0.791457
C 4.23028 1.21022 4.3754 1.72843 4.3754 2.34401
Z
M 3.3314 2.0603
C 3.33975 1.73472 3.26771 1.45415 3.11947 1.21755
C 2.92946 0.912898 2.64027 0.76005 2.24877 0.76005
C 1.89172 0.76005 1.60045 0.90871 1.37808 1.20708
C 1.19642 1.44472 1.08889 1.72843 1.05339 2.0603
L 3.3314 2.0603
Z"/>
</defs>
</svg>
