<svg width="139" height="40" viewBox="0 0 139 40" version="2.0" xmlns="http://www.w3.org/2000/svg" xmlns:xlink="http://www.w3.org/1999/xlink" xmlns:figma="http://www.figma.com/figma/ns">
<title>app-store</title>
<desc>Created using Figma 0.90</desc>
<g id="Canvas" transform="translate(1230 -2517)" figma:type="canvas">
<g id="app-store" style="mix-blend-mode:normal;" figma:type="group">
<g id="Canvas" style="mix-blend-mode:normal;" figma:type="group">
<g id="app-store" style="mix-blend-mode:normal;isolation:isolate;" figma:type="group">
<g id="Canvas" style="mix-blend-mode:normal;isolation:isolate;" figma:type="group">
<g id="app-store-badge" style="mix-blend-mode:normal;isolation:isolate;" figma:type="group">
<g id="Page 1" style="mix-blend-mode:normal;isolation:isolate;" figma:type="group">
<g id="app store badge" style="mix-blend-mode:normal;isolation:isolate;" figma:type="group">
<g id="US UK Download on the" style="mix-blend-mode:normal;isolation:isolate;" figma:type="group">
<g id="Group" style="mix-blend-mode:normal;isolation:isolate;" figma:type="group">
<g id="Shape" style="mix-blend-mode:normal;isolation:isolate;" figma:type="group">
<g id="Vector" style="mix-blend-mode:normal;isolation:isolate;" figma:type="group">
<g id="Vector" style="mix-blend-mode:normal;isolation:isolate;" figma:type="vector">
<use xlink:href="#path0_fill" transform="translate(-1230 2517)" style="mix-blend-mode:normal;"/>
</g>
</g>
</g>
<g id="Shape" style="mix-blend-mode:normal;isolation:isolate;" figma:type="group">
<g id="Vector" style="mix-blend-mode:normal;isolation:isolate;" figma:type="group">
<g id="Vector" style="mix-blend-mode:normal;isolation:isolate;" figma:type="group">
<g id="Vector" style="mix-blend-mode:normal;isolation:isolate;" figma:type="vector">
<use xlink:href="#path1_fill" transform="translate(-1217.57 2529.02)" fill="#FFFFFF" style="mix-blend-mode:normal;"/>
</g>
</g>
</g>
<g id="Vector" style="mix-blend-mode:normal;isolation:isolate;" figma:type="group">
<g id="Vector" style="mix-blend-mode:normal;isolation:isolate;" figma:type="group">
<g id="Vector" style="mix-blend-mode:normal;isolation:isolate;" figma:type="vector">
<use xlink:href="#path2_fill" transform="translate(-1206.81 2522.58)" fill="#FFFFFF" style="mix-blend-mode:normal;"/>
</g>
</g>
</g>
</g>
<g id="Shape" style="mix-blend-mode:normal;isolation:isolate;" figma:type="group">
<g id="Vector" style="mix-blend-mode:normal;isolation:isolate;" figma:type="group">
<g id="Vector" style="mix-blend-mode:normal;isolation:isolate;" figma:type="group">
<g id="Vector" style="mix-blend-mode:normal;isolation:isolate;" figma:type="vector">
<use xlink:href="#path3_fill" transform="translate(-1186.65 2535.11)" fill="#FFFFFF" style="mix-blend-mode:normal;"/>
</g>
</g>
</g>
<g id="Vector" style="mix-blend-mode:normal;isolation:isolate;" figma:type="group">
<g id="Vector" style="mix-blend-mode:normal;isolation:isolate;" figma:type="group">
<g id="Vector" style="mix-blend-mode:normal;isolation:isolate;" figma:type="vector">
<use xlink:href="#path4_fill" transform="translate(-1173.07 2538.8)" fill="#FFFFFF" style="mix-blend-mode:normal;"/>
</g>
</g>
</g>
<g id="Vector" style="mix-blend-mode:normal;isolation:isolate;" figma:type="group">
<g id="Vector" style="mix-blend-mode:normal;isolation:isolate;" figma:type="group">
<g id="Vector" style="mix-blend-mode:normal;isolation:isolate;" figma:type="vector">
<use xlink:href="#path5_fill" transform="translate(-1161.55 2538.8)" fill="#FFFFFF" style="mix-blend-mode:normal;"/>
</g>
</g>
</g>
<g id="Vector" style="mix-blend-mode:normal;isolation:isolate;" figma:type="group">
<g id="Vector" style="mix-blend-mode:normal;isolation:isolate;" figma:type="group">
<g id="Vector" style="mix-blend-mode:normal;isolation:isolate;" figma:type="vector">
<use xlink:href="#path6_fill" transform="translate(-1147.64 2534.91)" fill="#FFFFFF" style="mix-blend-mode:normal;"/>
</g>
</g>
</g>
<g id="Vector" style="mix-blend-mode:normal;isolation:isolate;" figma:type="group">
<g id="Vector" style="mix-blend-mode:normal;isolation:isolate;" figma:type="group">
<g id="Vector" style="mix-blend-mode:normal;isolation:isolate;" figma:type="vector">
<use xlink:href="#path7_fill" transform="translate(-1137.76 2536.5)" fill="#FFFFFF" style="mix-blend-mode:normal;"/>
</g>
</g>
</g>
<g id="Vector" style="mix-blend-mode:normal;isolation:isolate;" figma:type="group">
<g id="Vector" style="mix-blend-mode:normal;isolation:isolate;" figma:type="group">
<g id="Vector" style="mix-blend-mode:normal;isolation:isolate;" figma:type="vector">
<use xlink:href="#path8_fill" transform="translate(-1130.4 2538.8)" fill="#FFFFFF" style="mix-blend-mode:normal;"/>
</g>
</g>
</g>
<g id="Vector" style="mix-blend-mode:normal;isolation:isolate;" figma:type="group">
<g id="Vector" style="mix-blend-mode:normal;isolation:isolate;" figma:type="group">
<g id="Vector" style="mix-blend-mode:normal;isolation:isolate;" figma:type="vector">
<use xlink:href="#path9_fill" transform="translate(-1118.71 2538.8)" fill="#FFFFFF" style="mix-blend-mode:normal;"/>
</g>
</g>
</g>
<g id="Vector" style="mix-blend-mode:normal;isolation:isolate;" figma:type="group">
<g id="Vector" style="mix-blend-mode:normal;isolation:isolate;" figma:type="group">
<g id="Vector" style="mix-blend-mode:normal;isolation:isolate;" figma:type="vector">
<use xlink:href="#path10_fill" transform="translate(-1112.3 2538.78)" fill="#FFFFFF" style="mix-blend-mode:normal;"/>
</g>
</g>
</g>
</g>
<g id="Group" style="mix-blend-mode:normal;" figma:type="group">
<g id="Vector" style="mix-blend-mode:normal;" figma:type="vector">
<use xlink:href="#path11_fill" transform="translate(-1185.5 2523.28)" fill="#FFFFFF" style="mix-blend-mode:normal;"/>
</g>
<g id="Vector" style="mix-blend-mode:normal;" figma:type="vector">
<use xlink:href="#path12_fill" transform="translate(-1178.95 2525.19)" fill="#FFFFFF" style="mix-blend-mode:normal;"/>
</g>
<g id="Vector" style="mix-blend-mode:normal;" figma:type="vector">
<use xlink:href="#path13_fill" transform="translate(-1173.3 2525.09)" fill="#FFFFFF" style="mix-blend-mode:normal;"/>
</g>
<g id="Vector" style="mix-blend-mode:normal;" figma:type="vector">
<use xlink:href="#path14_fill" transform="translate(-1167.53 2523.07)" fill="#FFFFFF" style="mix-blend-mode:normal;"/>
</g>
<g id="Vector" style="mix-blend-mode:normal;" figma:type="vector">
<use xlink:href="#path15_fill" transform="translate(-1164.36 2522.93)" fill="#FFFFFF" style="mix-blend-mode:normal;"/>
</g>
<g id="Vector" style="mix-blend-mode:normal;" figma:type="vector">
<use xlink:href="#path16_fill" transform="translate(-1161.67 2525.09)" fill="#FFFFFF" style="mix-blend-mode:normal;"/>
</g>
<g id="Vector" style="mix-blend-mode:normal;" figma:type="vector">
<use xlink:href="#path17_fill" transform="translate(-1155.82 2522.93)" fill="#FFFFFF" style="mix-blend-mode:normal;"/>
</g>
<g id="Vector" style="mix-blend-mode:normal;" figma:type="vector">
<use xlink:href="#path18_fill" transform="translate(-1149.44 2522.93)" fill="#FFFFFF" style="mix-blend-mode:normal;"/>
</g>
<g id="Vector" style="mix-blend-mode:normal;" figma:type="vector">
<use xlink:href="#path19_fill" transform="translate(-1146.73 2525.08)" fill="#FFFFFF" style="mix-blend-mode:normal;"/>
</g>
<g id="Vector" style="mix-blend-mode:normal;" figma:type="vector">
<use xlink:href="#path20_fill" transform="translate(-1138.11 2525.09)" fill="#FFFFFF" style="mix-blend-mode:normal;"/>
</g>
<g id="Vector" style="mix-blend-mode:normal;" figma:type="vector">
<use xlink:href="#path21_fill" transform="translate(-1131.7 2525.09)" fill="#FFFFFF" style="mix-blend-mode:normal;"/>
</g>
<g id="Vector" style="mix-blend-mode:normal;" figma:type="vector">
<use xlink:href="#path22_fill" transform="translate(-1123.21 2523.96)" fill="#FFFFFF" style="mix-blend-mode:normal;"/>
</g>
<g id="Vector" style="mix-blend-mode:normal;" figma:type="vector">
<use xlink:href="#path23_fill" transform="translate(-1118.68 2522.93)" fill="#FFFFFF" style="mix-blend-mode:normal;"/>
</g>
<g id="Vector" style="mix-blend-mode:normal;" figma:type="vector">
<use xlink:href="#path24_fill" transform="translate(-1113.14 2525.08)" fill="#FFFFFF" style="mix-blend-mode:normal;"/>
</g>
</g>
</g>
</g>
</g>
</g>
</g>
</g>
</g>
</g>
</g>
</g>
<defs>
<path id="path0_fill" fill-rule="evenodd" d="M 139 35.9904C 139 38.2056 137.211 40 134.997 40L 4.00791 40C 1.79568 40 0 38.2056 0 35.9904L 0 4.01487C 0 1.80067 1.79568 0 4.00791 0L 134.996 0C 137.211 0 138.999 1.80067 138.999 4.01487L 139 35.9904Z"/>
<path id="path1_fill" fill-rule="evenodd" d="M 18.0989 7.76078C 18.0686 4.38662 20.854 2.74508 20.9813 2.66866C 19.4039 0.362336 16.9588 0.0472191 16.0996 0.0220935C 14.0461 -0.194616 12.0541 1.25429 11.008 1.25429C 9.94105 1.25429 8.33016 0.0430315 6.59399 0.0786261C 4.35984 0.113173 2.26975 1.41028 1.12344 3.42452C -1.24226 7.53151 0.522098 13.5669 2.78862 16.8866C 3.9224 18.5125 5.24724 20.3278 6.98132 20.2639C 8.67781 20.1938 9.31152 19.1793 11.3588 19.1793C 13.3873 19.1793 13.9824 20.2639 15.7509 20.2231C 17.5716 20.1938 18.7179 18.5899 19.8121 16.9494C 21.1223 15.086 21.6484 13.2507 21.6693 13.1565C 21.6265 13.1419 18.1333 11.805 18.0989 7.76078Z"/>
<path id="path2_fill" fill-rule="evenodd" d="M 3.98973 4.28078C 4.90219 3.13652 5.5265 1.57977 5.35319 0C 4.03254 0.0586265 2.38093 0.916039 1.42985 2.03518C 0.588391 3.02136 -0.163287 4.63777 0.0308963 6.15787C 1.51441 6.26884 3.03761 5.40724 3.98973 4.28078Z"/>
<path id="path3_fill" fill-rule="evenodd" d="M 11.7293 13.9322L 9.3584 13.9322L 8.05967 9.83982L 3.54542 9.83982L 2.30828 13.9322L 0 13.9322L 4.47249 0L 7.23491 0L 11.7293 13.9322ZM 7.66817 8.12291L 6.49367 4.48492C 6.36943 4.11327 6.13662 3.23807 5.79315 1.86034L 5.75139 1.86034C 5.61462 2.45289 5.39434 3.3281 5.09158 4.48492L 3.93796 8.12291L 7.66817 8.12291Z"/>
<path id="path4_fill" fill-rule="evenodd" d="M 9.64759 5.10574C 9.64759 6.81428 9.18718 8.16478 8.26638 9.1562C 7.44162 10.0387 6.41746 10.4795 5.19493 10.4795C 3.87532 10.4795 2.92737 10.0042 2.35004 9.0536L 2.30828 9.0536L 2.30828 14.3457L 0.0824759 14.3457L 0.0824759 3.5134C 0.0824759 2.43928 0.0542879 1.33689 0 0.20624L 1.9575 0.20624L 2.08173 1.79858L 2.12349 1.79858C 2.86577 0.598827 3.99225 0 5.50396 0C 6.68576 0 7.67234 0.467965 8.4616 1.40494C 9.25296 2.34296 9.64759 3.57621 9.64759 5.10574ZM 7.38002 5.1874C 7.38002 4.20959 7.16078 3.40348 6.72022 2.76905C 6.23893 2.10741 5.5927 1.77659 4.78256 1.77659C 4.23341 1.77659 3.73438 1.96085 3.28859 2.32412C 2.84176 2.69054 2.54944 3.16897 2.41268 3.76152C 2.34378 4.0379 2.30932 4.26403 2.30932 4.442L 2.30932 6.11704C 2.30932 6.84778 2.53274 7.46441 2.97957 7.96796C 3.4264 8.47152 4.00686 8.72278 4.72096 8.72278C 5.55929 8.72278 6.21179 8.39824 6.67846 7.75126C 7.14617 7.10322 7.38002 6.24895 7.38002 5.1874Z"/>
<path id="path5_fill" fill-rule="evenodd" d="M 9.64654 5.10574C 9.64654 6.81428 9.18614 8.16478 8.26429 9.1562C 7.44057 10.0387 6.41641 10.4795 5.19389 10.4795C 3.87428 10.4795 2.92633 10.0042 2.35004 9.0536L 2.30828 9.0536L 2.30828 14.3457L 0.0824759 14.3457L 0.0824759 3.5134C 0.0824759 2.43928 0.0542879 1.33689 0 0.20624L 1.9575 0.20624L 2.08173 1.79858L 2.12349 1.79858C 2.86473 0.598827 3.9912 0 5.50396 0C 6.68472 0 7.6713 0.467965 8.46265 1.40494C 9.25087 2.34296 9.64654 3.57621 9.64654 5.10574ZM 7.37898 5.1874C 7.37898 4.20959 7.1587 3.40348 6.71813 2.76905C 6.23684 2.10741 5.5927 1.77659 4.78151 1.77659C 4.23132 1.77659 3.73334 1.96085 3.28651 2.32412C 2.83967 2.69054 2.5484 3.16897 2.41164 3.76152C 2.34378 4.0379 2.30828 4.26403 2.30828 4.442L 2.30828 6.11704C 2.30828 6.84778 2.5317 7.46441 2.97644 7.96796C 3.42327 8.47048 4.00373 8.72278 4.71992 8.72278C 5.55825 8.72278 6.21074 8.39824 6.67741 7.75126C 7.14512 7.10322 7.37898 6.24895 7.37898 5.1874Z"/>
<path id="path6_fill" fill-rule="evenodd" d="M 8.61925 10.2293C 8.61925 11.4144 8.20896 12.3786 7.38524 13.1229C 6.4801 13.9363 5.21999 14.3425 3.60075 14.3425C 2.10574 14.3425 0.907234 14.0536 0 13.4747L 0.515735 11.6143C 1.49292 12.2069 2.5651 12.5042 3.73334 12.5042C 4.57167 12.5042 5.22417 12.3137 5.69292 11.9347C 6.15959 11.5557 6.3924 11.0469 6.3924 10.4125C 6.3924 9.84715 6.2003 9.37081 5.81507 8.98451C 5.43192 8.5982 4.79195 8.23911 3.89829 7.90724C 1.46577 6.99749 0.25056 5.66478 0.25056 3.91227C 0.25056 2.76696 0.676511 1.82789 1.52946 1.09715C 2.37927 0.365369 3.51305 0 4.9308 0C 6.19508 0 7.24535 0.220896 8.08368 0.661642L 7.52723 2.48116C 6.74423 2.05402 5.85892 1.84045 4.86816 1.84045C 4.08516 1.84045 3.47338 2.03413 3.0349 2.41939C 2.66428 2.76382 2.47845 3.18363 2.47845 3.6809C 2.47845 4.23157 2.69038 4.68698 3.11633 5.04502C 3.48695 5.37584 4.16033 5.73388 5.13751 6.12018C 6.33289 6.60281 7.2109 7.16709 7.7757 7.81407C 8.33841 8.45896 8.61925 9.26612 8.61925 10.2293Z"/>
<path id="path7_fill" fill-rule="evenodd" d="M 6.10113 4.17818L 3.64773 4.17818L 3.64773 9.0557C 3.64773 10.2963 4.07994 10.916 4.94646 10.916C 5.34423 10.916 5.67413 10.8815 5.93513 10.8124L 5.99673 12.5073C 5.55825 12.6717 4.98092 12.7544 4.26578 12.7544C 3.38673 12.7544 2.69978 12.4853 2.20388 11.9483C 1.71007 11.4102 1.4616 10.5077 1.4616 9.23995L 1.4616 4.17609L 0 4.17609L 0 2.50105L 1.4616 2.50105L 1.4616 0.661642L 3.64773 0L 3.64773 2.50105L 6.10113 2.50105L 6.10113 4.17818Z"/>
<path id="path8_fill" fill-rule="evenodd" d="M 9.81254 5.14552C 9.81254 6.6897 9.37197 7.9575 8.49292 8.94891C 7.57107 9.96964 6.34751 10.4784 4.82223 10.4784C 3.35228 10.4784 2.18196 9.98953 1.30917 9.01173C 0.436391 8.03392 0 6.79962 0 5.31198C 0 3.75523 0.448919 2.48011 1.34989 1.48869C 2.24877 0.496231 3.4619 0 4.98718 0C 6.45713 0 7.63998 0.488903 8.5326 1.46776C 9.38659 2.41729 9.81254 3.64322 9.81254 5.14552ZM 7.50321 5.21776C 7.50321 4.29125 7.3059 3.49665 6.90605 2.83396C 6.43938 2.03204 5.77227 1.63212 4.90784 1.63212C 4.01313 1.63212 3.33349 2.03308 2.86682 2.83396C 2.46697 3.4977 2.26965 4.30486 2.26965 5.25963C 2.26965 6.18614 2.46697 6.98074 2.86682 7.64238C 3.3481 8.4443 4.02044 8.84422 4.888 8.84422C 5.73781 8.84422 6.40493 8.43593 6.88621 7.62144C 7.2965 6.94619 7.50321 6.14322 7.50321 5.21776Z"/>
<path id="path9_fill" fill-rule="evenodd" d="M 5.35989 2.16918C 5.1396 2.12835 4.9047 2.10741 4.65832 2.10741C 3.87532 2.10741 3.2698 2.40369 2.84385 2.99728C 2.47323 3.52073 2.2874 4.18237 2.2874 4.98116L 2.2874 10.2523L 0.0626399 10.2523L 0.0835199 3.36997C 0.0835199 2.2121 0.0553319 1.15787 0 0.207286L 1.9387 0.207286L 2.02014 2.1294L 2.08173 2.1294C 2.31663 1.4688 2.68725 0.936977 3.19463 0.538107C 3.69053 0.17902 4.2261 0 4.80344 0C 5.0091 0 5.19493 0.0146566 5.35989 0.0408291L 5.35989 2.16918Z"/>
<path id="path10_fill" fill-rule="evenodd" d="M 8.90322 4.77282C 8.90322 5.17274 8.87712 5.50984 8.82178 5.78518L 2.14437 5.78518C 2.17047 6.77764 2.49307 7.53664 3.1132 8.06009C 3.67592 8.52806 4.40358 8.76256 5.29725 8.76256C 6.28591 8.76256 7.18793 8.60448 7.99911 8.28727L 8.34781 9.83668C 7.39986 10.2513 6.28069 10.4575 4.98927 10.4575C 3.4358 10.4575 2.21641 9.99895 1.32901 9.08291C 0.443699 8.16688 0 6.93677 0 5.39363C 0 3.87877 0.412379 2.61725 1.23818 1.61118C 2.10261 0.53706 3.27085 0 4.7408 0C 6.18464 0 7.27771 0.53706 8.01999 1.61118C 8.60776 2.46441 8.90322 3.51968 8.90322 4.77282ZM 6.78077 4.19389C 6.79538 3.53224 6.65027 2.96064 6.34855 2.47802C 5.96332 1.8572 5.37137 1.54732 4.5748 1.54732C 3.84713 1.54732 3.25519 1.84987 2.80313 2.45708C 2.43252 2.9397 2.21223 3.51863 2.14437 4.19284L 6.78077 4.19284L 6.78077 4.19389Z"/>
<path id="path11_fill" d="M 5.77832 6.84338L 4.60968 6.84338L 3.97044 4.83358L 1.7472 4.83358L 1.13725 6.84338L 0 6.84338L 2.20336 0L 3.56345 0L 5.77832 6.84338ZM 3.77793 3.99032L 3.19937 2.20336C 3.13869 2.02027 3.02674 1.59445 2.85411 0.914404L 2.83319 0.914404C 2.76204 1.20839 2.66056 1.63526 2.50781 2.20336L 1.93971 3.99032L 3.77793 3.99032Z"/>
<path id="path12_fill" d="M 4.74255 0L 2.87399 4.93401L 1.80788 4.93401L 0 0L 1.17805 0L 2.02131 2.60929C 2.1636 3.04557 2.28496 3.46197 2.37599 3.85745L 2.40633 3.85745C 2.48793 3.50277 2.60929 3.08637 2.761 2.60929L 3.5938 0L 4.74255 0Z"/>
<path id="path13_fill" d="M 3.0665 5.0355L 2.98489 4.4674L 2.95455 4.4674C 2.61976 4.9246 2.13221 5.14745 1.51285 5.14745C 0.62983 5.14745 0 4.52808 0 3.69528C 0 2.47747 1.05564 1.84764 2.88341 1.84764L 2.88341 1.75662C 2.88341 1.10691 2.53815 0.781533 1.8581 0.781533C 1.37056 0.781533 0.943698 0.903942 0.569148 1.14771L 0.346302 0.426861C 0.803504 0.142287 1.37161 0 2.04224 0C 3.33119 0 3.98195 0.680049 3.98195 2.04119L 3.98195 3.85849C 3.98195 4.3565 4.00287 4.74256 4.05309 5.03655L 3.0665 5.0355ZM 2.91375 2.57791C 1.69489 2.57791 1.08599 2.87294 1.08599 3.57287C 1.08599 4.09075 1.4009 4.34394 1.83718 4.34394C 2.39586 4.34394 2.91375 3.91813 2.91375 3.33956L 2.91375 2.57791Z"/>
<path id="path14_fill" d="M 0.649708 1.30988C 0.284574 1.30988 0 1.0253 0 0.649708C 0 0.274112 0.29399 0 0.670633 0C 1.04623 0 1.35068 0.274112 1.34022 0.649708C 1.34022 1.04623 1.05669 1.30988 0.649708 1.30988ZM 1.21886 7.05681L 0.122409 7.05681L 0.122409 2.1228L 1.21886 2.1228L 1.21886 7.05681L 1.21886 7.05681Z"/>
<path id="path15_fill" d="M 1.09645 7.19805L 0 7.19805L 0 0L 1.09645 0L 1.09645 7.19805Z"/>
<path id="path16_fill" d="M 3.0665 5.03655L 2.98489 4.46844L 2.95455 4.46844C 2.61976 4.92564 2.13221 5.14849 1.51285 5.14849C 0.62983 5.14849 0 4.52912 0 3.69633C 0 2.47852 1.05564 1.84869 2.88341 1.84869L 2.88341 1.75766C 2.88341 1.10796 2.53815 0.782579 1.8581 0.782579C 1.37056 0.782579 0.943698 0.904988 0.569148 1.14876L 0.345255 0.426861C 0.802457 0.142287 1.37056 0 2.04119 0C 3.33015 0 3.9809 0.680049 3.9809 2.04119L 3.9809 3.85849C 3.9809 4.3565 4.00287 4.74256 4.051 5.03655L 3.0665 5.03655L 3.0665 5.03655ZM 2.91375 2.57895C 1.69489 2.57895 1.08599 2.87399 1.08599 3.57392C 1.08599 4.0918 1.4009 4.34499 1.83718 4.34499C 2.39586 4.34499 2.91375 3.91917 2.91375 3.34061L 2.91375 2.57895Z"/>
<path id="path17_fill" d="M 2.57058 7.31C 1.87066 7.31 1.35382 7.01496 1.01903 6.4364L 0.997056 6.4364L 0.934282 7.19805L 0 7.19805C 0.0303406 6.80258 0.0408029 6.35479 0.0408029 5.8683L 0.0408029 0L 1.1383 0L 1.1383 2.98594L 1.15922 2.98594C 1.4846 2.43771 2.01085 2.1636 2.73275 2.1636C 3.92127 2.1636 4.75406 3.17949 4.75406 4.66095C 4.75406 6.19263 3.8292 7.31 2.57058 7.31ZM 2.34774 3.02465C 1.71686 3.02465 1.13934 3.57287 1.13934 4.33453L 1.13934 5.19766C 1.13934 5.87771 1.65827 6.4364 2.32891 6.4364C 3.15019 6.4364 3.63878 5.76681 3.63878 4.70071C 3.63774 3.70574 3.12927 3.02465 2.34774 3.02465Z"/>
<path id="path18_fill" d="M 1.0954 7.19805L 0 7.19805L 0 0L 1.0954 0L 1.0954 7.19805Z"/>
<path id="path19_fill" d="M 4.34917 2.8426L 1.05774 2.8426C 1.07971 3.77689 1.69698 4.30418 2.61139 4.30418C 3.09893 4.30418 3.54567 4.22258 3.94114 4.07088L 4.11168 4.83253C 3.64506 5.0355 3.09684 5.13698 2.45759 5.13698C 0.913358 5.13698 0 4.1619 0 2.6501C 0 1.13725 0.935328 0 2.33414 0C 3.59275 0 4.38579 0.934282 4.38579 2.34564C 4.38998 2.53815 4.38056 2.71078 4.34917 2.8426ZM 3.34375 2.06107C 3.34375 1.29942 2.95769 0.761654 2.25672 0.761654C 1.62689 0.761654 1.13097 1.30988 1.05774 2.06107L 3.34375 2.06107L 3.34375 2.06107Z"/>
<path id="path20_fill" d="M 2.37599 5.14745C 0.934282 5.14745 0 4.07088 0 2.60929C 0 1.08599 0.954161 0 2.45864 0C 3.87837 0 4.83462 1.0253 4.83462 2.52873C 4.83462 4.07088 3.84908 5.14745 2.37599 5.14745ZM 2.41783 0.801411C 1.62584 0.801411 1.11842 1.54214 1.11842 2.57791C 1.11842 3.5938 1.6363 4.33453 2.40737 4.33453C 3.17844 4.33453 3.69528 3.54253 3.69528 2.55698C 3.69633 1.5526 3.18891 0.801411 2.41783 0.801411Z"/>
<path id="path21_fill" d="M 4.32406 5.03655L 3.22866 5.03655L 3.22866 2.20336C 3.22866 1.3308 2.89387 0.893479 2.2337 0.893479C 1.58399 0.893479 1.1362 1.45217 1.1362 2.10187L 1.1362 5.03655L 0.0408029 5.03655L 0.0408029 1.51285C 0.0408029 1.07657 0.0292944 0.608905 0 0.101484L 0.964623 0.101484L 1.01589 0.863139L 1.04623 0.863139C 1.33917 0.335839 1.93971 0 2.60929 0C 3.64401 0 4.32406 0.791995 4.32406 2.08095L 4.32406 5.03655Z"/>
<path id="path22_fill" d="M 3.00163 2.05165L 1.79533 2.05165L 1.79533 4.44752C 1.79533 5.05747 2.00771 5.36192 2.43353 5.36192C 2.62708 5.36192 2.79029 5.341 2.92107 5.31066L 2.95141 6.14346C 2.73798 6.22506 2.45236 6.26586 2.09978 6.26586C 1.2356 6.26586 0.719805 5.78878 0.719805 4.53959L 0.719805 2.05165L 0 2.05165L 0 1.22932L 0.719805 1.22932L 0.719805 0.325377L 1.79533 0L 1.79533 1.22827L 3.00163 1.22827L 3.00163 2.05165Z"/>
<path id="path23_fill" d="M 4.28535 7.19805L 3.18786 7.19805L 3.18786 4.38579C 3.18786 3.50277 2.85307 3.05603 2.1929 3.05603C 1.62479 3.05603 1.09749 3.44209 1.09749 4.22363L 1.09749 7.19805L 0 7.19805L 0 0L 1.09749 0L 1.09749 2.96397L 1.11842 2.96397C 1.46367 2.4262 1.96168 2.16151 2.60092 2.16151C 3.64611 2.16151 4.28535 2.97338 4.28535 4.26338L 4.28535 7.19805Z"/>
<path id="path24_fill" d="M 4.34917 2.8426L 1.05878 2.8426C 1.07971 3.77689 1.69698 4.30418 2.61139 4.30418C 3.09998 4.30418 3.54567 4.22258 3.94114 4.07088L 4.11273 4.83253C 3.64611 5.0355 3.09684 5.13698 2.45759 5.13698C 0.913358 5.13698 0 4.1619 0 2.6501C 0 1.13725 0.935328 0 2.33414 0C 3.59275 0 4.38579 0.934282 4.38579 2.34564C 4.38998 2.53815 4.37951 2.71078 4.34917 2.8426ZM 3.34375 2.06107C 3.34375 1.29942 2.95873 0.761654 2.25776 0.761654C 1.62689 0.761654 1.13097 1.30988 1.05878 2.06107L 3.34375 2.06107L 3.34375 2.06107Z"/>
</defs>
</svg>
