<?xml version="1.0" encoding="UTF-8" standalone="no"?>
<svg width="489px" height="70px" viewBox="0 0 489 70" version="1.1" xmlns="http://www.w3.org/2000/svg" xmlns:xlink="http://www.w3.org/1999/xlink">
    <!-- Generator: Sketch 3.8.2 (29753) - http://www.bohemiancoding.com/sketch -->
    <title>Group 2</title>
    <desc>Created with Sketch.</desc>
    <defs></defs>
    <g id="Page-1" stroke="none" stroke-width="1" fill="none" fill-rule="evenodd">
        <g id="Group-2">
            <path d="M0.7225,42.488 C0.7225,43.406 1.4515,44.135 2.3965,44.135 C3.3145,44.135 4.0435,43.406 4.0435,42.488 L4.0435,26.612 C4.0435,25.694 3.3145,24.965 2.3965,24.965 C1.4515,24.965 0.7225,25.694 0.7225,26.612 L0.7225,42.488 Z M9.0925,42.515 C9.0925,43.406 9.8215,44.135 10.7395,44.135 C11.6305,44.135 12.3595,43.406 12.3595,42.515 L12.3595,30.527 L22.0795,43.109 C22.5385,43.703 23.0245,44.108 23.8075,44.108 L23.9425,44.108 C24.8605,44.108 25.5625,43.379 25.5625,42.461 L25.5625,26.585 C25.5625,25.694 24.8335,24.965 23.9155,24.965 C23.0245,24.965 22.2955,25.694 22.2955,26.585 L22.2955,38.195 L12.8455,25.964 C12.3865,25.397 11.9275,24.992 11.1175,24.992 L10.7665,24.992 C9.8215,24.992 9.0925,25.748 9.0925,26.666 L9.0925,42.515 Z M45.1375,44.27 C49.1065,44.27 51.8875,42.164 51.8875,38.627 L51.8875,38.573 C51.8875,35.441 49.8355,34.01 45.8395,33.038 C42.1945,32.174 41.3305,31.526 41.3305,30.068 L41.3305,30.014 C41.3305,28.772 42.4645,27.773 44.4085,27.773 C45.8935,27.773 47.2975,28.259 48.7555,29.204 C49.0255,29.366 49.2955,29.447 49.6195,29.447 C50.4835,29.447 51.1855,28.772 51.1855,27.908 C51.1855,27.26 50.8345,26.801 50.4565,26.585 C48.7555,25.451 46.8385,24.83 44.4625,24.83 C40.7095,24.83 38.0095,27.071 38.0095,30.311 L38.0095,30.365 C38.0095,33.848 40.2775,35.036 44.3005,36.008 C47.8105,36.818 48.5665,37.547 48.5665,38.897 L48.5665,38.951 C48.5665,40.355 47.2705,41.327 45.2185,41.327 C43.1665,41.327 41.4925,40.625 39.9265,39.383 C39.7105,39.221 39.4135,39.086 38.9545,39.086 C38.0905,39.086 37.3885,39.761 37.3885,40.625 C37.3885,41.165 37.6585,41.624 38.0365,41.894 C40.1425,43.46 42.5725,44.27 45.1375,44.27 L45.1375,44.27 Z M60.4465,42.488 C60.4465,43.406 61.2025,44.135 62.1205,44.135 C63.0385,44.135 63.7945,43.406 63.7945,42.488 L63.7945,28.178 L68.4115,28.178 C69.2485,28.178 69.9235,27.476 69.9235,26.639 C69.9235,25.802 69.2485,25.1 68.4115,25.1 L55.8565,25.1 C54.9925,25.1 54.3175,25.802 54.3175,26.639 C54.3175,27.476 54.9925,28.178 55.8565,28.178 L60.4465,28.178 L60.4465,42.488 Z M82.3165,44.324 C88.1215,44.324 92.2255,39.869 92.2255,34.55 L92.2255,34.496 C92.2255,29.177 88.1755,24.776 82.3705,24.776 C76.5655,24.776 72.4615,29.231 72.4615,34.55 L72.4615,34.604 C72.4615,39.923 76.5115,44.324 82.3165,44.324 L82.3165,44.324 Z M82.3705,41.246 C78.6175,41.246 75.9445,38.222 75.9445,34.55 L75.9445,34.496 C75.9445,30.824 78.5635,27.827 82.3165,27.827 C86.0695,27.827 88.7425,30.878 88.7425,34.55 L88.7425,34.604 C88.7425,38.276 86.1235,41.246 82.3705,41.246 L82.3705,41.246 Z M96.2485,42.488 C96.2485,43.406 96.9775,44.135 97.9225,44.135 C98.8405,44.135 99.5695,43.406 99.5695,42.488 L99.5695,37.412 L103.7545,37.412 L108.3445,43.271 C108.7225,43.784 109.2085,44.135 109.9645,44.135 C110.7745,44.135 111.5575,43.514 111.5575,42.596 C111.5575,42.083 111.3415,41.732 111.0175,41.327 L107.3995,36.764 C109.9375,35.981 111.6925,34.145 111.6925,31.121 L111.6925,31.067 C111.6925,29.42 111.1255,28.016 110.1265,26.99 C108.9115,25.802 107.0485,25.1 104.6725,25.1 L97.9225,25.1 C96.9775,25.1 96.2485,25.829 96.2485,26.774 L96.2485,42.488 Z M99.5695,34.469 L99.5695,28.124 L104.4025,28.124 C106.8595,28.124 108.3175,29.231 108.3175,31.256 L108.3175,31.31 C108.3175,33.227 106.8055,34.469 104.4295,34.469 L99.5695,34.469 Z M117.4435,44 L128.5675,44 C129.3775,44 130.0525,43.352 130.0525,42.515 C130.0525,41.705 129.3775,41.03 128.5675,41.03 L119.0905,41.03 L119.0905,35.954 L127.2175,35.954 C128.0275,35.954 128.7025,35.306 128.7025,34.496 C128.7025,33.659 128.0275,32.984 127.2175,32.984 L119.0905,32.984 L119.0905,28.07 L128.4325,28.07 C129.2425,28.07 129.9175,27.422 129.9175,26.585 C129.9175,25.775 129.2425,25.1 128.4325,25.1 L117.4435,25.1 C116.4985,25.1 115.7695,25.829 115.7695,26.774 L115.7695,42.326 C115.7695,43.271 116.4985,44 117.4435,44 L117.4435,44 Z M140.6635,42.596 C140.6635,43.46 141.3385,44.135 142.2025,44.135 C142.9045,44.135 143.4715,43.757 143.7415,43.082 L145.3345,39.437 L154.5145,39.437 L156.0535,42.974 C156.3505,43.676 156.8905,44.135 157.6735,44.135 C158.5645,44.135 159.2395,43.433 159.2395,42.542 C159.2395,42.326 159.1855,42.083 159.0505,41.84 L152.0305,26.18 C151.6525,25.343 151.0045,24.83 150.0595,24.83 L149.8975,24.83 C148.9525,24.83 148.2775,25.343 147.8995,26.18 L140.8795,41.84 C140.7445,42.11 140.6635,42.353 140.6635,42.596 L140.6635,42.596 Z M146.6035,36.494 L149.9245,28.853 L153.2455,36.494 L146.6035,36.494 Z M167.4745,42.488 C167.4745,43.406 168.2305,44.135 169.1485,44.135 C170.0665,44.135 170.8225,43.406 170.8225,42.488 L170.8225,28.178 L175.4395,28.178 C176.2765,28.178 176.9515,27.476 176.9515,26.639 C176.9515,25.802 176.2765,25.1 175.4395,25.1 L162.8845,25.1 C162.0205,25.1 161.3455,25.802 161.3455,26.639 C161.3455,27.476 162.0205,28.178 162.8845,28.178 L167.4745,28.178 L167.4745,42.488 Z" id="IN-STORE-AT" fill="#FFFFFF"></path>
            <g id="target" transform="translate(190.000000, 0.000000)" fill="#CC0000">
                <g id="Group" transform="translate(78.311122, 13.989082)">
                    <g id="Vector" transform="translate(0.000000, 1.000000)">
                        <g id="path0_fill-link" transform="translate(0.019101, 0.084154)">
                            <polygon id="path0_fill" points="12.0417695 7.36504173 0 7.36504173 0 0 32.919427 0 32.919427 7.36504173 20.8776576 7.36504173 20.8776576 39.824118 12.0417695 39.824118"></polygon>
                        </g>
                    </g>
                    <g id="Vector" transform="translate(28.367253, 1.000000)">
                        <g id="path1_fill-link" transform="translate(0.748943, 0.084154)">
                            <path d="M0,39.824118 L8.94370197,39.824118 L12.0976795,30.9534314 L27.1234825,30.9534314 L30.1634261,39.824118 L39.334493,39.824118 L24.3087954,0 L15.2504973,0 L0,39.824118 L0,39.824118 Z M19.6390982,9.81278131 L19.7497234,9.81278131 L24.8123368,24.4281543 L14.40879,24.4281543 L19.6390982,9.81278131 L19.6390982,9.81278131 Z" id="path1_fill"></path>
                        </g>
                    </g>
                    <g id="Vector" transform="translate(71.791073, 1.000000)">
                        <g id="path2_fill-link" transform="translate(0.162513, 0.084154)">
                            <path d="M0,39.82167 L8.83982393,39.82167 L8.83982393,24.2614394 L17.669492,24.2614394 C22.1195904,24.2614394 23.7482195,26.1004441 24.3658299,30.2814659 C24.8214033,33.4615689 24.7068071,37.3109795 25.7771093,39.8223694 L34.6073396,39.8223694 C33.0334609,37.59216 33.09162,32.9009564 32.9205515,30.3922594 C32.6377334,26.3706782 31.4048319,22.1924542 27.0681699,21.077979 L27.0681699,20.9677451 C31.519428,19.1841371 33.4308752,15.6744864 33.4308752,10.9832128 C33.4308752,4.96430545 28.8689919,0 21.6679881,0 L0.000564518782,0 L0,39.82167 L0,39.82167 Z M8.83982393,6.80219102 L18.5207929,6.80219102 C22.4537853,6.80219102 24.5938977,8.47615952 24.5938977,12.3203942 C24.5938977,16.3341065 22.4537853,18.0103133 18.5207929,18.0103133 L8.83982393,18.0103133 L8.83982393,6.80219102 L8.83982393,6.80219102 Z" id="path2_fill"></path>
                        </g>
                    </g>
                    <g id="Vector" transform="translate(109.192516, 0.000000)">
                        <g id="path3_fill-link" transform="translate(0.502953, 0.139891)">
                            <path d="M30.7798769,36.2471098 C27.6817742,40.2130145 23.6369969,41.7241851 19.7519725,41.7241851 C7.31788422,41.7241851 0,32.5065343 0,21.0164271 C0,9.19845079 7.31728682,0 19.7519725,0 C27.965752,0 35.7346061,5.01910768 36.6936154,14.0469266 L28.2480079,14.0469266 C27.2329832,9.63655385 23.9136302,7.35832697 19.7519725,7.35832697 C11.816513,7.35832697 8.82966806,14.0469616 8.82966806,21.0164271 C8.82966806,27.6569393 11.816513,34.3466581 19.7519725,34.3466581 C25.4936938,34.3466581 28.8068619,31.2812656 29.3160611,25.7563826 L20.4288314,25.7563826 L20.4288314,19.2383798 L37.307536,19.2383798 L37.307536,40.7673319 L31.6757722,40.7673319 L30.7798769,36.2471098 L30.7798769,36.2471098 Z" id="path3_fill"></path>
                        </g>
                    </g>
                    <g id="Vector" transform="translate(152.616337, 1.000000)">
                        <g id="path4_fill-link" transform="translate(0.408503, 0.084154)">
                            <polygon id="path4_fill" points="0 0 30.0403608 0 30.0403608 7.36504173 8.83416616 7.36504173 8.83416616 15.8943598 28.3010715 15.8943598 28.3010715 22.7049442 8.83416616 22.7049442 8.83416616 32.4589714 30.4959342 32.4589714 30.4959342 39.824118 0 39.824118"></polygon>
                        </g>
                    </g>
                    <g id="Vector" transform="translate(186.503638, 1.000000)">
                        <g id="path5_fill-link" transform="translate(0.959792, 0.084154)">
                            <polygon id="path5_fill" points="12.0423317 7.36504173 0 7.36504173 0 0 32.9239603 0 32.9239603 7.36504173 20.8754085 7.36504173 20.8754085 39.824118 12.0423317 39.824118"></polygon>
                        </g>
                    </g>
                </g>
                <g id="target-logo">
                    <g id="Group">
                        <g id="Vector">
                            <g id="path6_fill-link">
                                <path d="M34.2198352,58.2991486 C21.6148894,58.2991486 11.3855035,47.8639931 11.3855035,34.9824968 C11.3855035,22.0778137 21.6148894,11.6500723 34.2198352,11.6500723 C46.8357803,11.6500723 57.0524451,22.0778137 57.0524451,34.9824968 C57.0524451,47.8639931 46.8357803,58.2991486 34.2198352,58.2991486 L34.2198352,58.2991486 Z M34.2198352,0 C15.3234509,0 0,15.660882 0,34.9824968 C0,54.2895281 15.3234509,69.945409 34.2198352,69.945409 C53.1243372,69.945409 68.4720005,54.2895281 68.4720005,34.9824968 C68.4720005,15.660882 53.1243372,0 34.2198352,0 L34.2198352,0 Z" id="path6_fill"></path>
                            </g>
                        </g>
                        <g id="Vector" transform="translate(22.338969, 22.232648)">
                            <g id="path7_fill-link" transform="translate(0.151539, 0.779392)">
                                <path d="M11.7253913,0 C5.24819521,0 0,5.3493899 0,11.9875939 C0,18.60394 5.2480195,23.9692425 11.7253913,23.9692425 C18.2088074,23.9692425 23.4683181,18.6037651 23.4683181,11.9875939 C23.4683181,5.34956477 18.2088074,0 11.7253913,0 L11.7253913,0 Z" id="path7_fill"></path>
                            </g>
                        </g>
                    </g>
                </g>
            </g>
        </g>
    </g>
</svg>