<?xml version="1.0" encoding="UTF-8" standalone="no"?>
<svg width="173px" height="52px" viewBox="0 0 173 52" version="1.1" xmlns="http://www.w3.org/2000/svg" xmlns:xlink="http://www.w3.org/1999/xlink" xmlns:sketch="http://www.bohemiancoding.com/sketch/ns">
    <!-- Generator: Sketch 3.3.3 (12081) - http://www.bohemiancoding.com/sketch -->
    <title>circle-blue</title>
    <desc>Created with Sketch.</desc>
    <defs></defs>
    <g id="Page-1" stroke="none" stroke-width="1" fill="none" fill-rule="evenodd" sketch:type="MSPage">
        <path d="M0,32.8077994 C0,43.816156 8.08153282,52 19.5544232,52 C29.0790868,52 34.1300448,46.1337047 34.1300448,46.1337047 L31.3159397,40.9916435 C31.3159397,40.9916435 26.842234,45.9164345 20.059519,45.9164345 C12.4830819,45.9164345 7.14349776,40.1949861 7.14349776,32.735376 C7.14349776,25.2033426 12.4830819,19.6991643 19.8430493,19.6991643 C26.048512,19.6991643 29.9449653,23.8997214 29.9449653,23.8997214 L33.2641663,18.9749304 C33.2641663,18.9749304 28.7183041,13.6155989 19.5544232,13.6155989 C8.08153282,13.6155989 0,21.9442897 0,32.8077994 L0,32.8077994 Z M61.0342438,51.1309192 L68.0334285,51.1309192 L68.0334285,36.1392758 C68.0334285,33.8941504 68.2498981,31.6490251 68.899307,29.5487465 C70.5589075,24.1169916 74.6718304,20.9303621 79.1455361,20.9303621 C80.2278842,20.9303621 81.1659193,21.1476323 81.1659193,21.1476323 L81.1659193,14.1949861 C81.1659193,14.1949861 80.3000408,14.0501393 79.3620057,14.0501393 C73.7337954,14.0501393 69.4765593,18.2506964 67.8169588,23.6100279 L67.6726457,23.6100279 C67.6726457,23.6100279 67.8169588,22.3788301 67.8169588,20.8579387 L67.8169588,14.480011 L61.0342438,14.4846797 L61.0342438,51.1309192 Z M83.2788422,32.8077994 C83.2788422,43.816156 91.3603751,52 102.833265,52 C112.357929,52 117.408887,46.1337047 117.408887,46.1337047 L114.594782,40.9916435 C114.594782,40.9916435 110.121076,45.9164345 103.338361,45.9164345 C95.7619242,45.9164345 90.42234,40.1949861 90.42234,32.735376 C90.42234,25.2033426 95.7619242,19.6991643 103.121892,19.6991643 C109.327354,19.6991643 113.223808,23.8997214 113.223808,23.8997214 L116.543009,18.9749304 C116.543009,18.9749304 111.997146,13.6155989 102.833265,13.6155989 C91.3603751,13.6155989 83.2788422,21.9442897 83.2788422,32.8077994 L83.2788422,32.8077994 Z M123.913168,41.1364903 C123.913168,50.3342618 129.757848,51.4206128 133.726457,51.4206128 C134.953119,51.4206128 136.035467,51.275766 136.035467,51.275766 L136.035467,45.0473538 C136.035467,45.0473538 135.458214,45.1197772 134.808806,45.1197772 C132.644109,45.1197772 130.912352,44.3231198 130.912352,39.9052925 L130.912352,0 L123.913168,0 L123.913168,41.1364903 Z M41.1125153,41.1364903 C41.1125153,50.3342618 46.9571953,51.4206128 50.9258051,51.4206128 C52.1524664,51.4206128 53.2348145,51.275766 53.2348145,51.275766 L53.2348145,45.0473538 C53.2348145,45.0473538 52.6575622,45.1197772 52.0081533,45.1197772 C49.843457,45.1197772 48.1117,44.3231198 48.1117,39.9052925 L48.1117,14.480011 L41.1125153,14.480011 L41.1125153,41.1364903 Z M138.942112,32.8077994 C138.942112,43.6713092 146.807175,52 158.280065,52 C167.011007,52 172.422748,46.7855153 172.422748,46.7855153 L169.536486,41.643454 C169.536486,41.643454 164.990624,45.9164345 158.713004,45.9164345 C152.218916,45.9164345 146.518549,41.8607242 146.157766,33.821727 L172.78353,33.821727 C172.78353,33.821727 173,31.7214485 173,30.7799443 C173,21.2924791 167.516103,13.6155989 157.197717,13.6155989 C146.807175,13.6155989 138.942112,21.1476323 138.942112,32.8077994 L138.942112,32.8077994 Z M146.374236,28.5348189 C147.384427,22.5236769 151.71382,19.1922006 157.053404,19.1922006 C161.743579,19.1922006 165.640033,22.2339833 165.856502,28.5348189 L146.374236,28.5348189 Z M44.5668569,8.94163008 C47.0269219,8.94163008 49.0211985,6.939978 49.0211985,4.47081504 C49.0211985,2.00165207 47.0269219,0 44.5668569,0 C42.106792,0 40.1125153,2.00165207 40.1125153,4.47081504 C40.1125153,6.939978 42.106792,8.94163008 44.5668569,8.94163008 Z" id="circle-blue" fill="#00B7D9" sketch:type="MSShapeGroup"></path>
    </g>
</svg>