<?xml version="1.0" encoding="UTF-8" standalone="no"?>
<svg width="125px" height="63px" viewBox="0 0 125 63" version="1.1" xmlns="http://www.w3.org/2000/svg" xmlns:xlink="http://www.w3.org/1999/xlink" xmlns:sketch="http://www.bohemiancoding.com/sketch/ns">
    <!-- Generator: Sketch 3.4.1 (15681) - http://www.bohemiancoding.com/sketch -->
    <title>circle-white</title>
    <desc>Created with Sketch.</desc>
    <defs></defs>
    <g id="Page-1" stroke="none" stroke-width="1" fill="none" fill-rule="evenodd" sketch:type="MSPage">
        <path d="M19.2205735,48.4002274 C19.195007,48.3406725 19.1781632,48.2642739 19.1781632,48.196598 C19.1781632,47.908148 19.4242029,47.6876748 19.7126529,47.6876748 C19.9668137,47.6876748 20.1620213,47.8488939 20.229998,48.0693672 L21.5952476,52.1488739 L22.9355324,48.0862109 C23.0203529,47.8401712 23.1984159,47.670831 23.4612994,47.670831 L23.537698,47.670831 C23.8005815,47.670831 23.9873672,47.8401712 24.063465,48.0862109 L25.403449,52.1488739 L26.7693002,48.0609453 C26.845398,47.8488939 27.023461,47.6876748 27.2779226,47.6876748 C27.5579507,47.6876748 27.7952677,47.908148 27.7952677,48.1881761 C27.7952677,48.255852 27.770002,48.3406725 27.7444355,48.4002274 L25.9887708,53.3192168 C25.8955284,53.5821003 25.7003208,53.7520421 25.44616,53.7520421 L25.3441949,53.7520421 C25.0897333,53.7520421 24.9032484,53.5908229 24.8097052,53.3192168 L23.4868659,49.4430387 L22.1637257,53.3192168 C22.0704833,53.5908229 21.8752757,53.7520421 21.6208141,53.7520421 L21.5191498,53.7520421 C21.2646882,53.7520421 21.0779025,53.5908229 20.9762382,53.3192168 L19.2205735,48.4002274 Z M28.9671145,48.2050199 C28.9671145,47.9165699 29.1960096,47.6876748 29.4928815,47.6876748 C29.7813315,47.6876748 30.0102266,47.9165699 30.0102266,48.2050199 L30.0102266,53.191986 C30.0102266,53.4804359 29.7813315,53.7093311 29.4928815,53.7093311 C29.1960096,53.7093311 28.9671145,53.4804359 28.9671145,53.191986 L28.9671145,48.2050199 Z M33.0553439,48.6967985 L31.6136956,48.6967985 C31.3420894,48.6967985 31.1300381,48.476626 31.1300381,48.2134417 C31.1300381,47.9505583 31.3420894,47.730085 31.6136956,47.730085 L35.5575496,47.730085 C35.8204331,47.730085 36.0324845,47.9505583 36.0324845,48.2134417 C36.0324845,48.476626 35.8204331,48.6967985 35.5575496,48.6967985 L34.1071787,48.6967985 L34.1071787,53.191986 C34.1071787,53.4804359 33.8695609,53.7093311 33.5814117,53.7093311 C33.2926609,53.7093311 33.0553439,53.4804359 33.0553439,53.191986 L33.0553439,48.6967985 Z M37.0933427,48.2050199 C37.0933427,47.9165699 37.3225386,47.6876748 37.6191097,47.6876748 C37.9075597,47.6876748 38.1367556,47.9165699 38.1367556,48.2050199 L38.1367556,50.1980016 L40.96922,50.1980016 L40.96922,48.2050199 C40.96922,47.9165699 41.1984159,47.6876748 41.4868659,47.6876748 C41.7834369,47.6876748 42.0126328,47.9165699 42.0126328,48.2050199 L42.0126328,53.191986 C42.0126328,53.4804359 41.7834369,53.7093311 41.4868659,53.7093311 C41.1984159,53.7093311 40.96922,53.4804359 40.96922,53.191986 L40.96922,51.1650158 L38.1367556,51.1650158 L38.1367556,53.191986 C38.1367556,53.4804359 37.9075597,53.7093311 37.6191097,53.7093311 C37.3225386,53.7093311 37.0933427,53.4804359 37.0933427,53.191986 L37.0933427,48.2050199 Z M46.5024063,50.9102535 C46.5024063,50.0578372 49.0993583,49.7363012 51.4971927,49.6135821 C51.4755364,50.9526637 51.4607981,52.8770672 51.4607981,54.1577971 C48.5143373,53.1210014 46.5024063,51.4676026 46.5024063,50.9102535 Z M43.2825346,39.5244504 C42.9182875,39.9190764 42.4607981,40.2478312 42.4460598,40.7772075 C42.4304191,41.3005683 43.0398035,41.3417754 43.4124724,41.3417754 C43.7839382,41.3417754 44.1205133,41.3138027 44.1129938,41.0918255 C44.1129938,40.7919459 43.6263285,40.8475905 43.6263285,40.5477108 C43.6263285,40.196999 45.5227592,40.1118777 46.4672148,40.1118777 C54.603068,40.083905 63.9552837,45.7151462 63.9697213,50.4876547 C63.9829557,54.2017112 59.1532986,55.0309673 56.4847604,55.0381861 C55.5403048,55.046608 54.6175055,54.9374241 53.7446361,54.7819198 C53.7082414,53.5932292 53.6366553,51.1177931 53.6014638,49.5492148 C53.9085623,49.541996 54.1949068,49.541996 54.4451574,49.541996 C56.4131743,49.5359803 59.0029076,50.2301853 59.0101263,50.6879755 C59.0101263,51.0813984 58.3240425,51.3533054 58.3240425,51.73199 C58.3315621,52.0114165 58.9601965,51.9690062 59.51153,52.0054008 C59.6110888,52.0114165 60.7281933,51.3897 60.7206738,50.4088498 C60.7206738,49.107366 59.0964508,47.5676627 53.8014839,47.582401 C53.7298977,47.582401 53.6510928,47.5908229 53.5722879,47.5908229 C53.5223581,46.1302254 53.3075998,43.8247311 52.4783437,43.8247311 C51.7898536,43.8319499 51.5907359,46.3645346 51.5251654,47.7679836 C48.5567475,48.2125394 45.9173852,49.4228863 45.9221977,50.6091706 C45.9221977,51.5828021 48.0481251,54.0353788 51.4827552,55.5248514 C51.539603,56.6263152 51.7546621,57.3848875 52.7270904,57.3764656 C53.4435532,57.3764656 53.6802687,56.8555111 53.7578705,56.3056816 C54.8674554,56.5911237 56.0768999,56.7487335 57.3504111,56.75 C62.3379787,56.734296 66.3371767,54.0729765 66.3239422,50.4220842 C66.3080008,45.5292629 56.4276118,38.4888578 47.8342691,38.723167 C45.551935,38.7959563 43.6979146,39.0823008 43.2825346,39.5244504 Z M68.1108883,47.7105342 C67.2680971,47.7189561 67.2476439,51.1111759 67.2256868,52.3470892 C67.1685382,55.1819599 67.5815119,55.5182342 68.3340686,55.5110154 C69.006918,55.5110154 69.2424303,55.4310074 69.1792661,53.0632513 C69.0785041,48.5846068 68.7702025,47.7189561 68.1108883,47.7189561 L68.1108883,47.7105342 Z M68.8784841,41.8723549 C67.9836575,42.4017313 67.0671747,43.1314285 66.4586926,43.8695476 C66.4307199,43.7675825 66.4162823,43.6752424 66.4162823,43.588918 C66.4090636,43.023147 67.2395228,42.1514806 68.8784841,41.8723549 Z M68.7413275,44.9986834 C68.3054943,44.9986834 67.9472629,44.9487536 67.6413676,44.8552103 C68.4619009,43.9251923 70.4578905,42.166219 71.4402446,42.166219 C72.0824143,42.1586994 72.1918989,42.6724351 72.1918989,42.8667403 C72.1918989,44.0479114 69.7805294,45.0059021 68.7413275,45.0059021 L68.7413275,44.9986834 L68.7413275,44.9986834 Z M68.5494285,46.4237887 C70.4154802,46.4165699 73.3863044,44.298162 73.3790856,42.5449035 C73.3790856,41.750839 72.9712252,41.3489942 71.9464608,41.1995055 C71.5166433,40.7916451 70.8889112,40.3338548 69.9492681,40.3338548 C67.0476238,40.3401712 65.1644275,42.6516812 65.1644275,43.9119579 C65.1644275,44.3757638 65.3151193,44.9487536 65.7289954,45.429704 C65.7437337,46.4313082 65.9864648,46.6959964 66.3167235,46.6959964 C66.6797674,46.6959964 66.896932,46.4869529 67.0392019,46.2297842 C67.4542811,46.3582182 67.9556848,46.4313082 68.5494285,46.4237887 Z M78.2078404,48.3187155 C78.201524,47.5390884 76.182675,47.546608 75.0523361,47.5538267 C74.2011229,47.5538267 69.8788851,47.6545887 69.8864047,50.0656575 C69.8948265,51.6961969 72.3058953,51.3030748 73.9072589,51.4606846 C75.2174654,51.5894193 76.8064969,52.0108149 76.8064969,52.4418356 C76.8128133,53.3935099 73.3502105,53.7785109 72.6337477,53.7857297 C71.1683377,53.7857297 71.1319431,53.3643341 71.1319431,53.1423569 C71.1319431,52.9272978 71.3746742,52.5618476 71.9260076,52.5618476 C72.4773411,52.5618476 73.60768,53.2635721 74.3882093,53.2635721 C75.1663325,53.2563533 75.8256467,52.9128602 75.8184279,52.5618476 C75.8184279,51.9256936 73.2274915,51.6101733 72.4274113,51.617392 C71.5909364,51.6246108 70.3802888,51.9696078 70.3802888,53.2283806 C70.3890114,53.8780698 71.4537798,55.4310074 74.4670142,55.4174722 C77.434229,55.4102535 78.1870864,53.7213623 78.1798677,52.8545085 C78.173852,50.7373038 76.1754562,50.5014907 74.4306196,50.3523028 C73.1279326,50.244322 71.7109485,50.1787516 71.7172649,49.8933094 C71.7341087,48.9268967 78.2078404,49.6433595 78.201524,48.3259342 L78.2078404,48.3187155 Z M83.1376579,46.5305663 C82.894626,46.5305663 82.8522158,46.7880357 82.8522158,47.0659583 C82.8582314,47.8891987 83.997293,50.7727961 83.997293,51.8679435 C83.997293,52.0974401 83.9753359,52.5053006 83.8029878,52.5549296 C83.5310808,52.6340353 81.1404652,48.276606 80.1557048,48.2122386 C79.1321436,48.1406525 78.5871265,52.4833435 78.5943453,53.5568346 C78.603068,54.6300249 78.7874474,55.3461869 79.5754963,55.3461869 C80.7554642,55.3389681 80.138861,50.9959763 80.6207139,50.9959763 C80.9705234,50.9959763 82.894626,54.9662992 83.9618007,54.9662992 C85.1213154,54.9590804 85.8073992,53.2641737 85.8001805,52.1618075 C85.7941648,49.6364415 84.1112894,46.5380858 83.1376579,46.5380858 L83.1376579,46.5305663 Z M91.1525968,53.2569549 C90.7384199,53.2569549 88.4257068,53.7715929 88.275015,53.6296238 C88.1258272,53.4852484 88.4049529,52.1545887 88.6988169,52.0622486 C88.9914778,51.9687054 90.7931622,51.9978813 91.0870263,51.9747211 C91.9247042,51.9323108 91.7695007,50.7959563 91.2521556,50.7523429 C90.9874674,50.7303858 89.3485061,50.723167 89.2621817,50.5736784 C89.1773611,50.4220842 89.2853419,49.6728362 89.4709244,49.5928282 C89.842691,49.4421364 92.326549,49.3717534 92.5100261,49.3221243 C92.8183277,49.2490343 93.0490275,49.0854089 93.1206136,48.8219238 C93.1982154,48.5560325 92.2609785,47.4741195 91.0954482,47.5980417 C89.1042711,47.8191165 86.5220573,47.8043782 86.5220573,48.4552705 C86.5220573,49.0634518 87.7324043,49.3061829 87.760377,49.478531 C87.7967716,49.6424572 87.6036695,50.2798143 87.5368959,50.4729164 C87.4689192,50.6879755 86.6032685,50.7523429 86.5437137,51.3460866 C86.5292761,51.4820401 86.7587728,51.6967985 86.708843,51.8619278 C86.5728895,52.3705502 86.1650291,53.3929084 86.1650291,53.8227259 C86.1722478,54.480837 86.6519952,55.9534658 88.0118308,55.9122587 C90.1449769,55.8394694 92.0606577,54.3508991 92.0886304,54.0862109 C92.1397634,53.692788 91.5460197,53.2349978 91.1381592,53.2349978 L91.1525968,53.2569549 Z M96.6262282,53.7219639 C97.5989573,52.0246509 99.0228594,49.7796138 99.5510327,49.7871333 C99.9188891,49.793149 100.059956,50.157396 100.059956,50.7084287 C100.068378,52.3705502 98.0576499,53.7424171 96.6262282,53.7219639 Z M99.4235011,48.1978011 C98.2579707,48.2621684 96.0240626,50.7303858 94.7165631,52.398523 C94.6377582,52.2261749 94.5878284,52.0622486 94.5878284,51.9115568 C94.5878284,51.2098324 95.9160818,49.0998464 96.1612192,48.57047 C96.4186886,48.0191366 96.1248245,47.2969589 95.8105073,47.5541275 C95.1815721,48.0618476 93.1915982,50.3805763 93.2003208,52.5404921 C93.2003208,53.034677 93.3275516,53.6428582 93.6081813,54.1941917 C93.1552035,55.6400509 92.0747945,58.8659382 92.1123922,60.8195175 C92.1256266,61.8295436 93.1491879,62.8227259 93.7573692,62.6939912 C93.9916784,62.643159 94.0428113,61.3209212 94.3511129,60.4176727 C94.7797273,59.1318296 95.4670142,56.7703898 95.7097453,55.7603637 C95.816523,55.7675825 95.9332264,55.783524 96.0556447,55.783524 C98.4874674,55.7760044 101.183978,53.1841656 101.177963,50.9463473 C101.169541,48.7124391 99.8460999,48.175844 99.4235011,48.2050199 L99.4235011,48.1978011 Z M30.913475,6.28442631 C32.6198115,6.28442631 34.0031081,4.89601644 34.0031081,3.18336355 C34.0031081,1.47040987 32.6198115,0.082 30.913475,0.082 C29.2071386,0.082 27.823842,1.47040987 27.823842,3.18336355 C27.823842,4.89601644 29.2071386,6.28442631 30.913475,6.28442631 Z M101.531081,19.8749617 C102.231903,15.7055212 105.234911,13.3946128 108.938741,13.3946128 C112.191999,13.3946128 114.894827,15.5045988 115.044917,19.8749617 L101.531081,19.8749617 L101.531081,19.8749617 Z M96.3759775,22.8388679 C96.3759775,30.3743601 101.831562,36.1514806 109.789653,36.1514806 C115.845599,36.1514806 119.599358,32.5342759 119.599358,32.5342759 L117.597353,28.9676026 C117.597353,28.9676026 114.444255,31.9315087 110.089834,31.9315087 C105.585322,31.9315087 101.631241,29.1182944 101.380991,23.5420963 L119.849609,23.5420963 C119.849609,23.5420963 120,22.0854089 120,21.4324111 C120,14.8513002 116.19601,9.52655585 109.0386,9.52655585 C101.831562,9.52655585 96.3759775,14.750839 96.3759775,22.8388679 L96.3759775,22.8388679 Z M28.5174454,28.6159884 C28.5174454,34.9958761 32.5716864,35.7493351 35.3244436,35.7493351 C36.1750551,35.7493351 36.9258071,35.6491747 36.9258071,35.6491747 L36.9258071,31.3287415 C36.9258071,31.3287415 36.5254662,31.3789721 36.0751955,31.3789721 C34.5736916,31.3789721 33.3723682,30.8264355 33.3723682,27.7620682 L33.3723682,10.1260144 L28.5174454,10.1260144 L28.5174454,28.6159884 L28.5174454,28.6159884 Z M85.951173,28.6159884 C85.951173,34.9958761 90.0054141,35.7493351 92.7581712,35.7493351 C93.6090836,35.7493351 94.3598356,35.6491747 94.3598356,35.6491747 L94.3598356,31.3287415 C94.3598356,31.3287415 93.9594947,31.3789721 93.5089232,31.3789721 C92.0074193,31.3789721 90.8060958,30.8264355 90.8060958,27.7620682 L90.8060958,0.082 L85.951173,0.082 L85.951173,28.6159884 L85.951173,28.6159884 Z M57.7657911,22.8423413 C57.7657911,30.4782948 63.3714658,36.1549541 71.3295568,36.1549541 C77.9362342,36.1549541 81.4397433,32.085674 81.4397433,32.085674 L79.4876679,28.5190006 C79.4876679,28.5190006 76.3844997,31.9349822 71.6796671,31.9349822 C66.4244034,31.9349822 62.7205735,27.966464 62.7205735,22.7921107 C62.7205735,17.5675268 66.4244034,13.7497004 71.5295769,13.7497004 C75.8340686,13.7497004 78.5365951,16.663376 78.5365951,16.663376 L80.8390816,13.2473944 C80.8390816,13.2473944 77.6856828,9.5300293 71.3295568,9.5300293 C63.3714658,9.5300293 57.7657911,15.3071498 57.7657911,22.8423413 L57.7657911,22.8423413 Z M42.3359735,35.5484127 L47.1908963,35.5484127 L47.1908963,25.1497762 C47.1908963,23.5923268 47.3409866,22.0351783 47.7915581,20.5781901 C48.9426509,16.8105943 51.7955685,14.6001472 54.8987367,14.6001472 C55.6494887,14.6001472 56.3000802,14.750839 56.3000802,14.750839 L56.3000802,9.92840064 C56.3000802,9.92840064 55.6994185,9.82793944 55.048827,9.82793944 C51.1449769,9.82793944 48.1918989,12.741615 47.0408061,16.4589801 L46.9406457,16.4589801 C46.9406457,16.4589801 47.0408061,15.60506 47.0408061,14.5499166 L47.0408061,10.1260144 L42.3359735,10.129323 L42.3359735,35.5484127 L42.3359735,35.5484127 Z M13.5637658,36.1514806 C20.1704432,36.1514806 23.6739523,32.0822005 23.6739523,32.0822005 L21.7221777,28.5155272 C21.7221777,28.5155272 18.6190094,31.9315087 13.9141769,31.9315087 C8.65891317,31.9315087 4.95508322,27.9629906 4.95508322,22.7886373 C4.95508322,17.5640533 8.65891317,13.746227 13.7640866,13.746227 C18.0685783,13.746227 20.7711049,16.6599025 20.7711049,16.6599025 L23.0735913,13.243921 C23.0735913,13.243921 19.9201925,9.52655585 13.5637658,9.52655585 C5.60597554,9.52655585 0,15.3036764 0,22.8388679 C0,30.4748213 5.60597554,36.1514806 13.5637658,36.1514806 Z M124.718015,11.2889885 L124.685232,11.2889885 C124.62695,11.2889885 124.579597,11.3195683 124.550456,11.368942 L123.640414,12.8055561 L122.730069,11.368942 C122.700928,11.3233908 122.657217,11.2889885 122.595596,11.2889885 L122.562813,11.2889885 C122.486319,11.2889885 122.420752,11.3577931 122.420752,11.4377466 L122.420752,13.8446327 C122.420752,13.9287271 122.482676,13.9937092 122.55917,13.9937092 C122.639004,13.9937092 122.700928,13.9287271 122.700928,13.8446327 L122.700928,11.850574 L123.512923,13.1037093 C123.545707,13.1534015 123.585775,13.1801588 123.636772,13.1801588 C123.687464,13.1801588 123.724194,13.1534015 123.756674,13.1037093 L124.572311,11.8467516 L124.572311,13.8408102 C124.572311,13.9210822 124.637878,13.9937092 124.718015,13.9937092 C124.794206,13.9937092 124.860076,13.9249047 124.860076,13.8408102 L124.860076,11.4377466 C124.860076,11.3577931 124.794206,11.2889885 124.718015,11.2889885 Z M121.764204,11.3003285 L119.994814,11.3003285 C119.921962,11.3003285 119.860341,11.3653106 119.860341,11.4417602 C119.860341,11.5182097 119.921962,11.5790508 119.994814,11.5790508 L120.733957,11.5790508 L120.733957,13.8410013 C120.733957,13.9250958 120.799524,13.9939004 120.879357,13.9939004 C120.959798,13.9939004 121.025061,13.9250958 121.025061,13.8410013 L121.025061,11.5790508 L121.764204,11.5790508 C121.837056,11.5790508 121.89898,11.5182097 121.89898,11.4417602 C121.89898,11.3653106 121.837056,11.3003285 121.764204,11.3003285 Z" id="circle-white" fill="#FFFFFF" sketch:type="MSShapeGroup"></path>
    </g>
</svg>