<svg width="65" height="65" viewBox="0 0 65 65" version="2.0" xmlns="http://www.w3.org/2000/svg" xmlns:xlink="http://www.w3.org/1999/xlink" xmlns:figma="http://www.figma.com/figma/ns">
<title>circle-app-icon</title>
<desc>Created using Figma 0.90</desc>
<g id="Canvas" transform="translate(-5811 2909)" figma:type="canvas">
<g id="circle-app-icon" style="mix-blend-mode:normal;" figma:type="group">
<g id="Rectangle 2 + Oval 1" style="mix-blend-mode:normal;" figma:type="group">
<g id="Rectangle 2" style="mix-blend-mode:normal;" figma:type="vector">
<use xlink:href="#path0_fill" transform="translate(5811 -2909)" fill="#FFFFFF" style="mix-blend-mode:normal;"/>
</g>
<g id="circle-white" style="mix-blend-mode:normal;" figma:type="vector-operation">
<use xlink:href="#path1_fill" transform="translate(5815.9 -2887.54)" fill="#00B7D9" style="mix-blend-mode:normal;"/>
<use xlink:href="#path2_fill" transform="translate(5815.9 -2887.54)" fill="#00B7D9" style="mix-blend-mode:normal;"/>
<use xlink:href="#path3_fill" transform="translate(5815.9 -2887.54)" fill="#00B7D9" style="mix-blend-mode:normal;"/>
<use xlink:href="#path4_fill" transform="translate(5815.9 -2887.54)" fill="#00B7D9" style="mix-blend-mode:normal;"/>
<use xlink:href="#path5_fill" transform="translate(5815.9 -2887.54)" fill="#00B7D9" style="mix-blend-mode:normal;"/>
<use xlink:href="#path6_fill" transform="translate(5815.9 -2887.54)" fill="#00B7D9" style="mix-blend-mode:normal;"/>
<use xlink:href="#path7_fill" transform="translate(5815.9 -2887.54)" fill="#00B7D9" style="mix-blend-mode:normal;"/>
</g>
<g id="Imported Layers" style="mix-blend-mode:normal;" figma:type="group">
<g id="With" style="mix-blend-mode:normal;" figma:type="text">
<use xlink:href="#path8_fill" transform="translate(5852.06 -2868.74)" fill="#00B7D9" style="mix-blend-mode:normal;"/>
</g>
<g id="Fill 1" style="mix-blend-mode:normal;" figma:type="vector-operation">
<use xlink:href="#path9_fill" transform="translate(5857.58 -2870.17)" fill="#00B7D9" style="mix-blend-mode:normal;"/>
</g>
<g id="Fill 2" style="mix-blend-mode:normal;" figma:type="vector">
<use xlink:href="#path10_fill" transform="translate(5863.17 -2868.14)" fill="#00B7D9" style="mix-blend-mode:normal;"/>
</g>
<g id="Fill 3" style="mix-blend-mode:normal;" figma:type="vector-operation">
<use xlink:href="#path11_fill" transform="translate(5862.71 -2869.81)" fill="#00B7D9" style="mix-blend-mode:normal;"/>
</g>
<g id="Fill 4" style="mix-blend-mode:normal;" figma:type="vector">
<use xlink:href="#path12_fill" transform="translate(5863.77 -2868.18)" fill="#00B7D9" style="mix-blend-mode:normal;"/>
</g>
<g id="Fill 5" style="mix-blend-mode:normal;" figma:type="vector">
<use xlink:href="#path13_fill" transform="translate(5865.74 -2868.41)" fill="#00B7D9" style="mix-blend-mode:normal;"/>
</g>
<g id="Fill 6" style="mix-blend-mode:normal;" figma:type="vector">
<use xlink:href="#path14_fill" transform="translate(5867.45 -2868.17)" fill="#00B7D9" style="mix-blend-mode:normal;"/>
</g>
<g id="Fill 7" style="mix-blend-mode:normal;" figma:type="vector-operation">
<use xlink:href="#path15_fill" transform="translate(5868.79 -2868.19)" fill="#00B7D9" style="mix-blend-mode:normal;"/>
</g>
</g>
</g>
</g>
</g>
<defs>
<path id="path0_fill" fill-rule="evenodd" d="M 0 10.7254C 0 4.80192 4.80192 0 10.7254 0L 54.2746 0C 60.1981 0 65 4.80192 65 10.7254L 65 54.2746C 65 60.1981 60.1981 65 54.2746 65L 10.7254 65C 4.80192 65 0 60.1981 0 54.2746L 0 10.7254Z"/>
<path id="path1_fill" d="M 6.24618 16.6101C 2.58145 16.6101 0 13.996 0 10.4796C 0 7.00956 2.58145 4.34917 6.24618 4.34917C 9.17335 4.34917 10.6254 6.06107 10.6254 6.06107L 9.56518 7.63418C 9.56518 7.63418 8.32055 6.29241 6.33837 6.29241C 3.98741 6.29241 2.28181 8.05059 2.28181 10.4565C 2.28181 12.8393 3.98741 14.6669 6.40752 14.6669C 8.57409 14.6669 10.0031 13.0938 10.0031 13.0938L 10.902 14.7363C 10.902 14.7363 9.2886 16.6101 6.24618 16.6101Z"/>
<path id="path2_fill" d="M 21.7316 16.3325L 19.4959 16.3325L 19.4959 4.62677L 21.6625 4.62528L 21.6625 6.66255C 21.6625 7.14836 21.6164 7.54164 21.6164 7.54164L 21.6625 7.54164C 22.1926 5.82973 23.5524 4.48797 25.3502 4.48797C 25.6499 4.48797 25.9264 4.53424 25.9264 4.53424L 25.9264 6.75509C 25.9264 6.75509 25.6268 6.68569 25.2811 6.68569C 23.8521 6.68569 22.5383 7.70358 22.0082 9.43862C 21.8007 10.1095 21.7316 10.8266 21.7316 11.5438L 21.7316 16.3325Z"/>
<path id="path3_fill" d="M 32.8475 16.6101C 29.1828 16.6101 26.6014 13.996 26.6014 10.4796C 26.6014 7.00956 29.1828 4.34917 32.8475 4.34917C 35.7747 4.34917 37.2268 6.06107 37.2268 6.06107L 36.1665 7.63418C 36.1665 7.63418 34.9219 6.29241 32.9397 6.29241C 30.5888 6.29241 28.8832 8.05059 28.8832 10.4565C 28.8832 12.8393 30.5888 14.6669 33.0089 14.6669C 35.1755 14.6669 36.6045 13.0938 36.6045 13.0938L 37.5034 14.7363C 37.5034 14.7363 35.89 16.6101 32.8475 16.6101Z"/>
<path id="path4_fill" d="M 42.7156 16.425C 41.4479 16.425 39.581 16.078 39.581 13.14L 39.581 0L 41.8167 0L 41.8167 12.7468C 41.8167 14.1579 42.3699 14.4124 43.0613 14.4124C 43.2688 14.4124 43.4532 14.3893 43.4532 14.3893L 43.4532 16.3788C 43.4532 16.3788 43.1074 16.425 42.7156 16.425Z"/>
<path id="path5_fill" d="M 16.267 16.425C 14.9993 16.425 13.1324 16.078 13.1324 13.14L 13.1324 4.62528L 15.3681 4.62528L 15.3681 12.7468C 15.3681 14.1579 15.9213 14.4124 16.6127 14.4124C 16.8202 14.4124 17.0045 14.3893 17.0045 14.3893L 17.0045 16.3788C 17.0045 16.3788 16.6588 16.425 16.267 16.425Z"/>
<path id="path6_fill" fill-rule="evenodd" d="M 50.5587 16.6101C 46.8939 16.6101 44.3816 13.9497 44.3816 10.4796C 44.3816 6.75509 46.8939 4.34917 50.2129 4.34917C 53.5089 4.34917 55.2606 6.80136 55.2606 9.83189C 55.2606 10.1326 55.1914 10.8035 55.1914 10.8035L 46.6865 10.8035C 46.8017 13.3714 48.6226 14.6669 50.697 14.6669C 52.7022 14.6669 54.1542 13.302 54.1542 13.302L 55.0762 14.9445C 55.0762 14.9445 53.3475 16.6101 50.5587 16.6101ZM 46.7556 9.11474C 47.0783 7.19463 48.4612 6.13047 50.1668 6.13047C 51.665 6.13047 52.9096 7.1021 52.9788 9.11474L 46.7556 9.11474Z"/>
<path id="path7_fill" d="M 15.6586 1.42809C 15.6586 2.2168 15.0216 2.85618 14.2358 2.85618C 13.45 2.85618 12.813 2.2168 12.813 1.42809C 12.813 0.639378 13.45 0 14.2358 0C 15.0216 0 15.6586 0.639378 15.6586 1.42809Z"/>
<path id="path8_fill" d="M 2.22812 1.09808C 2.24246 1.13631 2.26874 1.15901 2.30459 1.15901L 2.31893 1.15901C 2.35477 1.15901 2.38225 1.13631 2.3954 1.09808L 2.5818 0.552026L 2.76819 1.09808C 2.78134 1.13631 2.80763 1.15901 2.84347 1.15901L 2.85781 1.15901C 2.89366 1.15901 2.92114 1.13512 2.93428 1.09808L 3.18162 0.405058C 3.1852 0.396694 3.18879 0.384745 3.18879 0.375186C 3.18879 0.335756 3.15533 0.304689 3.1159 0.304689C 3.08005 0.304689 3.05496 0.327392 3.04421 0.357263L 2.85184 0.933186L 2.66305 0.360848C 2.65229 0.326197 2.62601 0.3023 2.58897 0.3023L 2.57821 0.3023C 2.54117 0.3023 2.51608 0.326197 2.50413 0.360848L 2.31534 0.933186L 2.12297 0.358458C 2.11341 0.327392 2.08593 0.304689 2.05008 0.304689C 2.00946 0.304689 1.97481 0.335756 1.97481 0.376381C 1.97481 0.38594 1.9772 0.396694 1.98078 0.405058L 2.22812 1.09808ZM 3.30551 0.353679C 3.30551 0.396694 3.34135 0.42537 3.38795 0.42537C 3.43455 0.42537 3.4704 0.396694 3.4704 0.353679L 3.4704 0.34651C 3.4704 0.303495 3.43455 0.276013 3.38795 0.276013C 3.34135 0.276013 3.30551 0.303495 3.30551 0.34651L 3.30551 0.353679ZM 3.31626 1.08135C 3.31626 1.12197 3.34852 1.15304 3.38795 1.15304C 3.42858 1.15304 3.46084 1.12197 3.46084 1.08135L 3.46084 0.581897C 3.46084 0.541272 3.42858 0.509011 3.38795 0.509011C 3.34733 0.509011 3.31626 0.541272 3.31626 0.581897L 3.31626 1.08135ZM 3.85835 1.15782C 3.89659 1.15782 3.92646 1.15185 3.95753 1.14109C 3.97784 1.13273 3.99576 1.11122 3.99576 1.08493C 3.99576 1.05148 3.96709 1.02519 3.93483 1.02519C 3.93005 1.02519 3.91571 1.02878 3.89898 1.02878C 3.84999 1.02878 3.82131 1.00607 3.82131 0.949914L 3.82131 0.640445L 3.93483 0.640445C 3.96948 0.640445 3.99815 0.612964 3.99815 0.578313C 3.99815 0.543662 3.96948 0.51618 3.93483 0.51618L 3.82131 0.51618L 3.82131 0.408642C 3.82131 0.369212 3.78905 0.336951 3.74962 0.336951C 3.709 0.336951 3.67674 0.369212 3.67674 0.408642L 3.67674 0.51618L 3.65284 0.51618C 3.61819 0.51618 3.59071 0.543662 3.59071 0.578313C 3.59071 0.612964 3.61819 0.640445 3.65284 0.640445L 3.67674 0.640445L 3.67674 0.972617C 3.67674 1.11122 3.75201 1.15782 3.85835 1.15782ZM 4.13519 1.08135C 4.13519 1.12197 4.16745 1.15304 4.20688 1.15304C 4.24751 1.15304 4.27977 1.12197 4.27977 1.08135L 4.27977 0.790998C 4.27977 0.693019 4.33831 0.634471 4.42195 0.634471C 4.50798 0.634471 4.55697 0.690629 4.55697 0.788608L 4.55697 1.08135C 4.55697 1.12197 4.58924 1.15304 4.62986 1.15304C 4.67049 1.15304 4.70155 1.12197 4.70155 1.08135L 4.70155 0.744398C 4.70155 0.598625 4.61911 0.503036 4.47692 0.503036C 4.37894 0.503036 4.32039 0.554415 4.27977 0.612964L 4.27977 0.340535C 4.27977 0.301105 4.24751 0.268844 4.20688 0.268844C 4.16625 0.268844 4.13519 0.301105 4.13519 0.340535L 4.13519 1.08135Z"/>
<path id="path9_fill" fill-rule="evenodd" d="M 0.189121 0.182196C 0.282891 0.0824193 0.701583 0.0176651 1.21833 0.00330329L 1.21707 0.00128759C 3.15752 -0.0516244 5.38861 1.53775 5.39214 2.6421C 5.39516 3.46601 4.49199 4.06669 3.36573 4.06997C 3.07812 4.06997 2.80512 4.03444 2.55456 3.96994C 2.53692 4.09415 2.48348 4.21182 2.3219 4.21182C 2.10209 4.21358 2.0537 4.04225 2.04084 3.79381C 1.26522 3.45745 0.785018 2.90389 0.785018 2.68418C 0.78401 2.41634 1.38016 2.14321 2.05042 2.04293C 2.06529 1.72622 2.11016 1.15452 2.26569 1.15275C 2.45273 1.15275 2.50138 1.67331 2.51272 2.00287C 2.53036 2.00287 2.54826 2.00111 2.56439 2.00111C 2.80933 2.00044 3.01949 2.01449 3.19884 2.03978C 3.89495 2.13794 4.12699 2.40547 4.12699 2.63907C 4.12781 2.75995 4.05286 2.85667 3.98103 2.91935C 3.9214 2.97138 3.86392 2.99995 3.85374 2.99938C 3.72947 2.99106 3.5873 3.00064 3.58579 2.93765C 3.58579 2.85223 3.74056 2.79076 3.74056 2.70206C 3.73905 2.59876 3.15424 2.44204 2.70984 2.4433C 2.65338 2.4433 2.58859 2.4433 2.51927 2.44506C 2.5197 2.46457 2.52016 2.48469 2.52064 2.50535C 2.52884 2.85976 2.54368 3.37269 2.55154 3.62601C 2.74866 3.66128 2.95712 3.68572 3.17038 3.68396C 3.39538 3.6833 3.68849 3.65678 3.96728 3.58013C 4.43498 3.45155 4.86241 3.18191 4.86052 2.65671C 4.85724 1.57958 2.74538 0.308429 0.908282 0.314728C 0.806527 0.314728 0.655817 0.319145 0.526038 0.332359C 0.383833 0.346838 0.266759 0.37188 0.266759 0.413245C 0.266759 0.480771 0.376662 0.468173 0.376662 0.53595C 0.378174 0.586091 0.302301 0.59239 0.218361 0.59239C 0.134169 0.59239 -0.00346245 0.583067 6.6554e-05 0.464897C 0.00359556 0.345467 0.106945 0.271139 0.189121 0.182196ZM 0.916096 2.75221C 0.916096 2.55971 1.50267 2.48714 2.04412 2.45943C 2.03908 2.76178 2.0358 3.19616 2.0358 3.48516C 1.37033 3.25109 0.916096 2.87793 0.916096 2.75221Z"/>
<path id="path10_fill" fill-rule="evenodd" d="M 0.201068 0C 0.0107534 0.00201569 0.00621608 0.767727 0.00117464 1.04665C -0.011681 1.68663 0.0815856 1.76247 0.251482 1.76071C 0.403229 1.76071 0.456417 1.74282 0.442301 1.20841C 0.419614 0.197286 0.34979 0.00201569 0.201068 0.00201569L 0.201068 0"/>
<path id="path11_fill" fill-rule="evenodd" d="M 1.855 0.499136C 1.85676 0.894716 1.18575 1.37294 0.764534 1.3747C 0.630432 1.37621 0.517252 1.35984 0.423481 1.33086C 0.391468 1.38906 0.342314 1.43618 0.26039 1.43618C 0.185777 1.43618 0.130825 1.37621 0.127548 1.15021C 0.0340297 1.04161 0 0.912353 0 0.807789C 0 0.523324 0.425245 0.00151177 1.08063 0C 1.29288 0 1.43454 0.103304 1.53159 0.195522C 1.76299 0.229285 1.855 0.319991 1.855 0.499136ZM 0.838895 0.347203C 0.636734 0.466885 0.429783 0.631416 0.292403 0.798215C 0.286102 0.775034 0.282825 0.754373 0.282825 0.73472C 0.28106 0.606976 0.468602 0.410446 0.838895 0.347203ZM 0.80789 1.05295C 0.70933 1.05295 0.628415 1.04161 0.559348 1.0207C 0.738697 0.817524 1.16701 0.438923 1.39544 0.41492C 1.40298 0.414127 1.41031 0.413721 1.4174 0.413721C 1.52665 0.412392 1.56759 0.477915 1.58112 0.529039C 1.58555 0.545741 1.58704 0.560906 1.58704 0.571701C 1.58704 0.838277 1.04257 1.05446 0.80789 1.05446L 0.80789 1.05295Z"/>
<path id="path12_fill" fill-rule="evenodd" d="M 1.8792 0.172879C 1.87794 -0.00299026 1.42194 -0.00122651 1.16659 0.000285257C 0.974512 0.000285257 -0.00151068 0.0229618 1.75583e-06 0.567199C 0.00201833 0.935315 0.546494 0.846625 0.908217 0.882151C 1.2039 0.911127 1.56285 1.00637 1.56285 1.10363C 1.56411 1.31855 0.782181 1.40522 0.620603 1.40699C 0.289632 1.40699 0.281314 1.31175 0.281314 1.26161C 0.281314 1.21323 0.336266 1.13084 0.460789 1.13084C 0.585061 1.13084 0.84041 1.28907 1.01661 1.28907C 1.19255 1.28756 1.34128 1.20995 1.33976 1.13084C 1.33976 0.987219 0.754705 0.915914 0.57397 0.917426C 0.384916 0.91919 0.11167 0.997046 0.11167 1.28126C 0.113686 1.4279 0.353911 1.77838 1.0345 1.77536C 1.70451 1.77359 1.87466 1.39237 1.8729 1.19685C 1.87164 0.71888 1.42017 0.665716 1.02619 0.631953C 0.732019 0.607513 0.412139 0.592899 0.413652 0.528397C 0.417433 0.310198 1.8792 0.471958 1.87794 0.174643L 1.8792 0.172879"/>
<path id="path13_fill" fill-rule="evenodd" d="M 1.02595 0C 0.971247 0 0.961668 0.0582031 0.961668 0.120942C 0.962928 0.306889 1.22004 0.957706 1.22004 1.20488C 1.22004 1.25653 1.21525 1.34875 1.17618 1.35984C 1.11493 1.37773 0.57499 0.39432 0.352662 0.379706C 0.121512 0.363581 -0.00149865 1.34371 1.37809e-05 1.5861C 0.00203036 1.82823 0.0436222 1.98999 0.221585 1.98999C 0.488025 1.98823 0.348881 1.0081 0.457776 1.0081C 0.536675 1.0081 0.971247 1.90407 1.21223 1.90407C 1.47413 1.90256 1.6289 1.52008 1.62739 1.27115C 1.62588 0.701209 1.24601 0.00176373 1.02595 0.00176373L 1.02595 0"/>
<path id="path14_fill" fill-rule="evenodd" d="M 1.12626 1.27942C 1.03299 1.27942 0.510698 1.39557 0.476668 1.36357C 0.44289 1.33107 0.505908 1.03073 0.572203 1.00982C 0.638246 0.988652 1.04534 0.995203 1.11164 0.990164C 1.30069 0.980589 1.26565 0.72384 1.14894 0.714014C 1.0892 0.709227 0.718909 0.707463 0.6995 0.6737C 0.680342 0.639685 0.704793 0.470367 0.746637 0.452478C 0.830577 0.418463 1.39144 0.402589 1.43278 0.391251C 1.5026 0.374873 1.55453 0.337835 1.57091 0.278372C 1.58831 0.218405 1.37682 -0.0257456 1.1134 0.00222216C 0.663957 0.0521106 0.080663 0.0488351 0.080663 0.195729C 0.080663 0.332796 0.354161 0.387724 0.360463 0.426526C 0.368529 0.463564 0.324921 0.607434 0.309796 0.651024C 0.294672 0.699652 0.0990643 0.714014 0.0857045 0.848058C 0.0824275 0.878797 0.134102 0.927425 0.123011 0.964464C 0.0922583 1.07936 0 1.31016 0 1.40716C 0.0017645 1.55557 0.110155 1.88816 0.417179 1.87883C 0.898888 1.86246 1.33144 1.52634 1.33775 1.46662C 1.34934 1.37793 1.21524 1.27463 1.12298 1.27463L 1.12626 1.27942"/>
<path id="path15_fill" fill-rule="evenodd" d="M 0.559303 0.995722C 0.559303 1.02974 0.570646 1.06678 0.588291 1.10558C 0.756867 0.890781 0.993482 0.617163 1.21449 0.419075C 1.3808 0.270013 1.53828 0.163721 1.65128 0.157446L 1.65128 0.158958C 1.69711 0.155815 1.78969 0.182069 1.87385 0.265897C 1.96512 0.356815 2.04649 0.515459 2.04754 0.777776C 2.0488 1.28296 1.43979 1.86801 0.890778 1.86953C 0.86305 1.86953 0.836834 1.866 0.812635 1.86449C 0.757936 2.09251 0.602659 2.62541 0.505864 2.91567C 0.436292 3.11951 0.424697 3.41808 0.371761 3.42942C 0.234382 3.45865 0.00323234 3.2344 0.000207475 3.00638C -0.0081109 2.56544 0.235895 1.83727 0.337984 1.51098C 0.274714 1.38652 0.245978 1.2492 0.245978 1.13758C 0.245063 0.916537 0.336945 0.688143 0.450894 0.493814C 0.588281 0.259513 0.757746 0.0747309 0.835322 0.0120641C 0.906406 -0.0458871 0.972701 0.117132 0.914724 0.241601C 0.859269 0.361031 0.559303 0.837239 0.559303 0.995722ZM 1.68001 0.516239C 1.7632 0.517499 1.79496 0.599639 1.79496 0.724108C 1.79698 1.09928 1.34274 1.40894 1.01959 1.4044C 1.13046 1.21087 1.26738 0.98584 1.39111 0.810717C 1.51239 0.639072 1.621 0.515366 1.68001 0.516239Z"/>
</defs>
</svg>
