<svg width="135" height="50" viewBox="0 0 135 50" version="2.0" xmlns="http://www.w3.org/2000/svg" xmlns:xlink="http://www.w3.org/1999/xlink" xmlns:figma="http://www.figma.com/figma/ns">
<title>disney-cta-white</title>
<desc>Created using Figma (9000)</desc>
<g id="Canvas" transform="translate(2458 2541)" figma:type="canvas">
<mask id="mask0_outline" mask-type="alpha">
<path d="
M -2458 -2541
L -2323 -2541
L -2323 -2491
L -2458 -2491
L -2458 -2541
Z" fill="#FFFFFF"/>
</mask>
<g id="disney-cta-white" style="mix-blend-mode:normal;" mask="url(#mask0_outline)" figma:type="frame">
<g id="disney-store" style="mix-blend-mode:normal;" figma:type="group">
<g id="Vector" style="mix-blend-mode:normal;" figma:type="vector">
<use xlink:href="#path0_fill" transform="translate(-2453 -2528.72)" fill="#023066" style="mix-blend-mode:normal;"/>
</g>
<g id="Vector" style="mix-blend-mode:normal;" figma:type="vector">
<use xlink:href="#path1_fill" transform="translate(-2394.93 -2517.24)" fill="#023066" style="mix-blend-mode:normal;"/>
</g>
<g id="Vector" style="mix-blend-mode:normal;" figma:type="vector">
<use xlink:href="#path2_fill" transform="translate(-2335.15 -2526.51)" fill="#033166" style="mix-blend-mode:normal;"/>
</g>
<g id="Vector" style="mix-blend-mode:normal;" figma:type="vector">
<use xlink:href="#path3_fill" transform="translate(-2350.35 -2533)" fill="#033166" style="mix-blend-mode:normal;"/>
</g>
<g id="Vector" style="mix-blend-mode:normal;" figma:type="vector">
<use xlink:href="#path4_fill" transform="translate(-2420.52 -2517.64)" fill="#023066" style="mix-blend-mode:normal;"/>
</g>
<g id="Vector" style="mix-blend-mode:normal;" figma:type="vector">
<use xlink:href="#path5_fill" transform="translate(-2401.45 -2517.07)" fill="#023066" style="mix-blend-mode:normal;"/>
</g>
<g id="Vector" style="mix-blend-mode:normal;" figma:type="vector">
<use xlink:href="#path6_fill" transform="translate(-2410.41 -2518.74)" fill="#023066" style="mix-blend-mode:normal;"/>
</g>
<g id="Vector" style="mix-blend-mode:normal;" figma:type="vector">
<use xlink:href="#path7_fill" transform="translate(-2425.97 -2526.16)" fill="#023066" style="mix-blend-mode:normal;"/>
</g>
<g id="Vector" style="mix-blend-mode:normal;" figma:type="vector">
<use xlink:href="#path8_fill" transform="translate(-2365.63 -2517.1)" fill="#033166" style="mix-blend-mode:normal;"/>
</g>
<g id="Vector" style="mix-blend-mode:normal;" figma:type="vector">
<use xlink:href="#path9_fill" transform="translate(-2355.25 -2516.97)" fill="#033166" style="mix-blend-mode:normal;"/>
</g>
<g id="Vector" style="mix-blend-mode:normal;" figma:type="vector">
<use xlink:href="#path10_fill" transform="translate(-2346.34 -2516.96)" fill="#033166" style="mix-blend-mode:normal;"/>
</g>
<g id="Vector" style="mix-blend-mode:normal;" figma:type="vector">
<use xlink:href="#path11_fill" transform="translate(-2344.56 -2530.89)" fill="#033166" style="mix-blend-mode:normal;"/>
</g>
<g id="Vector" style="mix-blend-mode:normal;" figma:type="vector">
<use xlink:href="#path12_fill" transform="translate(-2380.6 -2517.08)" fill="#033166" style="mix-blend-mode:normal;"/>
</g>
<g id="Vector" style="mix-blend-mode:normal;" figma:type="vector">
<use xlink:href="#path13_fill" transform="translate(-2423.84 -2517.64)" fill="#023066" style="mix-blend-mode:normal;"/>
</g>
<g id="Vector" style="mix-blend-mode:normal;" figma:type="vector">
<use xlink:href="#path14_fill" transform="matrix(1 0 0 1 -2373.17 -2516.96)" fill="#023066" style="mix-blend-mode:normal;"/>
</g>
<g id="Vector" style="mix-blend-mode:normal;" figma:type="vector">
<use xlink:href="#path15_fill" transform="translate(-2336.58 -2522.55)" fill="#033166" style="mix-blend-mode:normal;"/>
</g>
<g id="Vector" style="mix-blend-mode:normal;" figma:type="vector">
<use xlink:href="#path16_fill" transform="translate(-2345.62 -2529.4)" fill="#033166" style="mix-blend-mode:normal;"/>
</g>
<g id="Vector" style="mix-blend-mode:normal;" figma:type="vector">
<use xlink:href="#path17_fill" transform="translate(-2344.94 -2524.24)" fill="#033166" style="mix-blend-mode:normal;"/>
</g>
<g id="Vector" style="mix-blend-mode:normal;" figma:type="vector">
<use xlink:href="#path18_fill" transform="matrix(1 0 0 1 -2334.83 -2512.43)" fill="#033166" style="mix-blend-mode:normal;"/>
</g>
<g id="Vector" style="mix-blend-mode:normal;" figma:type="vector">
<use xlink:href="#path19_fill" transform="translate(-2333.56 -2515.54)" fill="#033166" style="mix-blend-mode:normal;"/>
</g>
<g id="Vector" style="mix-blend-mode:normal;" figma:type="vector">
<use xlink:href="#path20_fill" transform="matrix(1 0 0 1 -2333.57 -2519.06)" fill="#033166" style="mix-blend-mode:normal;"/>
</g>
<g id="Vector" style="mix-blend-mode:normal;" figma:type="vector">
<use xlink:href="#path21_fill" transform="translate(-2343.32 -2532.39)" fill="#033166" style="mix-blend-mode:normal;"/>
</g>
<g id="Vector" style="mix-blend-mode:normal;" figma:type="vector">
<use xlink:href="#path22_fill" transform="translate(-2335.12 -2528.78)" fill="#033166" style="mix-blend-mode:normal;"/>
</g>
<g id="Vector" style="mix-blend-mode:normal;" figma:type="vector">
<use xlink:href="#path23_fill" transform="translate(-2337.38 -2509.32)" fill="#033166" style="mix-blend-mode:normal;"/>
</g>
</g>
</g>
</g>
<defs>
<path id="path0_fill" d="
M 8.20549e-16 2.27607
C 0.220806 1.85022 0.4955 1.45323 0.817613 1.09446
C 1.0598 0.833662 1.38571 0.661508 1.74147 0.606453
C 2.47123 0.414966 3.2115 0.264105 3.95872 0.154596
C 5.46194 -0.0436712 6.98504 -0.0512649 8.49024 0.132003
C 11.9301 0.539752 15.2677 1.54591 18.3455 3.10296
C 20.8415 4.30959 23.1071 5.92665 25.0434 7.88361
C 26.2394 9.0955 27.1907 10.5174 27.8473 12.0746
C 29.053 14.9778 27.8242 18.2967 25.3229 19.9369
C 23.8553 20.8687 22.2021 21.4848 20.4727 21.7443
C 18.0696 22.1368 15.6079 22.0111 13.2596 21.3761
C 13.1927 21.3512 13.1234 21.3377 13.0495 21.3218
L 12.9178 22.0945
C 12.8986 22.2067 12.85 22.3121 12.7768 22.4004
C 12.7035 22.4887 12.6081 22.5569 12.4998 22.5983
C 11.6036 23.0186 10.883 22.7181 10.5989 21.794
C 10.4725 21.3878 10.395 20.9685 10.368 20.5447
C 10.3684 20.4662 10.3443 20.3896 10.2989 20.3249
C 10.2535 20.2603 10.1889 20.2108 10.1139 20.1832
C 8.07077 19.1959 6.26433 17.7969 4.81329 16.078
C 4.5985 15.8182 4.39525 15.5494 4.20355 15.2737
C 3.6885 14.535 3.83631 13.6471 4.57771 13.0145
C 5.18532 12.5418 5.87012 12.1729 6.60326 11.9232
C 7.88479 11.4378 9.21817 11.0952 10.5782 10.902
C 10.6103 10.9021 10.6422 10.8957 10.6716 10.8831
C 10.7011 10.8705 10.7275 10.852 10.7493 10.8288
C 10.771 10.8056 10.7876 10.7783 10.7979 10.7485
C 10.8082 10.7187 10.812 10.6871 10.8091 10.6558
C 10.92 9.36119 11.0401 8.06436 11.4073 6.81497
C 11.4638 6.60694 11.5412 6.40489 11.6383 6.21174
C 11.8092 5.88866 12.0425 5.85929 12.2942 6.13041
C 12.7434 6.5895 13.0335 7.1752 13.1234 7.80454
C 13.2445 8.68197 13.297 9.56717 13.2804 10.4524
C 13.2804 10.6784 13.3474 10.7303 13.5715 10.7281
C 15.485 10.714 17.3878 11.0102 19.2024 11.6047
C 19.8801 11.8224 20.5017 12.1807 21.0247 12.6552
C 22.482 13.9724 21.6875 15.8363 20.1285 16.2814
C 19.4795 16.4666 18.9183 16.1888 18.3755 15.8905
C 18.2138 15.8002 18.297 15.6646 18.4194 15.59
C 18.6106 15.4825 18.808 15.3859 19.0107 15.3009
C 19.1831 15.2361 19.3462 15.1495 19.4957 15.0433
C 19.8283 14.7835 19.8283 14.5237 19.4957 14.2684
C 19.2949 14.1243 19.073 14.0108 18.8374 13.9317
C 17.8863 13.6118 16.9017 13.3966 15.9019 13.2901
C 15.0519 13.1749 14.1927 13.1252 13.3359 13.0755
C 13.1557 13.0755 13.1049 13.1116 13.1049 13.3014
C 13.0425 15.2444 13.0703 17.1851 13.0564 19.1281
C 13.05 19.1559 13.0498 19.1848 13.056 19.2127
C 13.0621 19.2407 13.0744 19.2669 13.092 19.2897
C 13.1096 19.3125 13.1321 19.3313 13.1578 19.3447
C 13.1836 19.3582 13.212 19.366 13.2412 19.3676
C 15.9758 19.9414 18.6827 19.9166 21.3549 19.0445
C 21.9863 18.8434 22.5917 18.5712 23.1588 18.2334
C 25.2767 16.9524 26.0297 14.8445 25.1797 12.5445
C 24.6485 11.1121 23.7108 9.94408 22.6137 8.89577
C 20.505 6.87597 18.0221 5.3984 15.3614 4.19194
C 12.8557 3.04084 10.185 2.27059 7.44166 1.9078
C 5.65862 1.68187 3.87096 1.62539 2.09484 1.99817
C 1.90545 2.03658 1.72299 2.09984 1.53822 2.15632
C 1.50109 2.15673 1.46543 2.17058 1.43813 2.1952
C 1.41083 2.21981 1.39383 2.25346 1.3904 2.28962
C 1.40603 2.31663 1.42895 2.33892 1.45664 2.35406
C 1.48434 2.3692 1.51575 2.37661 1.54746 2.37547
C 1.85464 2.46811 2.16413 2.55622 2.47132 2.65789
C 2.52989 2.66537 2.58429 2.69158 2.62606 2.73244
C 2.66784 2.7733 2.69463 2.82652 2.70228 2.88381
C 2.69437 2.95185 2.66311 3.01526 2.61361 3.06368
C 2.56411 3.1121 2.4993 3.14267 2.42974 3.15041
C 1.82837 3.30456 1.19502 3.29204 0.600507 3.11426
C 0.34436 3.03692 0.129008 2.86516 8.20549e-16 2.63529
L 0 2.25573
L 8.20549e-16 2.27607
Z
M 10.7029 14.3339
C 10.7029 13.9995 10.689 13.6561 10.7029 13.333
C 10.7144 13.1274 10.6636 13.0755 10.4488 13.089
C 9.52496 13.1523 8.58955 13.211 7.67725 13.3533
C 6.84397 13.4533 6.02593 13.6506 5.24058 13.9408
C 4.64931 14.1802 4.54768 14.5756 4.9819 15.0343
C 6.41418 16.5527 8.18324 17.7299 10.1532 18.4751
C 10.3195 18.5407 10.3634 18.5158 10.3841 18.3328
C 10.5019 16.9908 10.622 15.6601 10.7029 14.3339
Z"/>
<path id="path1_fill" d="
M 1.68204 18.2338
C 0.481025 17.5876 -0.0201673 16.5597 0.000619447 15.2583
C 0.0214062 14.0518 0.365543 12.9109 0.765111 11.7813
C 1.17315 10.6601 1.65297 9.5652 2.20171 8.50304
C 2.23515 8.46223 2.25615 8.41302 2.26227 8.36107
C 2.2684 8.30911 2.25942 8.25652 2.23635 8.20933
C 1.58272 6.99158 1.66125 5.72412 2.09315 4.47925
C 2.68514 2.81488 3.73437 1.34219 5.12571 0.222756
C 5.27815 0.093977 5.46061 -0.0686916 5.66617 0.030717
C 5.87173 0.130126 5.78396 0.353795 5.77703 0.52776
C 5.7686 0.908634 5.66301 1.28141 5.46985 1.61222
C 5.0495 2.3126 4.61528 3.00394 4.20186 3.70658
C 3.743 4.42009 3.50256 5.24719 3.50897 6.09012
C 3.50897 6.13305 3.50897 6.17372 3.52282 6.25505
C 3.96166 5.68797 4.36584 5.14348 4.79082 4.61707
C 5.56313 3.61236 6.46172 2.70679 7.46538 1.92174
C 8.00353 1.51959 8.5717 1.16714 9.2669 1.08354
C 9.5423 1.03939 9.82486 1.07338 10.0811 1.18149
C 10.3374 1.28961 10.5566 1.46731 10.7127 1.69355
C 11.1955 2.34649 11.2878 3.10335 11.2925 3.8828
C 11.2925 5.93875 10.2855 7.49766 8.77264 8.79901
C 8.02887 9.48974 7.08504 9.93873 6.07036 10.0845
C 5.66657 10.1353 5.25677 10.1154 4.86011 10.0258
C 4.83596 10.0147 4.80958 10.0089 4.78289 10.009
C 4.7562 10.0091 4.72985 10.0149 4.70576 10.0262
C 4.68167 10.0374 4.66043 10.0537 4.64359 10.074
C 4.62674 10.0943 4.61471 10.1179 4.60835 10.1433
C 3.62659 12.2495 2.90773 14.4637 2.46732 16.7381
C 2.40727 17.0477 2.34953 17.3594 2.30102 17.6712
C 2.28924 17.7832 2.2533 17.8914 2.19557 17.9888
C 2.13783 18.0862 2.05963 18.1704 1.96612 18.236
L 1.68897 18.236
L 1.68204 18.2338
Z
M 5.82554 7.59933
C 5.89322 7.6035 5.9611 7.6035 6.02878 7.59933
C 7.75871 7.33725 9.03132 6.45613 9.76578 4.88818
C 9.949 4.50239 10.0444 4.08226 10.0453 3.65687
C 10.0453 3.41739 10.0938 3.12142 9.81429 3.0062
C 9.53482 2.89097 9.32926 3.12368 9.15373 3.2999
C 8.76802 3.6885 8.39155 4.08614 8.03124 4.49507
C 7.18812 5.45233 6.44892 6.49266 5.82554 7.59933
L 5.82554 7.59933
Z"/>
<path id="path2_fill" d="
M 6.14825 3.10429
C 5.45536 3.26696 4.76247 3.43866 4.05341 3.58778
C 3.95539 3.59489 3.86291 3.63503 3.79174 3.70136
C 3.72057 3.76768 3.6751 3.85609 3.66308 3.95152
C 3.52913 4.56831 3.36745 5.17831 3.20116 5.79058
C 3.17575 5.88773 3.20116 6.04136 3.04872 6.0391
C 2.89629 6.03684 2.93324 5.89677 2.91014 5.81317
C 2.75309 5.18283 2.58217 4.55701 2.44822 3.92215
C 2.43835 3.8397 2.3996 3.76313 2.33855 3.70546
C 2.27749 3.6478 2.19791 3.6126 2.11332 3.60585
C 1.4851 3.46804 0.859185 3.31666 0.230964 3.16981
C 0.136269 3.14722 0 3.15399 0 3.02522
C 0 2.89644 0.131649 2.91903 0.230964 2.8987
C 0.875353 2.74506 1.51743 2.58691 2.16413 2.44684
C 2.23532 2.43956 2.30183 2.40871 2.35266 2.35941
C 2.40348 2.3101 2.43556 2.2453 2.4436 2.17572
C 2.59141 1.51601 2.76464 0.860819 2.92862 0.205626
C 2.94941 0.119773 2.95634 -0.00222836 3.0672 3.093e-05
C 3.17806 0.00229022 3.17806 0.12881 3.20116 0.214663
C 3.36745 0.869856 3.53605 1.52505 3.68849 2.18476
C 3.69451 2.25033 3.72358 2.31183 3.77075 2.35879
C 3.81791 2.40575 3.88026 2.43527 3.94717 2.44232
C 4.68163 2.60725 5.41379 2.78573 6.14595 2.96196
L 6.14595 3.12462
L 6.14825 3.10429
Z"/>
<path id="path3_fill" d="
M 0.672463 0
L 0.778706 0.0768157
C 0.874523 0.133122 0.947395 0.220211 0.984883 0.323219
C 1.02237 0.426227 1.02215 0.538769 0.984264 0.641637
C 0.957088 0.743411 0.894465 0.832723 0.80719 0.894174
C 0.719915 0.955626 0.613457 0.985367 0.506169 0.978271
C 0.398881 0.985367 0.292423 0.955626 0.205148 0.894174
C 0.117873 0.832723 0.0552503 0.743411 0.0280743 0.641637
C -0.00936396 0.538732 -0.00935792 0.426342 0.0280914 0.323441
C 0.0655407 0.220539 0.138139 0.133429 0.233632 0.0768157
L 0.339875 0
L 0.672463 0
L 0.672463 0
Z"/>
<path id="path4_fill" d="
M 3.89743 7.57114
C 4.92062 7.60138 5.94014 7.43797 6.89996 7.08991
C 7.20245 6.9788 7.48474 6.8209 7.73605 6.62224
C 8.1795 6.26301 8.14948 5.80664 7.64829 5.52648
C 7.21215 5.30871 6.74499 5.15639 6.2625 5.07463
C 5.21456 4.85912 4.14988 4.73064 3.07982 4.69055
C 2.33149 4.67233 1.58832 4.56382 0.86718 4.36747
C 0.202003 4.16865 -0.0174127 3.87946 0.00106446 3.19942
C 0.0287802 2.11496 0.462993 1.2971 1.53929 0.849762
C 2.46865 0.473208 3.44616 0.222376 4.44481 0.104197
C 6.06389 -0.0935301 7.70596 -0.00939202 9.29506 0.352719
C 9.54001 0.405345 9.77422 0.497749 9.98795 0.626092
C 10.0678 0.668347 10.1298 0.736955 10.1627 0.819702
C 10.1957 0.902448 10.1976 0.993962 10.1681 1.07795
C 10.1265 1.32647 9.99489 1.55205 9.79726 1.71343
C 9.59963 1.87481 9.34921 1.9612 9.09181 1.95681
C 8.28113 2.00426 7.47506 2.02911 6.65745 2.08333
C 5.27167 2.17822 3.87433 2.23696 2.5001 2.50808
C 2.29685 2.54875 2.01738 2.56908 2.02431 2.8289
C 2.03124 3.08871 2.31071 3.02997 2.48624 3.06838
C 3.62985 3.28641 4.78737 3.42757 5.9507 3.49087
C 6.74566 3.53927 7.52655 3.71878 8.26034 4.0218
C 8.67876 4.18717 9.03688 4.47146 9.28844 4.83796
C 9.54 5.20445 9.67344 5.63631 9.67153 6.07775
C 9.71108 6.64658 9.65252 7.21787 9.49831 7.7677
C 9.44889 7.98087 9.35375 8.18134 9.21916 8.35583
C 9.08458 8.53032 8.91364 8.67486 8.71765 8.77986
C 6.75215 9.71746 4.7289 9.9705 2.65022 9.14812
C 2.01726 8.88914 1.44916 8.49914 0.984972 8.00492
C 0.509185 7.51466 0.208932 6.93854 0.442206 6.26075
C 0.67548 5.58297 1.25058 5.18081 1.98505 5.06107
C 3.09829 4.87807 4.19075 5.03622 5.27167 5.30056
C 5.72511 5.38424 6.16034 5.54399 6.55814 5.77275
C 6.73829 5.89023 6.97387 5.99868 6.95539 6.2472
C 6.93692 6.49572 6.72443 6.62676 6.50732 6.71939
C 5.82177 7.00362 5.05963 7.0592 4.33857 6.87754
C 3.94155 6.79291 3.561 6.64645 3.21147 6.44375
C 2.90105 6.26367 2.55427 6.15188 2.19522 6.11616
C 2.09481 6.09898 1.99165 6.1056 1.8944 6.13548
C 1.79714 6.16536 1.70863 6.21761 1.63629 6.28786
C 1.27599 6.65161 1.31756 6.97921 1.77487 7.22321
C 2.20856 7.42439 2.68079 7.53371 3.16065 7.54403
C 3.39624 7.58921 3.64799 7.57114 3.89743 7.57114
Z"/>
<path id="path5_fill" d="
M 2.18179 2.19655
C 1.84527 2.20151 1.51456 2.11059 1.22995 1.93488
C 0.945335 1.75917 0.719128 1.50626 0.578898 1.20699
C 0.382579 0.838722 0.456487 0.648942 0.865294 0.547274
C 1.79063 0.341416 2.73006 0.201724 3.67613 0.129306
C 4.74283 0.0261339 5.81483 -0.0153585 6.88653 0.00504562
C 7.12667 0.00674077 7.36341 0.0607455 7.57955 0.163136
C 7.79568 0.265526 7.98579 0.41373 8.13604 0.596979
C 8.34478 0.838121 8.51813 1.10655 8.65109 1.39451
C 8.88206 1.86444 8.75734 2.09037 8.23767 2.16944
C 7.34149 2.29028 6.43953 2.36569 5.53539 2.39537
C 5.11965 2.4157 4.70392 2.43152 4.29049 2.4383
C 4.23231 2.4316 4.17371 2.44677 4.12654 2.48075
C 4.07937 2.51473 4.04716 2.56497 4.03643 2.6213
C 3.9579 2.87886 3.86552 3.13642 3.76158 3.38494
C 3.68537 3.5702 3.70153 3.6312 3.9325 3.61087
C 4.7345 3.56166 5.53944 3.58586 6.33683 3.68316
C 6.39505 3.68026 6.4532 3.68999 6.50712 3.71166
C 6.56104 3.73334 6.60938 3.76642 6.64868 3.80854
C 6.68798 3.85065 6.71726 3.90075 6.73443 3.95525
C 6.75159 4.00974 6.75621 4.06728 6.74795 4.12372
C 6.74765 4.39498 6.72913 4.66593 6.69252 4.93481
C 6.67592 5.04007 6.61887 5.13516 6.53302 5.20066
C 6.44717 5.26616 6.339 5.29714 6.23059 5.28726
C 5.59544 5.31889 4.95798 5.34374 4.32052 5.36181
C 3.91402 5.37386 3.50752 5.37386 3.10103 5.36181
C 3.0723 5.35735 3.04296 5.35858 3.01473 5.36542
C 2.9865 5.37227 2.95997 5.38459 2.9367 5.40166
C 2.91343 5.41873 2.89391 5.4402 2.87929 5.46479
C 2.86467 5.48938 2.85525 5.51659 2.85159 5.54482
C 2.70839 5.99667 2.54671 6.44853 2.38966 6.90039
C 2.30882 7.14891 2.36656 7.20765 2.63679 7.16021
C 3.79161 6.96591 4.92795 6.77839 6.10125 6.69479
C 6.35565 6.67562 6.60829 6.74927 6.81045 6.90155
C 7.01261 7.05383 7.14997 7.27394 7.19602 7.51943
C 7.22467 7.65647 7.21297 7.79864 7.16227 7.92942
C 7.11157 8.06021 7.02396 8.17423 6.90962 8.25822
C 6.42126 8.67521 5.8774 9.02558 5.29288 9.29975
C 4.44294 9.73518 3.52514 10.0299 2.57674 10.1718
C 1.13783 10.3752 -0.130161 8.9586 0.0107267 7.64143
C 0.083218 6.94154 0.262269 6.25618 0.541944 5.60808
C 0.583104 5.52965 0.606662 5.44352 0.611044 5.35546
C 0.615425 5.2674 0.600529 5.17945 0.56735 5.09748
C 0.470884 4.8619 0.422246 4.6102 0.424152 4.35643
C 0.424152 3.96557 0.518848 3.79839 0.909177 3.76224
C 1.07968 3.75182 1.24276 3.69027 1.37624 3.58598
C 1.50972 3.48168 1.60712 3.3397 1.65519 3.17934
C 1.80763 2.85627 1.9924 2.55352 2.18179 2.19655
Z"/>
<path id="path6_fill" d="
M 0 8.61392
C 0.0383728 6.82179 0.34975 5.04528 0.923857 3.34301
C 1.034 2.98832 1.2076 2.65557 1.4366 2.36022
C 1.82231 1.90836 2.24728 1.86769 2.69073 2.27436
C 3.51065 3.02445 4.08807 3.94849 4.62852 4.89739
C 5.07659 5.68589 5.51773 6.4789 6.01431 7.2335
C 6.09514 7.3555 6.16443 7.55206 6.35613 7.49106
C 6.54783 7.43005 6.47162 7.24027 6.47162 7.10698
C 6.44147 6.31348 6.33944 5.52415 6.16674 4.74828
C 5.93578 3.53279 5.654 2.33085 5.33065 1.13342
C 5.24113 0.865379 5.22993 0.578202 5.29832 0.304265
C 5.30327 0.246726 5.32347 0.191443 5.35693 0.143872
C 5.39038 0.0963003 5.43594 0.0580838 5.48911 0.032993
C 5.54227 0.00790217 5.60121 -0.00319589 5.6601 0.000793802
C 5.71899 0.00478349 5.77579 0.0237231 5.82492 0.0557438
C 5.96479 0.124425 6.09517 0.210212 6.21294 0.311043
C 7.25227 1.15602 7.85278 2.26759 8.20385 3.52149
C 8.71297 5.28769 8.70737 7.15793 8.18768 8.92118
C 8.0688 9.38859 7.80596 9.80896 7.43474 10.1254
C 7.29899 10.2498 7.13903 10.3462 6.96439 10.4088
C 6.78974 10.4715 6.60399 10.4991 6.41821 10.49
C 6.23242 10.481 6.0504 10.4354 5.883 10.3561
C 5.7156 10.2767 5.56624 10.1652 5.44382 10.0282
C 5.01978 9.57477 4.65371 9.07253 4.35367 8.53259
C 3.8571 7.71924 3.45291 6.85845 3.02563 6.00896
C 2.93555 5.83048 2.82931 5.66103 2.72538 5.49159
C 2.68842 5.43285 2.64685 5.34473 2.5637 5.37636
C 2.51697 5.4179 2.48809 5.47522 2.48286 5.53677
C 2.38984 6.02543 2.33273 6.51997 2.31195 7.0166
C 2.24266 8.01521 2.24497 9.02285 2.03017 10.0079
C 2.01997 10.1478 1.98046 10.2842 1.91411 10.4086
C 1.84776 10.533 1.75598 10.6427 1.64446 10.7309
C 1.52084 10.813 1.37925 10.8656 1.23108 10.8845
C 1.08291 10.9034 0.932263 10.8881 0.791236 10.8398
C 0.650209 10.7914 0.522724 10.7115 0.419008 10.6062
C 0.315292 10.501 0.238232 10.3735 0.19401 10.2338
C -0.00461927 9.70967 0.0161675 9.15389 0 8.61392
Z"/>
<path id="path7_fill" d="
M 4.00182 7.24977
C 3.51173 7.25724 3.02548 7.16411 2.57446 6.97639
C 2.54938 6.95799 2.5202 6.94565 2.48931 6.94039
C 2.45842 6.93513 2.4267 6.9371 2.39674 6.94613
C 2.36677 6.95517 2.33942 6.97101 2.31692 6.99237
C 2.29442 7.01373 2.27741 7.04 2.26728 7.06902
C 2.1673 7.25266 2.03248 7.41598 1.87002 7.55025
C 1.82551 7.60128 1.76995 7.64198 1.70736 7.66938
C 1.64478 7.69679 1.57674 7.71023 1.50819 7.70871
C 1.43963 7.7072 1.37228 7.69077 1.31102 7.66063
C 1.24977 7.63049 1.19614 7.58738 1.15403 7.53444
C 0.754463 7.11421 0.488855 6.63072 0.692103 6.03879
C 0.710529 5.98976 0.713557 5.93647 0.7008 5.88575
C 0.688042 5.83502 0.660081 5.78919 0.620504 5.75412
C 0.292192 5.41882 0.0816168 4.98993 0.0193223 4.52966
C -0.0429723 4.06938 0.0462538 3.60167 0.274058 3.19435
C 1.09167 1.58574 2.47515 0.661689 4.21892 0.225647
C 5.08065 -0.0282201 5.99338 -0.0685912 6.87501 0.108164
C 7.3508 0.221128 7.79887 0.381537 8.01367 0.869543
C 8.02978 0.901798 8.05583 0.928299 8.08815 0.94532
C 8.12046 0.962341 8.15742 0.969025 8.19382 0.964433
C 8.27672 0.968085 8.35928 0.977143 8.44095 0.991545
C 9.67199 1.24007 10.187 2.06922 9.82673 3.25083
C 9.5542 4.15455 8.956 4.85266 8.25156 5.46493
C 7.20044 6.42745 5.86798 7.0444 4.44065 7.22943
C 4.38522 7.22943 4.32979 7.24525 4.27667 7.24751
C 4.17735 7.26106 4.0942 7.24977 4.00182 7.24977
Z
M 3.19113 5.37456
C 3.4221 5.41297 3.60225 5.44686 3.77547 5.46719
C 4.24346 5.52158 4.71637 5.52158 5.18435 5.46719
C 6.50316 5.30452 7.5656 4.7397 8.25849 3.5965
C 8.38558 3.39229 8.4527 3.15779 8.4525 2.91872
C 8.46285 2.83505 8.4546 2.75018 8.42832 2.66992
C 8.40204 2.58966 8.35835 2.51589 8.30023 2.45368
C 8.24211 2.39146 8.17094 2.34226 8.09158 2.30944
C 8.01223 2.27662 7.92656 2.26096 7.84044 2.26352
C 7.54464 2.24147 7.24773 2.28871 6.97433 2.40134
C 5.43149 3.02038 4.26281 4.08677 3.19113 5.3723
L 3.19113 5.37456
Z
M 1.59517 4.47085
C 2.29471 3.48143 3.17477 2.62669 4.19121 1.94948
C 3.61208 1.96869 3.05181 2.15565 2.58143 2.48667
C 2.11104 2.81769 1.75171 3.27787 1.54898 3.80887
C 1.50227 3.91524 1.4821 4.03095 1.49013 4.14644
C 1.49816 4.26194 1.53417 4.37391 1.59517 4.4731
L 1.59517 4.47085
Z"/>
<path id="path8_fill" d="
M 4.24537 0.000908772
C 6.63815 0.000908772 8.45815 1.76541 8.45815 4.06762
C 8.46229 4.61144 8.35488 5.15055 8.14228 5.65304
C 7.92968 6.15554 7.61621 6.61122 7.22041 6.99313
C 6.82461 7.37503 6.35452 7.6754 5.83796 7.87647
C 5.3214 8.07753 4.76886 8.17521 4.21303 8.16371
C 3.66083 8.17679 3.11159 8.08094 2.59808 7.88189
C 2.08456 7.68284 1.61729 7.38465 1.22413 7.00513
C 0.830976 6.6256 0.519986 6.17251 0.309713 5.67287
C 0.0994405 5.17323 -0.00580738 4.63728 0.000247137 4.09699
C -0.00389231 3.55318 0.103515 3.01407 0.316116 2.51157
C 0.528716 2.00908 0.84219 1.5534 1.23799 1.17149
C 1.63379 0.789585 2.10388 0.489215 2.62044 0.288151
C 3.137 0.0870864 3.68954 -0.0105872 4.24537 0.000908772
L 4.24537 0.000908772
Z
M 1.49458 3.93207
C 1.49458 5.92024 3.13443 7.23514 4.90131 6.79458
C 5.41623 6.68508 5.8842 6.42316 6.24164 6.04442
C 6.59908 5.66567 6.82864 5.18846 6.89914 4.67763
C 7.11856 3.51636 6.79521 2.49516 5.79052 1.78123
C 5.39108 1.48151 4.91048 1.30311 4.40833 1.26817
C 3.90619 1.23323 3.40461 1.34328 2.96583 1.58467
C 1.94266 2.09075 1.53616 2.98768 1.49228 3.92981
L 1.49458 3.93207
Z"/>
<path id="path9_fill" d="
M 4.78412 4.87926
L 6.14912 6.56242
C 6.22996 6.66183 6.31311 6.75898 6.38009 6.86065
C 6.48747 6.98119 6.54663 7.13567 6.54663 7.29556
C 6.54663 7.45545 6.48747 7.60994 6.38009 7.73048
C 6.26099 7.84722 6.10557 7.92191 5.93832 7.94277
C 5.77106 7.96363 5.60147 7.92948 5.45623 7.8457
C 5.33843 7.77423 5.23636 7.68053 5.15598 7.57007
C 4.55778 6.8245 3.95496 6.0812 3.36369 5.33111
C 3.31792 5.2652 3.25514 5.21231 3.18172 5.17779
C 3.1083 5.14327 3.02686 5.12835 2.94565 5.13456
C 2.6223 5.14811 2.29895 5.13456 1.9756 5.13456
C 1.89896 5.12738 1.82165 5.13726 1.74947 5.16346
C 1.67728 5.18965 1.61209 5.23148 1.55877 5.28581
C 1.50545 5.34014 1.46539 5.40556 1.44158 5.47718
C 1.41777 5.5488 1.41083 5.62476 1.42129 5.69938
C 1.42129 6.19642 1.42129 6.69346 1.42129 7.19051
C 1.431 7.28504 1.42029 7.38052 1.38984 7.47074
C 1.3594 7.56096 1.3099 7.64392 1.24457 7.71422
C 1.17923 7.78452 1.09951 7.8406 1.01059 7.87882
C 0.921666 7.91704 0.825521 7.93655 0.728393 7.93607
C 0.631112 7.9407 0.533926 7.92521 0.443177 7.89061
C 0.352427 7.85602 0.270153 7.8031 0.20172 7.73531
C 0.133288 7.66751 0.0802351 7.58637 0.0460228 7.49717
C 0.0118104 7.40797 -0.00279276 7.31271 0.00316584 7.21762
C 0.00316584 5.05925 0.00316584 2.90087 0.00316584 0.742503
C -0.00663923 0.642511 0.00639926 0.541637 0.0413381 0.447179
C 0.0762769 0.352721 0.132242 0.26704 0.205186 0.196336
C 0.278129 0.125631 0.366227 0.0716705 0.463105 0.0383574
C 0.559984 0.0050444 0.663221 -0.0067881 0.765348 0.00371595
C 1.80931 0.00371595 2.84403 0.00371595 3.89491 0.00371595
C 4.43322 0.00686004 4.96153 0.146178 5.42851 0.408128
C 6.28539 0.891616 6.62491 1.65074 6.5995 2.58608
C 6.60683 3.04134 6.47336 3.48815 6.21659 3.86793
C 5.95982 4.2477 5.59174 4.54273 5.1606 4.71433
C 5.04742 4.78211 4.92732 4.82277 4.78412 4.87926
Z
M 2.67542 3.9168
C 3.11568 3.93389 3.55662 3.91727 3.99423 3.8671
C 4.72176 3.73606 5.16752 3.23901 5.14905 2.56575
C 5.13057 1.89248 4.74024 1.4361 3.99423 1.31636
C 3.30133 1.20792 2.59227 1.27343 1.89245 1.27569
C 1.82706 1.27725 1.7627 1.29199 1.70339 1.31897
C 1.64408 1.34596 1.5911 1.38462 1.54775 1.43253
C 1.5044 1.48045 1.47161 1.53659 1.45145 1.59746
C 1.43128 1.65833 1.42415 1.72261 1.43052 1.78629
C 1.43052 2.43697 1.43052 3.08764 1.43052 3.73832
C 1.4236 3.76399 1.4238 3.791 1.43111 3.81656
C 1.43842 3.84213 1.45258 3.86532 1.47212 3.88375
C 1.49166 3.90217 1.51588 3.91516 1.54227 3.92137
C 1.56865 3.92757 1.59626 3.92678 1.62222 3.91906
C 1.94557 3.91002 2.28971 3.9168 2.67542 3.9168
Z"/>
<path id="path10_fill" d="
M 0.0170306 3.952
C 0.0170306 2.92177 0.0170306 1.89379 0.0170306 0.86356
C 0.0170306 0.23322 0.247995 0.00277233 0.906242 0.00277233
C 2.39211 0.00277233 3.87875 0.00277233 5.36616 0.00277233
C 5.45378 -0.00529268 5.54216 0.00428394 5.62585 0.0309117
C 5.70954 0.0575395 5.78676 0.100654 5.85277 0.157597
C 5.91877 0.21454 5.97215 0.284104 6.00961 0.362001
C 6.04708 0.439898 6.06783 0.524476 6.0706 0.61052
C 6.07047 0.697533 6.05211 0.783596 6.01667 0.863404
C 5.98123 0.943211 5.92946 1.01507 5.86453 1.07456
C 5.79961 1.13404 5.72293 1.17988 5.6392 1.20926
C 5.55547 1.23864 5.46648 1.25093 5.37771 1.24538
C 5.3038 1.24538 5.22989 1.24538 5.14674 1.24538
L 2.20426 1.24538
C 1.56449 1.24538 1.43977 1.36512 1.43977 1.98191
C 1.43977 2.33436 1.45363 2.6868 1.43977 3.03925
C 1.42822 3.26518 1.50906 3.29003 1.70538 3.28777
C 2.74934 3.28777 3.78406 3.28777 4.83494 3.28777
C 4.99138 3.27445 5.14749 3.31666 5.27472 3.40668
C 5.40196 3.49671 5.4918 3.62853 5.52783 3.77804
C 5.55105 3.87082 5.5515 3.96767 5.52914 4.06065
C 5.50678 4.15364 5.46225 4.24013 5.39918 4.31306
C 5.33611 4.38599 5.2563 4.44329 5.16626 4.48027
C 5.07623 4.51726 4.97852 4.53288 4.88113 4.52586
C 3.95728 4.52586 3.03342 4.52586 2.10957 4.52586
C 1.59683 4.52586 1.43284 4.68853 1.43284 5.20365
C 1.43284 5.58321 1.4467 5.96277 1.43284 6.33329
C 1.42129 6.55922 1.47441 6.65185 1.74002 6.64959
C 2.95951 6.63378 4.17669 6.64959 5.39618 6.64959
C 5.89738 6.64959 6.21149 7.0043 6.08908 7.42453
C 6.05976 7.55245 5.98688 7.66684 5.88239 7.74894
C 5.7779 7.83104 5.648 7.87597 5.51398 7.87638
C 3.89877 7.87638 2.28202 7.87638 0.66373 7.87638
C 0.499579 7.87614 0.341665 7.81485 0.222004 7.70493
C 0.102344 7.59501 0.0298926 7.44469 0.0193402 7.28445
C -0.0060658 7.02463 0.000863118 6.76256 0.000863118 6.50048
C 0.0116414 5.65099 0.0170306 4.8015 0.0170306 3.952
Z"/>
<path id="path11_fill" d="
M 6.09979 3.8749
C 6.52938 3.60379 6.92895 3.35075 7.32852 3.09319
C 7.4671 3.00282 7.60568 2.92374 7.74888 3.06382
C 7.89207 3.20389 7.81355 3.34171 7.72578 3.47953
C 7.47634 3.86812 7.22921 4.25672 6.95898 4.67921
L 8.60806 4.82832
L 10.6221 4.99777
C 10.6636 4.99222 10.7059 4.99554 10.7461 5.00749
C 10.7862 5.01943 10.8233 5.03973 10.8546 5.06698
C 10.886 5.09423 10.911 5.1278 10.9278 5.16538
C 10.9447 5.20296 10.9531 5.24366 10.9523 5.2847
C 10.9523 5.479 10.7884 5.51062 10.6198 5.53774
L 7.18301 5.92859
C 7.11908 5.94025 7.05586 5.95533 6.99362 5.97378
C 7.26847 6.36238 7.52946 6.73064 7.79045 7.10342
C 7.83937 7.14541 7.87351 7.20141 7.88802 7.26347
C 7.90253 7.32553 7.89668 7.39048 7.87129 7.44909
C 7.85315 7.48616 7.8265 7.51863 7.79342 7.54396
C 7.76033 7.56929 7.72171 7.5868 7.68056 7.59511
C 7.63942 7.60342 7.59687 7.60232 7.55623 7.59188
C 7.5156 7.58144 7.47798 7.56196 7.44631 7.53495
C 7.09063 7.32709 6.73032 7.12601 6.37926 6.91138
C 6.21065 6.80746 6.14829 6.79842 6.12751 7.03338
C 6.03281 8.14947 5.91733 9.2633 5.8134 10.3771
C 5.79723 10.5466 5.75796 10.6934 5.55472 10.6934
C 5.35147 10.6934 5.30296 10.5511 5.28449 10.3816
C 5.1436 9.20682 5.0004 8.03425 4.85027 6.81197
L 4.19203 7.21187
C 3.97261 7.34517 3.75319 7.47846 3.53609 7.61628
C 3.48634 7.66457 3.41909 7.69166 3.34901 7.69166
C 3.27892 7.69166 3.21168 7.66457 3.16193 7.61628
C 3.10987 7.56397 3.08073 7.49385 3.08073 7.42085
C 3.08073 7.34785 3.10987 7.27773 3.16193 7.22542
C 3.40675 6.86394 3.64926 6.5017 3.88946 6.13871
C 3.91487 6.10256 3.93335 6.06189 3.9703 5.99411
L 1.92396 5.81337
C 1.39043 5.76592 0.856903 5.71848 0.323376 5.67555
C 0.150153 5.662 -0.00228373 5.61229 2.59102e-05 5.41799
C 0.00195409 5.37952 0.0119739 5.34184 0.0294593 5.30732
C 0.0469446 5.27281 0.0715197 5.24219 0.101649 5.21738
C 0.131778 5.19257 0.166814 5.17411 0.204567 5.16315
C 0.24232 5.15218 0.281979 5.14895 0.321066 5.15366
C 1.41122 5.03166 2.50137 4.90288 3.59152 4.77636
C 3.70007 4.7628 3.80863 4.74473 3.96106 4.72213
L 3.08571 3.45016
C 3.0464 3.41188 3.01659 3.3653 2.99857 3.31399
C 2.98055 3.26268 2.97481 3.20801 2.98177 3.15419
C 2.99409 3.11052 3.01767 3.07067 3.05025 3.03848
C 3.08284 3.00629 3.12334 2.98283 3.16786 2.97036
C 3.21238 2.95788 3.25943 2.95681 3.3045 2.96724
C 3.34957 2.97767 3.39114 2.99926 3.42523 3.02993
C 3.87099 3.30104 4.30982 3.58119 4.77637 3.87038
C 4.84458 3.49716 4.88548 3.11966 4.89878 2.74074
C 4.98654 1.93192 5.05352 1.12309 5.12974 0.314267
C 5.1436 0.14482 5.18286 0.00700365 5.39073 0.000225794
C 5.5986 -0.00655206 5.6471 0.140302 5.66789 0.300711
C 5.80878 1.47554 5.94966 2.64811 6.09979 3.8749
Z"/>
<path id="path12_fill" d="
M 3.09499 0.00343561
C 3.96867 -0.00850625 4.82578 0.237118 5.55476 0.708333
C 5.63267 0.750805 5.70113 0.80807 5.75611 0.87677
C 5.81109 0.945469 5.85149 1.02422 5.87494 1.1084
C 5.89839 1.19258 5.90442 1.28049 5.89267 1.36697
C 5.88092 1.45346 5.85162 1.53678 5.80651 1.61205
C 5.75865 1.68699 5.69589 1.75177 5.62194 1.80253
C 5.548 1.85329 5.46438 1.889 5.37606 1.90754
C 5.28774 1.92609 5.19651 1.92709 5.10778 1.91048
C 5.01905 1.89387 4.93464 1.86 4.85956 1.81086
C 4.36427 1.49261 3.79933 1.29293 3.21048 1.22797
C 2.88793 1.19173 2.56131 1.23926 2.26352 1.36579
C 2.10278 1.42505 1.96342 1.52927 1.8628 1.66546
C 1.76218 1.80165 1.70475 1.96379 1.69766 2.13168
C 1.68216 2.30378 1.72246 2.47628 1.81283 2.62471
C 1.90321 2.77314 2.03908 2.88995 2.20116 2.95858
C 2.66205 3.1633 3.1457 3.31494 3.64238 3.41044
C 4.12523 3.5262 4.5955 3.68736 5.04664 3.89167
C 6.68418 4.64627 6.43242 6.80163 5.3007 7.54493
C 4.52697 8.05553 3.68395 8.14816 2.78319 8.06683
C 1.90628 7.9851 1.06831 7.67283 0.35807 7.16311
C -0.0160918 6.90104 -0.103858 6.52148 0.127106 6.20518
C 0.184626 6.12785 0.258224 6.0633 0.343065 6.01577
C 0.427905 5.96825 0.522066 5.93883 0.619359 5.92944
C 0.716653 5.92005 0.814876 5.93091 0.907574 5.9613
C 1.00027 5.99169 1.08535 6.04092 1.15721 6.10577
C 1.50959 6.38722 1.91569 6.59728 2.35186 6.72373
C 2.78803 6.85018 3.24556 6.89048 3.69781 6.8423
C 3.94656 6.81975 4.18518 6.73494 4.3907 6.59603
C 4.51901 6.51431 4.6235 6.40148 4.69401 6.26854
C 4.76453 6.13559 4.79865 5.98706 4.79307 5.83738
C 4.78749 5.68771 4.74239 5.542 4.66217 5.41443
C 4.58194 5.28687 4.46932 5.18179 4.33527 5.10942
C 3.85659 4.87597 3.34646 4.71014 2.82015 4.6169
C 2.37365 4.50571 1.93598 4.363 1.51058 4.18989
C -0.152361 3.51211 -0.0368785 1.31382 1.21495 0.500479
C 1.77314 0.146705 2.43061 -0.0271159 3.09499 0.00343561
L 3.09499 0.00343561
Z"/>
<path id="path13_fill" d="
M 2.37409 4.90791
C 2.37409 6.12792 2.45262 7.34793 2.3279 8.56343
C 2.31404 8.69899 2.29325 8.83229 2.27247 8.96558
C 2.17777 9.54396 1.99069 9.70437 1.3948 9.71341
C 1.21958 9.71329 1.04504 9.69205 0.875135 9.65015
C 0.668081 9.6166 0.478874 9.51509 0.338661 9.36233
C 0.198448 9.20957 0.115586 9.01466 0.103715 8.80969
C 0.0142794 8.18264 -0.017413 7.54901 0.00901992 6.91641
C 0.0783091 5.09317 0.142979 3.26992 0.385491 1.45797
C 0.427648 1.12642 0.505055 0.800065 0.616455 0.484222
C 0.65226 0.356614 0.726468 0.242488 0.829438 0.15667
C 0.932409 0.0708519 1.05938 0.0173079 1.19387 0.00299381
C 1.45716 -0.0263769 1.60036 0.165662 1.74818 0.346405
C 2.12522 0.809704 2.32387 1.38786 2.30942 1.97987
C 2.30942 2.95588 2.30942 3.93189 2.30942 4.91694
L 2.38102 4.91694
L 2.37409 4.90791
Z"/>
<path id="path14_fill" d="
M 4.0419 4.5569
C 4.0419 5.42446 4.0419 6.29203 4.0419 7.1596
C 4.0419 7.62727 3.76936 7.92549 3.34901 7.93227
C 2.92865 7.93905 2.61454 7.63857 2.61454 7.16186
C 2.61454 5.41769 2.61454 3.67427 2.61454 1.93161
C 2.61454 1.43457 2.46211 1.28319 1.95629 1.28093
C 1.54056 1.28093 1.12482 1.28093 0.709087 1.28093
C 0.618976 1.2881 0.528323 1.27696 0.44282 1.24822
C 0.357317 1.21949 0.278811 1.17377 0.212229 1.11394
C 0.145646 1.05412 0.0924264 0.981471 0.0559094 0.900568
C 0.0193923 0.819666 0.000366833 0.732252 2.71734e-05 0.643815
C -0.000790669 0.556233 0.0168607 0.469427 0.0518789 0.388818
C 0.0868971 0.308209 0.13853 0.235528 0.203553 0.175315
C 0.268576 0.115102 0.345592 0.0686506 0.429791 0.0388608
C 0.513991 0.00907113 0.603565 -0.00341658 0.69292 0.00217764
C 2.44825 0.00217764 4.20281 0.00217764 5.95659 0.00217764
C 6.04615 -0.00514921 6.13627 0.00606105 6.2211 0.0350781
C 6.30593 0.0640952 6.38356 0.110268 6.44893 0.170589
C 6.5143 0.23091 6.56594 0.304025 6.6005 0.385172
C 6.63505 0.466319 6.65175 0.553677 6.64949 0.641556
C 6.65138 0.729336 6.63445 0.81653 6.59977 0.897511
C 6.56509 0.978493 6.51343 1.05146 6.44814 1.11171
C 6.38285 1.17196 6.30537 1.21815 6.22071 1.24729
C 6.13604 1.27644 6.04607 1.2879 5.95659 1.28093
C 5.53162 1.28093 5.10665 1.28093 4.68167 1.28093
C 4.21974 1.28093 4.0419 1.45716 4.0419 1.90224
C 4.0419 2.78637 4.0419 3.67126 4.0419 4.5569
Z"/>
<path id="path15_fill" d="
M 1.77611 0.87275
C 1.77491 1.1005 1.68221 1.31866 1.518 1.48013
C 1.3538 1.6416 1.13127 1.73343 0.89845 1.7358
C 0.660516 1.73344 0.433044 1.63977 0.265006 1.47498
C 0.0969688 1.31018 0.00180413 1.08743 0 0.854676
C 0.00206208 0.738878 0.0277441 0.624648 0.0755394 0.518689
C 0.123335 0.412729 0.192281 0.317173 0.278333 0.237626
C 0.364386 0.15808 0.465811 0.0961442 0.576661 0.0554534
C 0.68751 0.0147626 0.80555 -0.00386425 0.923856 0.00066562
C 1.03859 0.00241293 1.15183 0.0264462 1.257 0.0713693
C 1.36216 0.116292 1.45715 0.18121 1.53644 0.262349
C 1.61574 0.343489 1.67776 0.439234 1.7189 0.544021
C 1.76005 0.648808 1.77949 0.760548 1.77611 0.87275
L 1.77611 0.87275
Z"/>
<path id="path16_fill" d="
M 1.77612 0.869838
C 1.77764 0.982638 1.75625 1.09461 1.71318 1.19926
C 1.67011 1.30391 1.60621 1.39914 1.5252 1.47943
C 1.44419 1.55973 1.34769 1.62348 1.24128 1.66699
C 1.13488 1.7105 1.0207 1.7329 0.90538 1.73289
C 0.787723 1.73468 0.670868 1.71367 0.561553 1.67107
C 0.452237 1.62847 0.352624 1.56512 0.268457 1.48468
C 0.184291 1.40424 0.117237 1.3083 0.0711612 1.20238
C 0.0250855 1.09647 0.000900269 0.98268 0 0.867579
C 0.00424926 0.635259 0.1019 0.413931 0.271798 0.251544
C 0.441695 0.0891562 0.670157 -0.0012134 0.90769 1.23075e-05
C 1.14048 0.00358218 1.36239 0.0970146 1.52506 0.259947
C 1.68773 0.422879 1.77797 0.642102 1.77612 0.869838
L 1.77612 0.869838
Z"/>
<path id="path17_fill" d="
M 1.44122 2.82863
C 1.365 2.53492 1.27723 2.24573 1.21025 1.94976
C 1.20296 1.88396 1.17245 1.8227 1.12397 1.77651
C 1.0755 1.73033 1.01208 1.70212 0.944643 1.69672
C 0.62192 1.64233 0.305495 1.55681 0 1.44142
C 0.367233 1.35331 0.655938 1.27424 0.949262 1.2155
C 1.01748 1.20921 1.0812 1.1794 1.12901 1.13139
C 1.17682 1.08338 1.20562 1.02029 1.21025 0.953419
C 1.26568 0.657452 1.35345 0.368264 1.44122 0
C 1.56644 0.313995 1.65929 0.639442 1.71837 0.971493
C 1.72672 1.0329 1.75579 1.08981 1.80099 1.1332
C 1.84618 1.17659 1.9049 1.20396 1.96781 1.21098
C 2.26519 1.27028 2.55897 1.3457 2.84779 1.43691
C 2.57671 1.55761 2.28993 1.64124 1.99553 1.68543
C 1.92305 1.69045 1.85473 1.72044 1.80272 1.77008
C 1.7507 1.81972 1.71836 1.88578 1.71144 1.95654
C 1.65832 2.24799 1.56825 2.53266 1.49434 2.81959
L 1.44122 2.81959
L 1.44122 2.82863
Z"/>
<path id="path18_fill" d="
M 2.85933 1.41431
C 2.59372 1.47757 2.33042 1.55665 2.0625 1.60183
C 1.97266 1.60535 1.88721 1.64079 1.82216 1.70151
C 1.75711 1.76223 1.71693 1.84407 1.70913 1.93169
C 1.66308 2.24257 1.57613 2.54633 1.45045 2.8354
C 1.36037 2.46488 1.27954 2.17343 1.21949 1.87747
C 1.21144 1.81173 1.18075 1.75063 1.13248 1.70423
C 1.0842 1.65782 1.02121 1.62888 0.953879 1.62217
C 0.660556 1.56343 0.369542 1.48887 0 1.39624
C 0.304128 1.27406 0.621999 1.1876 0.94695 1.13868
C 1.01853 1.13056 1.08503 1.09844 1.13514 1.04778
C 1.18525 0.997118 1.21587 0.931041 1.2218 0.860788
C 1.28294 0.570013 1.36004 0.282668 1.45276 0
C 1.57874 0.271064 1.66653 0.557594 1.71375 0.851751
C 1.72058 0.926582 1.75422 0.996644 1.80874 1.04956
C 1.86326 1.10248 1.93514 1.13484 2.01169 1.14094
C 2.3004 1.19064 2.58217 1.2765 2.86626 1.34653
L 2.85933 1.41431
Z"/>
<path id="path19_fill" d="
M 1.00238 0.467732
C 1.00071 0.599124 0.947547 0.724877 0.853859 0.819045
C 0.760171 0.913214 0.633106 0.968612 0.498881 0.973812
C 0.367854 0.969848 0.243302 0.917161 0.150608 0.826487
C 0.0579136 0.735813 0.00405227 0.613977 0 0.485806
C 0.000566766 0.358704 0.0518056 0.236833 0.142817 0.146117
C 0.233829 0.0554014 0.357431 0.00299983 0.487332 5.88328e-05
C 0.618242 -0.00191048 0.744876 0.0456253 0.840832 0.132755
C 0.936788 0.219885 0.994659 0.339884 1.00238 0.467732
L 1.00238 0.467732
Z"/>
<path id="path20_fill" d="
M 0.505837 0.978529
C 0.439241 0.979132 0.373189 0.966746 0.311543 0.942095
C 0.249896 0.917443 0.19389 0.88102 0.146797 0.834955
C 0.0997043 0.788889 0.0624695 0.734105 0.0372683 0.673802
C 0.012067 0.6135 -0.000595184 0.548889 2.14879e-05 0.483746
C 0.00120238 0.356653 0.0530258 0.235025 0.144469 0.144733
C 0.235912 0.0544399 0.35976 0.00260699 0.489669 0.000258577
C 0.556291 -0.00184908 0.622682 0.00894482 0.685025 0.0320198
C 0.747368 0.0550947 0.804434 0.0899956 0.852942 0.134716
C 0.90145 0.179437 0.940443 0.233095 0.96768 0.292606
C 0.994917 0.352117 1.00986 0.416307 1.01165 0.481486
C 1.01196 0.546652 0.999098 0.611235 0.973814 0.671526
C 0.948531 0.731816 0.911321 0.786628 0.864322 0.832812
C 0.817322 0.878997 0.761458 0.915644 0.699939 0.940651
C 0.63842 0.965657 0.572456 0.97853 0.505837 0.978529
L 0.505837 0.978529
Z"/>
<path id="path21_fill" d="
M 0.494455 6.42128e-15
C 0.629099 0.00172399 0.757803 0.0545051 0.853448 0.147223
C 0.949094 0.239941 1.00421 0.365355 1.00719 0.497043
C 1.0066 0.562303 0.992753 0.626796 0.966458 0.686775
C 0.940162 0.746755 0.901943 0.801024 0.854021 0.84643
C 0.806099 0.891836 0.74943 0.927473 0.687307 0.951269
C 0.625183 0.975066 0.558845 0.986548 0.492146 0.985049
C 0.427676 0.985951 0.36367 0.974269 0.303869 0.950688
C 0.244069 0.927107 0.189675 0.8921 0.143869 0.847713
C 0.0980631 0.803326 0.0617638 0.750451 0.0370942 0.692179
C 0.0124246 0.633908 -0.000120231 0.571409 0.00019339 0.508339
C -0.00164931 0.443172 0.00969165 0.37829 0.0335645 0.317424
C 0.0574373 0.256558 0.0933714 0.200906 0.139302 0.153668
C 0.185232 0.106429 0.240252 0.0685356 0.301202 0.0421642
C 0.362151 0.0157927 0.427827 0.00146349 0.494455 0
L 0.494455 6.42128e-15
Z"/>
<path id="path22_fill" d="
M 0.492621 0.000130603
C 0.559129 -0.00136785 0.625281 0.0100407 0.687254 0.0336971
C 0.749228 0.0573535 0.805795 0.0927886 0.853686 0.137955
C 0.901578 0.183122 0.939845 0.237124 0.966276 0.296842
C 0.992706 0.356559 1.00678 0.420809 1.00768 0.485877
C 1.00354 0.616988 0.947983 0.741513 0.852519 0.833633
C 0.757055 0.925753 0.629009 0.978401 0.494931 0.98066
C 0.365543 0.977834 0.242185 0.9266 0.150243 0.837504
C 0.0583003 0.748407 0.00476867 0.628226 0.000664225 0.501692
C -0.00281093 0.436648 0.00737689 0.371598 0.030599 0.310554
C 0.0538212 0.249511 0.089585 0.193771 0.135684 0.146772
C 0.181782 0.0997737 0.237238 0.0625143 0.298628 0.0372932
C 0.360018 0.0120722 0.42604 -0.000575537 0.492621 0.000130603
L 0.492621 0.000130603
Z"/>
<path id="path23_fill" d="
M 0.487773 0.981903
C 0.421238 0.979869 0.355776 0.96495 0.295174 0.938007
C 0.234572 0.911065 0.180033 0.872635 0.134712 0.824941
C 0.0893918 0.777247 0.0541894 0.721235 0.0311418 0.660147
C 0.00809417 0.599058 -0.00234118 0.534105 0.0004395 0.469046
C 0.00181859 0.403942 0.0167544 0.339797 0.0443343 0.28053
C 0.0719142 0.221264 0.111559 0.168121 0.160845 0.124349
C 0.210132 0.0805779 0.268025 0.0470971 0.330987 0.0259529
C 0.39395 0.0048087 0.460658 -0.00355467 0.527036 0.00137387
C 0.656508 0.00608788 0.778911 0.0603423 0.867896 0.152458
C 0.956881 0.244574 1.00533 0.367185 1.00282 0.493898
C 1.00039 0.625331 0.944833 0.75047 0.848306 0.841929
C 0.751779 0.933388 0.622144 0.983717 0.487773 0.981903
Z"/>
</defs>
</svg>
