<svg width="139" height="41" viewBox="0 0 139 41" version="2.0" xmlns="http://www.w3.org/2000/svg" xmlns:xlink="http://www.w3.org/1999/xlink" xmlns:figma="http://www.figma.com/figma/ns">
<title>play-store 2</title>
<desc>Created using Figma 0.90</desc>
<g id="Canvas" transform="translate(1230 -2627)" figma:type="canvas">
<g id="play-store 2" style="mix-blend-mode:normal;" figma:type="group">
<g id="Canvas" style="mix-blend-mode:normal;" figma:type="group">
<g id="play-store" style="mix-blend-mode:normal;isolation:isolate;" figma:type="group">
<g id="Vector" style="mix-blend-mode:normal;isolation:isolate;" figma:type="group">
<g id="Vector" style="mix-blend-mode:normal;isolation:isolate;" figma:type="vector">
<use xlink:href="#path0_fill" transform="translate(-1230 2627.26)" style="mix-blend-mode:normal;"/>
</g>
</g>
<g id="Group" style="mix-blend-mode:normal;isolation:isolate;" figma:type="group">
<g id="Vector" style="mix-blend-mode:normal;isolation:isolate;" figma:type="group">
<g id="Vector" style="mix-blend-mode:normal;isolation:isolate;" figma:type="vector">
<use xlink:href="#path1_fill" transform="translate(-1187.1 2644.25)" fill="#FFFFFF" style="mix-blend-mode:normal;"/>
</g>
</g>
<g id="Vector" style="mix-blend-mode:normal;isolation:isolate;" figma:type="group">
<g id="Vector" style="mix-blend-mode:normal;isolation:isolate;" figma:type="vector">
<use xlink:href="#path2_fill" transform="translate(-1217.99 2634.73)" fill="url(#paint2_linear)" style="mix-blend-mode:normal;"/>
</g>
</g>
<g id="Vector" style="mix-blend-mode:normal;isolation:isolate;" figma:type="group">
<g id="Vector" style="mix-blend-mode:normal;isolation:isolate;" figma:type="vector">
<use xlink:href="#path3_fill" transform="translate(-1205.07 2642.98)" fill="url(#paint3_linear)" style="mix-blend-mode:normal;"/>
</g>
</g>
<g id="Vector" style="mix-blend-mode:normal;isolation:isolate;" figma:type="group">
<g id="Vector" style="mix-blend-mode:normal;isolation:isolate;" figma:type="vector">
<use xlink:href="#path4_fill" transform="translate(-1217.53 2647.26)" fill="url(#paint4_linear)" style="mix-blend-mode:normal;"/>
</g>
</g>
<g id="Vector" style="mix-blend-mode:normal;isolation:isolate;" figma:type="group">
<g id="Vector" style="mix-blend-mode:normal;isolation:isolate;" figma:type="vector">
<use xlink:href="#path5_fill" transform="translate(-1217.54 2634.39)" fill="url(#paint5_linear)" style="mix-blend-mode:normal;"/>
</g>
</g>
<g id="Vector" style="mix-blend-mode:normal;isolation:isolate;" opacity="0.2" figma:type="group">
<g id="Vector" style="mix-blend-mode:normal;isolation:isolate;" opacity="0.2" figma:type="vector">
<use xlink:href="#path6_fill" transform="translate(-1217.53 2651.39)" style="mix-blend-mode:normal;"/>
</g>
</g>
<g id="Vector" style="mix-blend-mode:normal;isolation:isolate;" opacity="0.12" figma:type="group">
<g id="Vector" style="mix-blend-mode:normal;isolation:isolate;" opacity="0.12" figma:type="vector">
<use xlink:href="#path7_fill" transform="translate(-1217.99 2658.18)" style="mix-blend-mode:normal;"/>
</g>
</g>
<g id="Vector" style="mix-blend-mode:normal;isolation:isolate;" opacity="0.12" figma:type="group">
<g id="Vector" style="mix-blend-mode:normal;isolation:isolate;" opacity="0.12" figma:type="vector">
<use xlink:href="#path8_fill" transform="translate(-1200.97 2647.26)" style="mix-blend-mode:normal;"/>
</g>
</g>
<g id="Vector" style="mix-blend-mode:normal;isolation:isolate;" opacity="0.25" figma:type="group">
<g id="Vector" style="mix-blend-mode:normal;isolation:isolate;" opacity="0.25" figma:type="vector">
<use xlink:href="#path9_fill" transform="translate(-1218 2634.41)" fill="#FFFFFF" style="mix-blend-mode:normal;"/>
</g>
</g>
<g id="Asset 1 2" style="mix-blend-mode:normal;" figma:type="group">
<g id="Layer 2" style="mix-blend-mode:normal;" figma:type="group">
<g id="Layer 1" style="mix-blend-mode:normal;" figma:type="group">
<g id="Vector" style="mix-blend-mode:normal;" figma:type="vector">
<use xlink:href="#path10_fill" transform="translate(-1187 2634.14)" fill="#FFFFFF" style="mix-blend-mode:normal;"/>
</g>
<g id="Vector (Stroke)" style="mix-blend-mode:normal;" figma:type="vector">
<use xlink:href="#path11_fill" transform="translate(-1187.14 2634.04)" fill="#FFFFFF" style="mix-blend-mode:normal;"/>
<use xlink:href="#path12_fill" transform="translate(-1187.14 2634.04)" fill="#FFFFFF" style="mix-blend-mode:normal;"/>
</g>
<g id="Vector" style="mix-blend-mode:normal;" figma:type="vector">
<use xlink:href="#path13_fill" transform="translate(-1181.72 2634.14)" fill="#FFFFFF" style="mix-blend-mode:normal;"/>
</g>
<g id="Vector (Stroke)" style="mix-blend-mode:normal;" figma:type="vector">
<use xlink:href="#path14_fill" transform="translate(-1181.86 2634.04)" fill="#FFFFFF" style="mix-blend-mode:normal;"/>
</g>
<g id="Vector" style="mix-blend-mode:normal;" figma:type="vector">
<use xlink:href="#path15_fill" transform="translate(-1176.8 2634.14)" fill="#FFFFFF" style="mix-blend-mode:normal;"/>
</g>
<g id="Vector (Stroke)" style="mix-blend-mode:normal;" figma:type="vector">
<use xlink:href="#path16_fill" transform="translate(-1176.94 2634.04)" fill="#FFFFFF" style="mix-blend-mode:normal;"/>
<use xlink:href="#path17_fill" transform="translate(-1176.94 2634.04)" fill="#FFFFFF" style="mix-blend-mode:normal;"/>
</g>
<g id="Vector" style="mix-blend-mode:normal;" figma:type="vector">
<use xlink:href="#path18_fill" transform="translate(-1170.54 2634.14)" fill="#FFFFFF" style="mix-blend-mode:normal;"/>
</g>
<g id="Vector (Stroke)" style="mix-blend-mode:normal;" figma:type="vector">
<use xlink:href="#path19_fill" transform="translate(-1170.64 2634.04)" fill="#FFFFFF" style="mix-blend-mode:normal;"/>
</g>
<g id="Vector" style="mix-blend-mode:normal;" figma:type="vector">
<use xlink:href="#path20_fill" transform="translate(-1168.44 2634.14)" fill="#FFFFFF" style="mix-blend-mode:normal;"/>
</g>
<g id="Vector (Stroke)" style="mix-blend-mode:normal;" figma:type="vector">
<use xlink:href="#path21_fill" transform="translate(-1168.54 2634.04)" fill="#FFFFFF" style="mix-blend-mode:normal;"/>
</g>
<g id="Vector" style="mix-blend-mode:normal;" figma:type="vector">
<use xlink:href="#path22_fill" transform="translate(-1164.48 2634.14)" fill="#FFFFFF" style="mix-blend-mode:normal;"/>
</g>
<g id="Vector (Stroke)" style="mix-blend-mode:normal;" figma:type="vector">
<use xlink:href="#path23_fill" transform="translate(-1164.63 2634.04)" fill="#FFFFFF" style="mix-blend-mode:normal;"/>
<use xlink:href="#path24_fill" transform="translate(-1164.63 2634.04)" fill="#FFFFFF" style="mix-blend-mode:normal;"/>
</g>
<g id="Vector" style="mix-blend-mode:normal;" figma:type="vector">
<use xlink:href="#path25_fill" transform="translate(-1158.23 2634.14)" fill="#FFFFFF" style="mix-blend-mode:normal;"/>
</g>
<g id="Vector (Stroke)" style="mix-blend-mode:normal;" figma:type="vector">
<use xlink:href="#path26_fill" transform="translate(-1158.33 2634.04)" fill="#FFFFFF" style="mix-blend-mode:normal;"/>
<use xlink:href="#path27_fill" transform="translate(-1158.33 2634.04)" fill="#FFFFFF" style="mix-blend-mode:normal;"/>
<use xlink:href="#path28_fill" transform="translate(-1158.33 2634.04)" fill="#FFFFFF" style="mix-blend-mode:normal;"/>
<use xlink:href="#path29_fill" transform="translate(-1158.33 2634.04)" fill="#FFFFFF" style="mix-blend-mode:normal;"/>
<use xlink:href="#path30_fill" transform="translate(-1158.33 2634.04)" fill="#FFFFFF" style="mix-blend-mode:normal;"/>
<use xlink:href="#path31_fill" transform="translate(-1158.33 2634.04)" fill="#FFFFFF" style="mix-blend-mode:normal;"/>
<use xlink:href="#path32_fill" transform="translate(-1158.33 2634.04)" fill="#FFFFFF" style="mix-blend-mode:normal;"/>
</g>
<g id="Vector" style="mix-blend-mode:normal;" figma:type="vector">
<use xlink:href="#path33_fill" transform="translate(-1152.99 2634.14)" fill="#FFFFFF" style="mix-blend-mode:normal;"/>
</g>
<g id="Vector (Stroke)" style="mix-blend-mode:normal;" figma:type="vector">
<use xlink:href="#path34_fill" transform="translate(-1153.09 2634.04)" fill="#FFFFFF" style="mix-blend-mode:normal;"/>
</g>
<g id="Vector" style="mix-blend-mode:normal;" figma:type="vector">
<use xlink:href="#path35_fill" transform="translate(-1148.75 2634.14)" fill="#FFFFFF" style="mix-blend-mode:normal;"/>
</g>
<g id="Vector (Stroke)" style="mix-blend-mode:normal;" figma:type="vector">
<use xlink:href="#path36_fill" transform="translate(-1148.85 2634.04)" fill="#FFFFFF" style="mix-blend-mode:normal;"/>
</g>
<g id="Vector" style="mix-blend-mode:normal;" figma:type="vector">
<use xlink:href="#path37_fill" transform="translate(-1142.48 2634)" fill="#FFFFFF" style="mix-blend-mode:normal;"/>
</g>
<g id="Vector (Stroke)" style="mix-blend-mode:normal;" figma:type="vector">
<use xlink:href="#path38_fill" transform="translate(-1142.57 2633.9)" fill="#FFFFFF" style="mix-blend-mode:normal;"/>
<use xlink:href="#path39_fill" transform="translate(-1142.57 2633.9)" fill="#FFFFFF" style="mix-blend-mode:normal;"/>
</g>
<g id="Vector" style="mix-blend-mode:normal;" figma:type="vector">
<use xlink:href="#path40_fill" transform="translate(-1135.11 2634.14)" fill="#FFFFFF" style="mix-blend-mode:normal;"/>
</g>
<g id="Vector (Stroke)" style="mix-blend-mode:normal;" figma:type="vector">
<use xlink:href="#path41_fill" transform="translate(-1135.21 2634.04)" fill="#FFFFFF" style="mix-blend-mode:normal;"/>
</g>
</g>
</g>
</g>
</g>
</g>
</g>
</g>
</g>
<defs>
<linearGradient id="paint2_linear" x1="0" y1="0" x2="1" y2="0" gradientUnits="userSpaceOnUse" gradientTransform="matrix(-16.78 16.78 16.78 16.78 -4.95642 -15.54)">
<stop offset="0" stop-color="#00A0FF"/>
<stop offset="0.01" stop-color="#00A1FF"/>
<stop offset="0.26" stop-color="#00BEFF"/>
<stop offset="0.51" stop-color="#00D2FF"/>
<stop offset="0.76" stop-color="#00DFFF"/>
<stop offset="1" stop-color="#00E3FF"/>
</linearGradient>
<linearGradient id="paint3_linear" x1="0" y1="0" x2="1" y2="0" gradientUnits="userSpaceOnUse" gradientTransform="matrix(-24.19 0 0 24.19 10.93 -19.91)">
<stop offset="0" stop-color="#FFE000"/>
<stop offset="0.41" stop-color="#FFBD00"/>
<stop offset="0.78" stop-color="#FFA500"/>
<stop offset="1" stop-color="#FF9C00"/>
</linearGradient>
<linearGradient id="paint4_linear" x1="0" y1="0" x2="1" y2="0" gradientUnits="userSpaceOnUse" gradientTransform="matrix(-22.76 22.75 22.75 22.76 -8.36 -20.46)">
<stop offset="0" stop-color="#FF3A44"/>
<stop offset="1" stop-color="#C31162"/>
</linearGradient>
<linearGradient id="paint5_linear" x1="0" y1="0" x2="1" y2="0" gradientUnits="userSpaceOnUse" gradientTransform="matrix(10.16 10.16 10.16 -10.16 -13.29 3.20577)">
<stop offset="0" stop-color="#32A071"/>
<stop offset="0.07" stop-color="#2DA771"/>
<stop offset="0.48" stop-color="#15CF74"/>
<stop offset="0.8" stop-color="#06E775"/>
<stop offset="1" stop-color="#00F076"/>
</linearGradient>
<path id="path0_fill" d="M 5.14815 0L 133.852 0C 136.695 0 139 2.23858 139 5L 139 35C 139 37.7614 136.695 40 133.852 40L 5.14815 40C 2.3049 40 0 37.7614 0 35L 0 5C 0 2.23858 2.3049 0 5.14815 0Z"/>
<path id="path1_fill" d="M 27.2671 4.755C 26.4273 4.75895 25.6076 5.01156 24.9114 5.48096C 24.2151 5.95035 23.6735 6.61548 23.3549 7.39241C 23.0362 8.16933 22.9549 9.02323 23.1212 9.84633C 23.2874 10.6694 23.6937 11.4248 24.2889 12.0172C 24.8841 12.6096 25.6414 13.0124 26.4652 13.1747C 27.2891 13.3371 28.1426 13.2518 28.918 12.9295C 29.6935 12.6073 30.356 12.0626 30.8222 11.3641C 31.2883 10.6656 31.537 9.84472 31.5371 9.005C 31.5452 8.44294 31.4402 7.88498 31.2282 7.36434C 31.0163 6.84371 30.7017 6.37105 30.3033 5.9745C 29.9049 5.57796 29.4308 5.26563 28.9091 5.05612C 28.3875 4.84662 27.8291 4.74421 27.2671 4.755ZM 27.2671 11.585C 26.7506 11.6211 26.2353 11.501 25.788 11.2404C 25.3407 10.9797 24.9822 10.5906 24.7591 10.1234C 24.5359 9.65632 24.4584 9.13288 24.5367 8.62115C 24.615 8.10942 24.8454 7.63308 25.198 7.25404C 25.5506 6.875 26.0091 6.6108 26.5138 6.49578C 27.0186 6.38075 27.5462 6.42023 28.0282 6.60908C 28.5102 6.79793 28.9243 7.12742 29.2166 7.5547C 29.5088 7.98199 29.6658 8.48732 29.6671 9.005C 29.6832 9.33301 29.6334 9.66093 29.5208 9.96942C 29.4081 10.2779 29.2349 10.5607 29.0112 10.8012C 28.7875 11.0416 28.5179 11.2349 28.2184 11.3695C 27.9188 11.5041 27.5954 11.5774 27.2671 11.585ZM 17.9571 4.755C 17.1169 4.75698 16.2962 5.00791 15.5986 5.47611C 14.901 5.94431 14.3578 6.60875 14.0377 7.38551C 13.7176 8.16227 13.6348 9.01649 13.7999 9.84025C 13.9651 10.664 14.3706 11.4203 14.9654 12.0137C 15.5601 12.6071 16.3174 13.0109 17.1416 13.1741C 17.9657 13.3372 18.8198 13.2525 19.5958 12.9305C 20.3718 12.6086 21.0349 12.0638 21.5015 11.3651C 21.968 10.6664 22.217 9.84514 22.2171 9.005C 22.2252 8.44294 22.1202 7.88498 21.9082 7.36434C 21.6963 6.84371 21.3817 6.37105 20.9833 5.9745C 20.5849 5.57796 20.1108 5.26563 19.5891 5.05612C 19.0675 4.84662 18.5091 4.74421 17.9471 4.755L 17.9571 4.755ZM 17.9571 11.585C 17.4404 11.6232 16.9242 11.5049 16.4757 11.2456C 16.0272 10.9862 15.6671 10.5979 15.4424 10.1311C 15.2177 9.66429 15.1387 9.14065 15.2157 8.62833C 15.2928 8.11601 15.5223 7.63876 15.8744 7.25869C 16.2264 6.87863 16.6848 6.61337 17.1897 6.49743C 17.6947 6.3815 18.2228 6.42027 18.7054 6.60869C 19.188 6.79712 19.6027 7.12647 19.8955 7.55387C 20.1883 7.98127 20.3456 8.48692 20.3471 9.005C 20.3632 9.33301 20.3134 9.66093 20.2008 9.96942C 20.0881 10.2779 19.9149 10.5607 19.6912 10.8012C 19.4675 11.0416 19.1979 11.2349 18.8984 11.3695C 18.5988 11.5041 18.2754 11.5774 17.9471 11.585L 17.9571 11.585ZM 6.86705 6.065L 6.86705 7.865L 11.1871 7.865C 11.1193 8.7128 10.7669 9.51279 10.1871 10.135C 9.75485 10.5752 9.23528 10.9201 8.66176 11.1475C 8.08825 11.3748 7.47349 11.4796 6.85705 11.455C 5.58401 11.455 4.36311 10.9493 3.46294 10.0491C 2.56276 9.14894 2.05705 7.92804 2.05705 6.655C 2.05705 5.38196 2.56276 4.16106 3.46294 3.26089C 4.36311 2.36071 5.58401 1.855 6.85705 1.855C 8.07485 1.83514 9.25081 2.29905 10.1271 3.145L 11.3971 1.875C 10.8055 1.27603 10.0998 0.801882 9.32166 0.480667C 8.54353 0.159452 7.70884 -0.00229838 6.86705 0.00500028C 5.97805 -0.0295976 5.09121 0.115626 4.25967 0.43197C 3.42814 0.748314 2.66902 1.22927 2.02781 1.84601C 1.38659 2.46275 0.876485 3.20259 0.528043 4.0212C 0.179602 4.8398 -7.10543e-15 5.72032 2.09559e-28 6.61C -7.10543e-15 7.49968 0.179602 8.3802 0.528043 9.1988C 0.876485 10.0174 1.38659 10.7572 2.02781 11.374C 2.66902 11.9907 3.42814 12.4717 4.25967 12.788C 5.09121 13.1044 5.97805 13.2496 6.86705 13.215C 7.723 13.2537 8.57731 13.1086 9.37249 12.7895C 10.1677 12.4704 10.8853 11.9846 11.4771 11.365C 12.5247 10.2139 13.0841 8.70076 13.0371 7.145C 13.0403 6.76599 13.0068 6.38756 12.9371 6.015L 6.86705 6.015L 6.86705 6.065ZM 52.1771 7.465C 51.9163 6.69774 51.4286 6.02778 50.7786 5.54385C 50.1285 5.05991 49.3469 4.78482 48.5371 4.755C 47.99 4.75393 47.4486 4.86507 46.9463 5.08153C 46.4439 5.298 45.9913 5.61521 45.6164 6.01353C 45.2415 6.41186 44.9523 6.88285 44.7667 7.39739C 44.581 7.91192 44.5029 8.45907 44.5371 9.005C 44.5249 9.56391 44.6255 10.1195 44.8329 10.6387C 45.0403 11.1578 45.3502 11.6299 45.7441 12.0266C 46.138 12.4233 46.6078 12.7365 47.1255 12.9476C 47.6432 13.1586 48.1981 13.2632 48.7571 13.255C 49.4566 13.2588 50.1461 13.089 50.7639 12.7609C 51.3817 12.4328 51.9084 11.9566 52.2971 11.375L 50.8471 10.375C 50.6306 10.7358 50.3243 11.0342 49.9579 11.241C 49.5915 11.4479 49.1778 11.5561 48.7571 11.555C 48.3239 11.5715 47.8958 11.4573 47.5284 11.2272C 47.161 10.9972 46.8713 10.6619 46.6971 10.265L 52.3871 7.915L 52.1771 7.465ZM 46.3771 8.885C 46.3568 8.57569 46.3984 8.26545 46.4996 7.97244C 46.6007 7.67943 46.7593 7.40955 46.966 7.17859C 47.1728 6.94764 47.4235 6.76026 47.7036 6.62742C 47.9836 6.49459 48.2874 6.41897 48.5971 6.405C 48.9196 6.38375 49.2413 6.45771 49.5222 6.61771C 49.8031 6.77771 50.0308 7.0167 50.1771 7.305L 46.3771 8.885ZM 41.7571 13.005L 43.6271 13.005L 43.6271 0.505L 41.7571 0.505L 41.7571 13.005ZM 38.6971 5.705L 38.6271 5.705C 38.3452 5.3899 38 5.13792 37.6139 4.96558C 37.2279 4.79325 36.8098 4.70445 36.3871 4.705C 35.2942 4.75799 34.2637 5.22942 33.509 6.02158C 32.7543 6.81374 32.3334 7.8659 32.3334 8.96C 32.3334 10.0541 32.7543 11.1063 33.509 11.8984C 34.2637 12.6906 35.2942 13.162 36.3871 13.215C 36.8108 13.2221 37.231 13.1363 37.618 12.9635C 38.005 12.7907 38.3494 12.5352 38.6271 12.215L 38.6871 12.215L 38.6871 12.905C 38.6871 14.535 37.8171 15.405 36.4171 15.405C 35.9508 15.3941 35.4983 15.2447 35.1172 14.9758C 34.7361 14.7069 34.4436 14.3306 34.2771 13.895L 32.6471 14.575C 32.9539 15.3214 33.4767 15.959 34.1484 16.4063C 34.8201 16.8535 35.6101 17.0898 36.4171 17.085C 38.6071 17.085 40.4171 15.795 40.4171 12.655L 40.4171 5.005L 38.6971 5.005L 38.6971 5.705ZM 36.5571 11.585C 35.912 11.5282 35.3116 11.2317 34.8743 10.7542C 34.437 10.2766 34.1944 9.65255 34.1944 9.005C 34.1944 8.35745 34.437 7.73339 34.8743 7.25583C 35.3116 6.77827 35.912 6.48185 36.5571 6.425C 36.8769 6.44141 37.1902 6.52167 37.4785 6.66104C 37.7668 6.8004 38.0244 6.99607 38.2359 7.2365C 38.4474 7.47693 38.6087 7.75726 38.7103 8.06099C 38.8118 8.36472 38.8515 8.68569 38.8271 9.005C 38.8543 9.32569 38.8163 9.64859 38.7152 9.95415C 38.6141 10.2597 38.4521 10.5416 38.239 10.7828C 38.0259 11.024 37.7661 11.2194 37.4752 11.3573C 37.1844 11.4952 36.8687 11.5726 36.5471 11.585L 36.5571 11.585ZM 60.9371 0.505L 56.4671 0.505L 56.4671 13.005L 58.3371 13.005L 58.3371 8.265L 60.9471 8.265C 61.48 8.3026 62.0151 8.22998 62.5188 8.05169C 63.0225 7.87339 63.484 7.59324 63.8747 7.2287C 64.2654 6.86416 64.5767 6.42305 64.7894 5.93287C 65.002 5.44269 65.1114 4.91395 65.1107 4.37963C 65.1101 3.84531 64.9993 3.31685 64.7854 2.82722C 64.5715 2.33759 64.259 1.89728 63.8674 1.53375C 63.4758 1.17022 63.0135 0.891257 62.5093 0.714261C 62.0052 0.537266 61.47 0.466031 60.9371 0.505ZM 60.9371 6.505L 58.3271 6.505L 58.3271 2.245L 60.9771 2.245C 61.5446 2.245 62.0889 2.47046 62.4903 2.87179C 62.8916 3.27312 63.1171 3.81744 63.1171 4.385C 63.1171 4.95256 62.8916 5.49688 62.4903 5.89821C 62.0889 6.29954 61.5446 6.525 60.9771 6.525L 60.9371 6.505ZM 72.4671 4.705C 71.7863 4.66431 71.1084 4.8234 70.5168 5.16272C 69.9252 5.50205 69.4457 6.00682 69.1371 6.615L 70.7971 7.305C 70.9607 7.00335 71.2085 6.75579 71.5104 6.59245C 71.8122 6.42911 72.155 6.35703 72.4971 6.385C 72.7344 6.35728 72.975 6.3771 73.2046 6.44333C 73.4343 6.50955 73.6484 6.62084 73.8346 6.77071C 74.0208 6.92058 74.1752 7.10602 74.289 7.31622C 74.4027 7.52642 74.4734 7.75717 74.4971 7.995L 74.4971 8.125C 73.8964 7.807 73.2266 7.64213 72.5471 7.645C 70.7571 7.645 68.9471 8.645 68.9471 10.455C 68.9647 10.8409 69.0596 11.2194 69.226 11.5681C 69.3925 11.9167 69.6272 12.2284 69.9162 12.4848C 70.2052 12.7412 70.5427 12.937 70.9087 13.0607C 71.2747 13.1844 71.6618 13.2335 72.0471 13.205C 72.518 13.2388 72.9893 13.1452 73.4116 12.9341C 73.8339 12.723 74.1916 12.402 74.4471 12.005L 74.5071 12.005L 74.5071 13.005L 76.3071 13.005L 76.3071 8.195C 76.3071 6.005 74.6471 4.735 72.5171 4.735L 72.4671 4.705ZM 72.2371 11.555C 71.9038 11.6016 71.5655 11.5172 71.2932 11.3195C 71.021 11.1218 70.8359 10.8263 70.7771 10.495C 70.7771 9.495 71.8371 9.165 72.7771 9.165C 73.3711 9.15034 73.9582 9.29539 74.4771 9.585C 74.4145 10.1264 74.1584 10.627 73.756 10.9945C 73.3536 11.362 72.8319 11.5717 72.2871 11.585L 72.2371 11.555ZM 82.8671 5.005L 80.7271 10.425L 80.6671 10.425L 78.4471 5.005L 76.4471 5.005L 79.7771 12.585L 77.8771 16.795L 79.8271 16.795L 84.9471 5.005L 82.8771 5.005L 82.8671 5.005ZM 66.0571 13.005L 67.9271 13.005L 67.9271 0.505L 66.0571 0.505L 66.0571 13.005Z"/>
<path id="path2_fill" d="M 0.463582 0.07C 0.137647 0.461108 -0.0268641 0.961795 0.00358221 1.47L 0.00358221 23.59C -0.0268641 24.0982 0.137647 24.5989 0.463582 24.99L 0.533582 25.06L 12.9236 12.68L 12.9236 12.38L 0.533582 0L 0.463582 0.07Z"/>
<path id="path3_fill" d="M 4.1 8.56L 0 4.43L 0 4.13L 4.1 0L 4.19 0.05L 9.1 2.84C 10.5 3.63 10.5 4.93 9.1 5.73L 4.21 8.51L 4.1 8.56Z"/>
<path id="path4_fill" d="M 16.68 4.22L 12.46 0L 0 12.46C 0.285362 12.7109 0.649392 12.8541 1.02918 12.8651C 1.40897 12.876 1.78065 12.754 2.08 12.52L 16.69 4.22"/>
<path id="path5_fill" d="M 16.69 8.64577L 2.08 0.345771C 1.78065 0.111785 1.40897 -0.0102772 1.02918 0.0006782C 0.649392 0.0116336 0.285362 0.154918 0 0.405771L 12.47 12.8658L 16.69 8.64577Z"/>
<path id="path6_fill" d="M 16.56 0L 2.07 8.25C 1.78129 8.46586 1.43048 8.5825 1.07 8.5825C 0.709516 8.5825 0.35871 8.46586 0.07 8.25L 0 8.32L 0.07 8.39C 0.358056 8.6074 0.709113 8.72501 1.07 8.72501C 1.43089 8.72501 1.78194 8.6074 2.07 8.39L 16.68 0.09L 16.56 0Z"/>
<path id="path7_fill" d="M 0.463582 1.4C 0.137647 1.00889 -0.0268641 0.508205 0.00358221 0L 0.00358221 0.15C -0.0268641 0.658205 0.137647 1.15889 0.463582 1.55L 0.533582 1.48L 0.463582 1.4Z"/>
<path id="path8_fill" d="M 5 1.3L 0 4.13L 0.09 4.22L 5 1.44C 5.2786 1.30912 5.51775 1.10708 5.69333 0.854255C 5.8689 0.601429 5.97468 0.306767 6 3.55271e-15L 6 0C 5.94376 0.278707 5.82438 0.540812 5.65103 0.766174C 5.47767 0.991536 5.25496 1.17416 5 1.3Z"/>
<path id="path9_fill" d="M 2.54 0.473941L 22.03 11.5539C 22.285 11.6798 22.5077 11.8624 22.681 12.0878C 22.8544 12.3131 22.9738 12.5752 23.03 12.8539C 23.0047 12.5472 22.8989 12.2525 22.7233 11.9997C 22.5478 11.7469 22.3086 11.5448 22.03 11.4139L 2.54 0.333941C 1.14 -0.456059 0 0.203941 0 1.80394L 0 1.95394C 0.03 0.343941 1.15 -0.316059 2.54 0.473941Z"/>
<path id="path10_fill" d="M 0.880417 6.199L 0 6.199L 2.33816 0L 3.24022 0L 5.57838 6.199L 4.69075 6.199L 4.09899 4.52477L 1.48661 4.52477L 0.880417 6.199ZM 2.77115 0.981448L 1.76083 3.77425L 3.81755 3.77425L 2.80723 0.981448L 2.77115 0.981448Z"/>
<path id="path11_fill" d="M 1.70135 4.72477L 4.17287 4.72477L 4.74106 6.33233L 4.76462 6.399L 4.83534 6.399L 5.72297 6.399L 5.86757 6.399L 5.81654 6.26371L 3.47838 0.0647087L 3.45398 0L 3.38482 0L 2.48275 0L 2.41359 0L 2.38919 0.0647087L 0.0510296 6.26371L 0 6.399L 0.144595 6.399L 1.02501 6.399L 1.09516 6.399L 1.11904 6.33305L 1.70135 4.72477ZM 0.954866 6.199L 0.28919 6.199L 2.55191 0.2L 3.31566 0.2L 5.57838 6.199L 4.90606 6.199L 4.33787 4.59144L 4.3143 4.52477L 4.24359 4.52477L 1.6312 4.52477L 1.56105 4.52477L 1.53717 4.59072L 0.954866 6.199Z"/>
<path id="path12_fill" d="M 2.95183 0.981448L 2.91574 0.981448L 2.84558 0.981448L 2.82171 1.04743L 1.81139 3.84023L 1.76291 3.97425L 1.90543 3.97425L 3.96214 3.97425L 4.10466 3.97425L 4.05618 3.84023L 3.04586 1.04743L 3.02199 0.981448L 2.95183 0.981448ZM 2.93378 1.32554L 3.81962 3.77425L 2.04795 3.77425L 2.93378 1.32554Z"/>
<path id="path13_fill" d="M 3.00929 6.199L 2.17939 6.199L 0 0L 0.880417 0L 2.5763 5.05157L 4.34435 0L 5.22477 0L 3.00929 6.199Z"/>
<path id="path14_fill" d="M 5.36593 0L 4.48551 0L 4.41456 0L 4.39112 0.066965L 2.71943 4.84323L 1.11637 0.0681742L 1.09349 0L 1.02157 0L 0.141157 0L 0 0L 0.0468178 0.133167L 2.22621 6.33217L 2.24971 6.399L 2.32055 6.399L 3.15045 6.399L 3.22091 6.399L 3.24462 6.33266L 5.46009 0.133654L 5.50786 0L 5.36593 0ZM 3.08 6.199L 2.39139 6.199L 0.282315 0.2L 0.949661 0.2L 2.62266 5.1834L 2.71549 5.45991L 2.81185 5.18461L 4.55646 0.2L 5.22399 0.2L 3.08 6.199Z"/>
<path id="path15_fill" d="M 0.880417 6.199L 0 6.199L 2.33816 0L 3.24022 0L 5.57838 6.199L 4.69075 6.199L 4.09177 4.51755L 1.48661 4.51755L 0.880417 6.199ZM 2.78558 0.981448L 1.77527 3.78146L 3.8392 3.78146L 2.78558 0.981448Z"/>
<path id="path16_fill" d="M 1.70145 4.71755L 4.16584 4.71755L 4.74114 6.33256L 4.76481 6.399L 4.83534 6.399L 5.72297 6.399L 5.86757 6.399L 5.81654 6.26371L 3.47838 0.0647087L 3.45398 0L 3.38482 0L 2.48275 0L 2.41359 0L 2.38919 0.0647087L 0.0510296 6.26371L 0 6.399L 0.144595 6.399L 1.02501 6.399L 1.09526 6.399L 1.11909 6.33292L 1.70145 4.71755ZM 0.954764 6.199L 0.28919 6.199L 2.55191 0.2L 3.31566 0.2L 5.57838 6.199L 4.90587 6.199L 4.33057 4.58399L 4.3069 4.51755L 4.23637 4.51755L 1.6312 4.51755L 1.56095 4.51755L 1.53713 4.58363L 0.954764 6.199Z"/>
<path id="path17_fill" d="M 4.07738 3.84624L 3.02377 1.04623L 2.92821 0.792272L 2.83611 1.04751L 1.8258 3.84752L 1.77747 3.98146L 1.91986 3.98146L 3.98379 3.98146L 4.12826 3.98146L 4.07738 3.84624ZM 2.93215 1.37063L 3.83932 3.78146L 2.06226 3.78146L 2.93215 1.37063Z"/>
<path id="path18_fill" d="M 0.793819 6.199L 0 6.199L 0 0L 0.793819 0L 0.793819 6.199Z"/>
<path id="path19_fill" d="M 0.893819 0L 0.1 0L 0 0L 0 0.1L 0 6.299L 0 6.399L 0.1 6.399L 0.893819 6.399L 0.993819 6.399L 0.993819 6.299L 0.993819 0.1L 0.993819 0L 0.893819 0ZM 0.793819 6.199L 0.2 6.199L 0.2 0.2L 0.793819 0.2L 0.793819 6.199Z"/>
<path id="path20_fill" d="M 3.47837 6.199L 0 6.199L 0 0L 0.793819 0L 0.793819 5.44127L 3.47837 5.44127L 3.47837 6.199Z"/>
<path id="path21_fill" d="M 3.57837 5.44127L 0.993819 5.44127L 0.993819 0.1L 0.993819 0L 0.893819 0L 0.1 0L 0 0L 0 0.1L 0 6.299L 0 6.399L 0.1 6.399L 3.57837 6.399L 3.67837 6.399L 3.67837 6.299L 3.67837 5.54127L 3.67837 5.44127L 3.57837 5.44127ZM 3.47837 6.199L 0.2 6.199L 0.2 0.2L 0.793819 0.2L 0.793819 5.54127L 0.793819 5.64127L 0.893819 5.64127L 3.47837 5.64127L 3.47837 6.199Z"/>
<path id="path22_fill" d="M 0.887633 6.199L 0 6.199L 2.33816 0L 3.24022 0L 5.57838 6.199L 4.69796 6.199L 4.09899 4.51755L 1.49382 4.51755L 0.887633 6.199ZM 2.74228 0.981448L 1.73197 3.78146L 3.7959 3.78146L 2.78558 0.981448L 2.74228 0.981448Z"/>
<path id="path23_fill" d="M 1.70867 4.71755L 4.17305 4.71755L 4.74836 6.33256L 4.77202 6.399L 4.84256 6.399L 5.72297 6.399L 5.86757 6.399L 5.81654 6.26371L 3.47838 0.0647087L 3.45398 0L 3.38482 0L 2.48275 0L 2.41359 0L 2.38919 0.0647087L 0.0510296 6.26371L 0 6.399L 0.144595 6.399L 1.03223 6.399L 1.10248 6.399L 1.1263 6.33292L 1.70867 4.71755ZM 0.96198 6.199L 0.28919 6.199L 2.55191 0.2L 3.31566 0.2L 5.57838 6.199L 4.91309 6.199L 4.33779 4.58399L 4.31412 4.51755L 4.24359 4.51755L 1.63842 4.51755L 1.56817 4.51755L 1.54434 4.58363L 0.96198 6.199Z"/>
<path id="path24_fill" d="M 2.93018 0.981448L 2.88688 0.981448L 2.81665 0.981448L 2.79281 1.04751L 1.7825 3.84752L 1.73417 3.98146L 1.87656 3.98146L 3.94049 3.98146L 4.08288 3.98146L 4.03456 3.84752L 3.02424 1.04751L 3.0004 0.981448L 2.93018 0.981448ZM 2.90853 1.31608L 3.7981 3.78146L 2.01896 3.78146L 2.90853 1.31608Z"/>
<path id="path25_fill" d="M 0 6.19931L 0 0.000309492L 2.25877 0.000309492C 2.7265 -0.00835029 3.17931 0.16501 3.52167 0.483817C 3.69239 0.633852 3.82806 0.819562 3.91909 1.02781C 4.01012 1.23607 4.05429 1.46177 4.04847 1.68898C 4.06267 1.96693 3.98771 2.24214 3.83453 2.4745C 3.68136 2.70687 3.45796 2.88423 3.19692 2.98074L 3.19692 2.98074C 3.50291 3.07536 3.77083 3.26492 3.96188 3.52198C 4.15224 3.77575 4.25369 4.08517 4.25054 4.40239C 4.26212 4.64615 4.21886 4.8894 4.12394 5.11421C 4.02902 5.33903 3.88486 5.53968 3.70208 5.70137C 3.34321 6.03796 2.86609 6.21948 2.37424 6.20653L 0 6.19931ZM 0.815468 0.765262L 0.815468 2.66321L 2.25877 2.66321C 2.39254 2.66808 2.52585 2.64491 2.65013 2.5952C 2.77441 2.54548 2.88692 2.47033 2.98043 2.37455C 3.06947 2.28841 3.14028 2.18525 3.18864 2.07119C 3.23699 1.95713 3.26191 1.83451 3.26191 1.71063C 3.26191 1.58674 3.23699 1.46412 3.18864 1.35006C 3.14028 1.23601 3.06947 1.13284 2.98043 1.04671C 2.89268 0.953343 2.78633 0.879415 2.66825 0.829695C 2.55016 0.779975 2.42296 0.755566 2.29486 0.758045L 0.815468 0.765262ZM 0.815468 3.40651L 0.815468 5.44157L 2.40311 5.44157C 2.53855 5.4435 2.67301 5.41836 2.79861 5.36764C 2.92421 5.31691 3.03842 5.24162 3.13454 5.14617C 3.23066 5.05072 3.30675 4.93705 3.35836 4.81181C 3.40996 4.68657 3.43604 4.55228 3.43507 4.41683C 3.43719 4.28212 3.41135 4.14844 3.35918 4.02422C 3.30701 3.90001 3.22965 3.78797 3.13198 3.69517C 3.03207 3.59489 2.91261 3.51623 2.78101 3.46409C 2.64942 3.41195 2.5085 3.38744 2.36702 3.39208L 0.815468 3.40651Z"/>
<path id="path26_fill" d="M 2.47424 6.30651L 2.47394 6.40651C 2.99031 6.4195 3.49108 6.22905 3.86834 5.87625C 3.86906 5.87561 3.86977 5.87494 3.87049 5.87429C 4.06023 5.70502 4.21661 5.48705 4.31606 5.2531C 4.41439 5.01862 4.46157 4.75448 4.45055 4.5004C 4.45185 4.168 4.34044 3.82904 4.14214 3.56231C 4.14205 3.56219 4.14196 3.56207 4.14187 3.56195C 3.98747 3.35593 3.77898 3.18586 3.54569 3.07245C 3.73367 2.96253 3.8987 2.80886 4.01803 2.62953C 4.17812 2.3844 4.26134 2.08037 4.24852 1.78781C 4.25344 1.55082 4.20509 1.30511 4.11072 1.08774C 4.01515 0.870604 3.86738 0.668042 3.68982 0.510618C 3.6891 0.509981 3.6884 0.509322 3.68768 0.508686C 3.32705 0.173878 2.85081 -0.00833873 2.35877 0.000293259L 2.35877 0.100293L 2.35692 0.000310394L 0.1 0.000293259L 0 0.000293259L 0 0.100293L 0 6.29929L 0 6.39899L 0.0996961 6.39929L 2.47161 6.40648L 2.47424 6.30651ZM 0.2 6.1996L 0.2 0.200293L 2.35877 0.20031L 2.36063 0.200276C 2.80243 0.192096 3.23011 0.355878 3.55349 0.657014L 3.55565 0.658915C 3.71857 0.801292 3.84135 0.969366 3.92746 1.16785C 4.01467 1.36586 4.05464 1.57013 4.04851 1.7864L 4.04821 1.78639L 4.0486 1.79406C 4.06324 2.05619 3.99658 2.30095 3.85104 2.51945C 3.7076 2.73933 3.50892 2.89707 3.26225 2.98693L 2.95855 3.0992L 3.27017 3.17711C 3.56025 3.26613 3.80152 3.43722 3.98162 3.68161L 3.98188 3.68197C 4.16355 3.92193 4.25486 4.20044 4.25054 4.50138L 4.25038 4.50138L 4.25065 4.50713C 4.26233 4.73971 4.22297 4.961 4.13181 5.1753C 4.04181 5.39008 3.91063 5.57259 3.73579 5.72642L 3.73367 5.72842C 3.394 6.047 2.94241 6.21878 2.47687 6.20652L 2.47454 6.20651L 0.2 6.1996Z"/>
<path id="path27_fill" d="M 2.35877 2.76319L 2.35877 2.86319C 2.5019 2.86733 2.65425 2.84065 2.78727 2.78803C 2.92012 2.73431 3.04908 2.64836 3.14995 2.54641C 3.15064 2.54574 3.1513 2.54506 3.15198 2.54439C 3.24699 2.45123 3.32835 2.33241 3.3807 2.21021C 3.4325 2.08674 3.46141 1.94451 3.46191 1.81061C 3.46141 1.67672 3.4325 1.53448 3.3807 1.41101C 3.3286 1.28939 3.24772 1.17116 3.1533 1.07821C 3.15221 1.07705 3.15105 1.07596 3.14995 1.07482C 3.05512 0.975714 2.93308 0.891164 2.80705 0.837515C 2.67959 0.784436 2.53249 0.756113 2.39437 0.75803L 2.39486 0.858029L 2.39292 0.758048L 0.91498 0.765247L 0.815468 0.765732L 0.815468 0.865246L 0.815468 2.76319L 0.815468 2.86319L 0.915468 2.86319L 2.35514 2.86313L 2.35877 2.76319ZM 2.71299 2.60233C 2.59857 2.64869 2.48576 2.66822 2.36241 2.66319L 2.35877 2.66319L 1.01547 2.66319L 1.01547 0.964759L 2.39535 0.958038L 2.39679 0.95801C 2.51446 0.955188 2.62118 0.975666 2.72944 1.02184C 2.83813 1.06701 2.92735 1.12904 3.00756 1.21518L 3.00748 1.21525L 3.0109 1.21857C 3.0931 1.29738 3.15258 1.38404 3.19657 1.48908C 3.24148 1.59373 3.26242 1.69673 3.26191 1.81061C 3.26242 1.92449 3.24148 2.02749 3.19657 2.13214C 3.15258 2.23718 3.09307 2.32381 3.01087 2.40263L 3.00888 2.40467C 2.92302 2.49339 2.82781 2.55699 2.71299 2.60233Z"/>
<path id="path28_fill" d="M 2.39397 0.758032L 2.39292 0.758048C 2.39327 0.758042 2.39362 0.758037 2.39397 0.758032Z"/>
<path id="path29_fill" d="M 2.35514 2.86313C 2.35584 2.86315 2.35654 2.86317 2.35723 2.86319L 2.35514 2.86313Z"/>
<path id="path30_fill" d="M 2.50453 5.44156L 2.50311 5.44156L 1.01547 5.44156L 1.01547 3.60557L 2.46795 3.59209L 2.4703 3.59201C 2.60153 3.58718 2.72229 3.60818 2.84418 3.65704C 2.96645 3.70493 3.0688 3.77236 3.1611 3.86576L 3.1631 3.86766C 3.25366 3.95296 3.3193 4.04802 3.36698 4.16293C 3.41565 4.27743 3.43755 4.39085 3.43506 4.51524L 3.43507 4.51753C 3.43647 4.64305 3.41418 4.75782 3.3659 4.87369C 3.31853 4.98994 3.25349 5.0871 3.16408 5.1752C 3.07536 5.26399 2.97774 5.32835 2.86116 5.3749C 2.74496 5.42236 2.63003 5.44384 2.50453 5.44156ZM 2.93606 5.56034C 3.07069 5.50544 3.20148 5.41921 3.305 5.31711C 3.40782 5.21431 3.49497 5.08413 3.55081 4.94989C 3.60546 4.81598 3.63529 4.6631 3.63506 4.51839C 3.63506 4.51762 3.63507 4.51686 3.63507 4.51609C 3.63648 4.37173 3.60676 4.21871 3.55138 4.08548C 3.49508 3.95281 3.40674 3.82459 3.30282 3.72458C 3.30217 3.72393 3.3015 3.72331 3.30085 3.72266C 3.19366 3.61635 3.05792 3.52717 2.91785 3.47111C 2.77727 3.41597 2.61713 3.38797 2.46609 3.39207L 2.46702 3.49206L 2.46374 3.39212L 0.914538 3.4065L 0.815468 3.40742L 0.815468 3.5065L 0.815468 5.54156L 0.815468 5.64156L 0.915468 5.64156L 2.50168 5.64155L 2.50311 5.54156L 2.50311 5.64156C 2.64807 5.64293 2.8015 5.61415 2.93606 5.56034Z"/>
<path id="path31_fill" d="M 2.46517 3.39208L 2.46374 3.39212C 2.46422 3.3921 2.46469 3.39209 2.46517 3.39208Z"/>
<path id="path32_fill" d="M 2.50168 5.64155L 2.50266 5.64156C 2.50234 5.64156 2.50201 5.64155 2.50168 5.64155Z"/>
<path id="path33_fill" d="M 3.51445 6.199L 0 6.199L 0 0L 0.793819 0L 0.793819 5.44127L 3.51445 5.44127L 3.51445 6.199Z"/>
<path id="path34_fill" d="M 3.61445 5.44127L 0.993819 5.44127L 0.993819 0.1L 0.993819 0L 0.893819 0L 0.1 0L 0 0L 0 0.1L 0 6.299L 0 6.399L 0.1 6.399L 3.61445 6.399L 3.71445 6.399L 3.71445 6.299L 3.71445 5.54127L 3.71445 5.44127L 3.61445 5.44127ZM 3.51445 6.199L 0.2 6.199L 0.2 0.2L 0.793819 0.2L 0.793819 5.54127L 0.793819 5.64127L 0.893819 5.64127L 3.51445 5.64127L 3.51445 6.199Z"/>
<path id="path35_fill" d="M 3.60827 0L 3.60827 0.764952L 0.779385 0.764952L 0.779385 2.7495L 3.32682 2.7495L 3.32682 3.47115L 0.779385 3.47115L 0.779385 5.44127L 3.60827 5.44127L 3.60827 6.199L 0 6.199L 0 0L 3.60827 0Z"/>
<path id="path36_fill" d="M 0 0.1L 0 6.299L 0 6.399L 0.1 6.399L 3.70827 6.399L 3.80827 6.399L 3.80827 6.299L 3.80827 5.54127L 3.80827 5.44127L 3.70827 5.44127L 0.979385 5.44127L 0.979385 3.67115L 3.42682 3.67115L 3.52682 3.67115L 3.52682 3.57115L 3.52682 2.8495L 3.52682 2.7495L 3.42682 2.7495L 0.979385 2.7495L 0.979385 0.964952L 3.70827 0.964952L 3.80827 0.964952L 3.80827 0.864952L 3.80827 0.1L 3.80827 0L 3.70827 0L 0.1 0L 0 0L 0 0.1ZM 3.60827 0.2L 3.60827 0.764952L 0.879385 0.764952L 0.779385 0.764952L 0.779385 0.864952L 0.779385 2.8495L 0.779385 2.9495L 0.879385 2.9495L 3.32682 2.9495L 3.32682 3.47115L 0.879385 3.47115L 0.779385 3.47115L 0.779385 3.57115L 0.779385 5.54127L 0.779385 5.64127L 0.879385 5.64127L 3.60827 5.64127L 3.60827 6.199L 0.2 6.199L 0.2 0.2L 3.60827 0.2Z"/>
<path id="path37_fill" d="M 6.37325 3.24149C 6.38425 3.66726 6.30869 4.09083 6.15115 4.48654C 5.99361 4.88225 5.75737 5.24185 5.45675 5.54356C 4.85367 6.14333 4.0377 6.48 3.18715 6.48C 2.3366 6.48 1.52063 6.14333 0.917549 5.54356C 0.616926 5.24185 0.380688 4.88225 0.223149 4.48654C 0.0656107 4.09083 -0.00994883 3.66726 0.00104924 3.24149C -0.00712746 2.81417 0.0718404 2.38966 0.233135 1.99387C 0.39443 1.59808 0.63467 1.2393 0.939198 0.939412C 1.54135 0.337883 2.35767 1.80269e-16 3.2088 0C 4.05993 7.41106e-16 4.87625 0.337883 5.4784 0.939412C 5.77581 1.24244 6.0085 1.60277 6.16233 1.99852C 6.31616 2.39426 6.38792 2.81715 6.37325 3.24149L 6.37325 3.24149ZM 0.816517 3.24149C 0.805854 3.56764 0.860357 3.89264 0.976836 4.19746C 1.09332 4.50229 1.26943 4.78082 1.49487 5.01675C 1.71149 5.24878 1.97431 5.43287 2.2664 5.55716C 2.55848 5.68145 2.87336 5.74319 3.19076 5.73841C 3.50714 5.74353 3.82104 5.68191 4.11201 5.55757C 4.40297 5.43322 4.66446 5.24895 4.87943 5.01675C 5.10786 4.78262 5.2864 4.50456 5.40424 4.19942C 5.52208 3.89427 5.57677 3.56838 5.565 3.24149C 5.57975 2.911 5.52651 2.581 5.40859 2.27192C 5.29067 1.96284 5.11056 1.68124 4.87943 1.44457C 4.66446 1.21238 4.40297 1.0281 4.11201 0.903757C 3.82104 0.779413 3.50714 0.717793 3.19076 0.722916C 2.87336 0.718131 2.55848 0.779871 2.2664 0.904163C 1.97431 1.02845 1.71149 1.21254 1.49487 1.44457C 1.26677 1.68307 1.08912 1.96514 0.972561 2.27389C 0.856003 2.58265 0.80293 2.91174 0.816517 3.24149L 0.816517 3.24149Z"/>
<path id="path38_fill" d="M 0.000874211 3.3389C 0.000837283 3.3404 0.000893975 3.3419 0.000859168 3.3434C -0.00923631 3.77784 0.0697862 4.21964 0.230033 4.62353C 0.391783 5.02843 0.639112 5.40492 0.946502 5.71414L 0.946825 5.71447C 1.56864 6.33287 2.40997 6.68 3.28694 6.68C 4.16391 6.68 5.00524 6.33287 5.62706 5.71447L 5.62738 5.71414C 5.93477 5.40492 6.1821 5.02843 6.34385 4.62353C 6.50427 4.21918 6.58339 3.77683 6.57308 3.34192C 6.58714 2.90843 6.51198 2.4667 6.35533 2.06228C 6.19735 1.6573 5.95369 1.27997 5.64956 0.969363L 5.64886 0.968665C 5.02796 0.348405 4.18622 7.63278e-16 3.30859 0C 2.43119 1.80411e-16 1.58968 0.348217 0.968825 0.96816C 0.968655 0.968328 0.968486 0.968497 0.968316 0.968665C 0.657163 1.27593 0.405828 1.65137 0.240321 2.05613C 0.0762422 2.46012 -0.00633691 2.90289 0.000874211 3.3389ZM 6.37418 3.44149C 6.37254 3.82284 6.30023 4.19365 6.15803 4.54955C 6.00476 4.93592 5.77972 5.27853 5.48602 5.57265C 5.48592 5.57276 5.48581 5.57287 5.4857 5.57298C 4.90139 6.15391 4.11091 6.48 3.28694 6.48C 2.46297 6.48 1.67249 6.15391 1.08818 5.57298C 1.08807 5.57287 1.08796 5.57276 1.08786 5.57265C 0.794158 5.27853 0.56912 4.93592 0.415849 4.54955C 0.261571 4.16342 0.189559 3.75973 0.200808 3.34407L 0.200909 3.34407L 0.200823 3.33957C 0.192325 2.9224 0.267586 2.51782 0.425532 2.13161C 0.582525 1.74501 0.811489 1.40307 1.10916 1.11067L 1.10966 1.11016C 1.69306 0.527362 2.48396 0.2 3.30859 0.2C 4.13289 0.2 4.92349 0.527097 5.50682 1.10946C 5.50705 1.10969 5.50728 1.10993 5.50751 1.11016C 5.79787 1.40545 6.01935 1.74855 6.16892 2.13475C 6.31956 2.52088 6.38794 2.92382 6.3731 3.33803L 6.36952 3.44149L 6.37418 3.44149Z"/>
<path id="path39_fill" d="M 3.28893 5.93839C 3.28997 5.93841 3.29101 5.93838 3.29206 5.9384C 3.61793 5.94267 3.95124 5.87707 4.2511 5.74952C 4.55068 5.6209 4.8286 5.42523 5.05079 5.18659C 5.05139 5.18595 5.052 5.18533 5.0526 5.18469C 5.28687 4.94332 5.47568 4.64901 5.59732 4.33544C 5.71784 4.02195 5.77589 3.67765 5.76486 3.34192C 5.77893 3.00248 5.72241 2.65382 5.60181 2.33627C 5.48008 2.01867 5.28963 1.72062 5.0526 1.47663C 5.05199 1.47598 5.05137 1.47535 5.05076 1.4747C 4.82857 1.23608 4.55067 1.04042 4.2511 0.911802C 3.95124 0.784253 3.61793 0.718648 3.29206 0.722928C 3.29101 0.722942 3.28997 0.722914 3.28893 0.72293C 2.96211 0.718989 2.62796 0.784684 2.32703 0.912148C 2.02595 1.04086 1.74639 1.23658 1.52239 1.47545C 1.52212 1.47574 1.52184 1.47604 1.52157 1.47633C 1.28728 1.72227 1.09923 2.02098 0.978797 2.33858C 0.859649 2.65561 0.803428 3.00299 0.816309 3.34149C 0.816305 3.34163 0.816254 3.34177 0.81625 3.34191C 0.806292 3.67683 0.864092 4.02003 0.983215 4.33316C 1.10356 4.64672 1.29 4.94171 1.52157 5.185C 1.52183 5.18528 1.5221 5.18556 1.52236 5.18584C 1.74636 5.42472 2.02593 5.62046 2.32703 5.74918C 2.62796 5.87664 2.96211 5.94233 3.28893 5.93839ZM 4.1725 5.56561C 3.89139 5.68634 3.59806 5.74388 3.29217 5.73837L 3.28904 5.73842C 2.98207 5.74359 2.68763 5.68586 2.40534 5.56514C 2.12263 5.44543 1.87688 5.27329 1.66776 5.04851L 1.66696 5.04767C 1.44802 4.81925 1.28252 4.5575 1.17004 4.26177C 1.05664 3.96639 1.00548 3.66097 1.01631 3.34476L 1.01631 3.34149L 1.01622 3.33737C 1.00255 3.01768 1.05242 2.7084 1.16591 2.40921C 1.27845 2.10967 1.4454 1.84459 1.66694 1.61369L 1.66776 1.61281C 1.87688 1.38803 2.12263 1.21589 2.40534 1.09618C 2.68763 0.975465 2.98207 0.917781 3.28904 0.922954L 3.29217 0.922903C 3.59806 0.917399 3.89139 0.97498 4.1725 1.09571C 4.45405 1.21543 4.69837 1.38765 4.90581 1.61253L 4.90767 1.61444C 5.13205 1.84344 5.30116 2.10783 5.41495 2.40757C 5.52972 2.70692 5.57971 3.01676 5.56489 3.33703L 5.56456 3.33701L 5.56485 3.34509C 5.57677 3.66187 5.52543 3.96785 5.41075 4.26339C 5.29702 4.5593 5.12936 4.82034 4.90762 5.0469L 4.90584 5.04882C 4.6984 5.27369 4.45405 5.44589 4.1725 5.56561Z"/>
<path id="path40_fill" d="M 0.793819 6.199L 0 6.199L 0 0L 0.967015 0L 3.98353 4.82064L 3.98353 3.6227L 3.98353 0.0144331L 4.77734 0.0144331L 4.77734 6.199L 3.94744 6.199L 0.793819 1.14743L 0.793819 2.34537L 0.793819 6.199Z"/>
<path id="path41_fill" d="M 0.993819 2.44537L 0.993819 1.59645L 3.96262 6.35196L 3.99198 6.399L 4.04744 6.399L 4.87734 6.399L 4.97734 6.399L 4.97734 6.299L 4.97734 0.114433L 4.97734 0.0144331L 4.87734 0.0144331L 4.08353 0.0144331L 3.98353 0.0144331L 3.98353 0.114433L 3.98353 3.7227L 3.98353 4.57232L 1.15179 0.0469545L 1.1224 0L 1.06702 0L 0.1 0L 0 0L 0 0.1L 0 6.299L 0 6.399L 0.1 6.399L 0.893819 6.399L 0.993819 6.399L 0.993819 6.299L 0.993819 2.44537ZM 0.793819 6.199L 0.2 6.199L 0.2 0.2L 1.01163 0.2L 3.99875 4.97369L 4.18353 5.26897L 4.18353 4.92064L 4.18353 3.7227L 4.18353 0.214433L 4.77734 0.214433L 4.77734 6.199L 4.1029 6.199L 0.978646 1.19447L 0.793819 0.898411L 0.793819 1.24743L 0.793819 2.44537L 0.793819 6.199Z"/>
</defs>
</svg>
