<svg width="139" height="40" viewBox="0 0 139 40" version="2.0" xmlns="http://www.w3.org/2000/svg" xmlns:xlink="http://www.w3.org/1999/xlink" xmlns:figma="http://www.figma.com/figma/ns">
<title>play-store</title>
<desc>Created using Figma (9000)</desc>
<g id="Canvas" transform="translate(2235 2851)" figma:type="canvas">
<g id="play-store" style="mix-blend-mode:normal;" figma:type="group">
<g id="Vector" style="mix-blend-mode:normal;" figma:type="vector">
<use xlink:href="#path0_fill" transform="translate(-2235 -2851)" style="mix-blend-mode:normal;"/>
</g>
<g id="Group" style="mix-blend-mode:normal;" figma:type="group">
<g id="Vector" style="mix-blend-mode:normal;" figma:type="vector">
<use xlink:href="#path1_fill" transform="translate(-2191.63 -2844.14)" fill="#FFFFFF" style="mix-blend-mode:normal;"/>
<use xlink:href="#path2_stroke" transform="translate(-2191.63 -2844.14)" fill="#FFFFFF" style="mix-blend-mode:normal;"/>
</g>
<g id="Vector" style="mix-blend-mode:normal;" figma:type="vector">
<use xlink:href="#path3_fill" transform="translate(-2184.47 -2844)" fill="#FFFFFF" style="mix-blend-mode:normal;"/>
<use xlink:href="#path4_stroke" transform="translate(-2184.47 -2844)" fill="#FFFFFF" style="mix-blend-mode:normal;"/>
</g>
<g id="Vector" style="mix-blend-mode:normal;" figma:type="vector">
<use xlink:href="#path5_fill" transform="translate(-2180.14 -2844)" fill="#FFFFFF" style="mix-blend-mode:normal;"/>
<use xlink:href="#path6_stroke" transform="translate(-2180.14 -2844)" fill="#FFFFFF" style="mix-blend-mode:normal;"/>
</g>
<g id="Vector" style="mix-blend-mode:normal;" figma:type="vector">
<use xlink:href="#path7_fill" transform="translate(-2173.03 -2844)" fill="#FFFFFF" style="mix-blend-mode:normal;"/>
<use xlink:href="#path8_stroke" transform="translate(-2173.03 -2844)" fill="#FFFFFF" style="mix-blend-mode:normal;"/>
</g>
<g id="Vector" style="mix-blend-mode:normal;" figma:type="vector">
<use xlink:href="#path9_fill" transform="translate(-2171.29 -2844)" fill="#FFFFFF" style="mix-blend-mode:normal;"/>
<use xlink:href="#path10_stroke" transform="translate(-2171.29 -2844)" fill="#FFFFFF" style="mix-blend-mode:normal;"/>
</g>
<g id="Vector" style="mix-blend-mode:normal;" figma:type="vector">
<use xlink:href="#path11_fill" transform="translate(-2164.64 -2844.15)" fill="#FFFFFF" style="mix-blend-mode:normal;"/>
<use xlink:href="#path12_stroke" transform="translate(-2164.64 -2844.15)" fill="#FFFFFF" style="mix-blend-mode:normal;"/>
</g>
<g id="Vector" style="mix-blend-mode:normal;" figma:type="vector">
<use xlink:href="#path13_fill" transform="translate(-2157.39 -2844)" fill="#FFFFFF" style="mix-blend-mode:normal;"/>
<use xlink:href="#path14_stroke" transform="translate(-2157.39 -2844)" fill="#FFFFFF" style="mix-blend-mode:normal;"/>
</g>
<g id="Vector" style="mix-blend-mode:normal;" figma:type="vector">
<use xlink:href="#path15_fill" transform="translate(-2192.1 -2834.01)" fill="#FFFFFF" style="mix-blend-mode:normal;"/>
</g>
<g id="Vector" style="mix-blend-mode:normal;" figma:type="vector">
<use xlink:href="#path16_fill" transform="translate(-2222.99 -2843.53)" fill="url(#paint16_linear)" style="mix-blend-mode:normal;"/>
</g>
<g id="Vector" style="mix-blend-mode:normal;" figma:type="vector">
<use xlink:href="#path17_fill" transform="translate(-2210.07 -2835.28)" fill="url(#paint17_linear)" style="mix-blend-mode:normal;"/>
</g>
<g id="Vector" style="mix-blend-mode:normal;" figma:type="vector">
<use xlink:href="#path18_fill" transform="translate(-2222.53 -2831)" fill="url(#paint18_linear)" style="mix-blend-mode:normal;"/>
</g>
<g id="Vector" style="mix-blend-mode:normal;" figma:type="vector">
<use xlink:href="#path19_fill" transform="translate(-2222.54 -2843.87)" fill="url(#paint19_linear)" style="mix-blend-mode:normal;"/>
</g>
<g id="Vector" style="mix-blend-mode:normal;" opacity="0.2" figma:type="vector">
<use xlink:href="#path20_fill" transform="translate(-2222.53 -2826.87)" style="mix-blend-mode:normal;"/>
</g>
<g id="Vector" style="mix-blend-mode:normal;" opacity="0.12" figma:type="vector">
<use xlink:href="#path21_fill" transform="translate(-2222.99 -2820.08)" style="mix-blend-mode:normal;"/>
</g>
<g id="Vector" style="mix-blend-mode:normal;" opacity="0.12" figma:type="vector">
<use xlink:href="#path22_fill" transform="translate(-2205.97 -2831)" style="mix-blend-mode:normal;"/>
</g>
<g id="Vector" style="mix-blend-mode:normal;" opacity="0.25" figma:type="vector">
<use xlink:href="#path23_fill" transform="translate(-2223 -2843.85)" fill="#FFFFFF" style="mix-blend-mode:normal;"/>
</g>
</g>
</g>
</g>
<defs>
<linearGradient id="paint16_linear" x1="0" y1="0" x2="1" y2="0" gradientUnits="userSpaceOnUse" gradientTransform="matrix(-16.78 16.78 16.78 16.78 3.43358 -7.15)">
<stop offset="0" stop-color="#00A0FF"/>
<stop offset="0.01" stop-color="#00A1FF"/>
<stop offset="0.26" stop-color="#00BEFF"/>
<stop offset="0.51" stop-color="#00D2FF"/>
<stop offset="0.76" stop-color="#00DFFF"/>
<stop offset="1" stop-color="#00E3FF"/>
</linearGradient>
<linearGradient id="paint17_linear" x1="0" y1="0" x2="1" y2="0" gradientUnits="userSpaceOnUse" gradientTransform="matrix(-24.19 0 0 24.19 10.93 -7.815)">
<stop offset="0" stop-color="#FFE000"/>
<stop offset="0.41" stop-color="#FFBD00"/>
<stop offset="0.78" stop-color="#FFA500"/>
<stop offset="1" stop-color="#FF9C00"/>
</linearGradient>
<linearGradient id="paint18_linear" x1="0" y1="0" x2="1" y2="0" gradientUnits="userSpaceOnUse" gradientTransform="matrix(-22.76 22.75 22.75 22.76 3.015 -9.08)">
<stop offset="0" stop-color="#FF3A44"/>
<stop offset="1" stop-color="#C31162"/>
</linearGradient>
<linearGradient id="paint19_linear" x1="0" y1="0" x2="1" y2="0" gradientUnits="userSpaceOnUse" gradientTransform="matrix(10.16 10.16 10.16 -10.16 -8.21 -1.87423)">
<stop offset="0" stop-color="#32A071"/>
<stop offset="0.07" stop-color="#2DA771"/>
<stop offset="0.48" stop-color="#15CF74"/>
<stop offset="0.8" stop-color="#06E775"/>
<stop offset="1" stop-color="#00F076"/>
</linearGradient>
<path id="path0_fill" d="
M 5.14815 0
L 133.852 0
C 136.695 0 139 2.23858 139 5
L 139 35
C 139 37.7614 136.695 40 133.852 40
L 5.14815 40
C 2.3049 40 0 37.7614 0 35
L 0 5
C 0 2.23858 2.3049 0 5.14815 0
Z"/>
<path id="path1_fill" d="
M 6.07535 3.38074
C 6.09235 3.74753 6.03463 4.11395 5.90571 4.45775
C 5.77678 4.80156 5.57933 5.11558 5.32535 5.38074
C 5.04176 5.67534 4.69927 5.90686 4.3202 6.06021
C 3.94113 6.21356 3.534 6.28529 3.12535 6.27074
C 2.50533 6.26589 1.90054 6.07817 1.38674 5.73109
C 0.87295 5.38402 0.473012 4.89303 0.237041 4.31966
C 0.00106983 3.74628 -0.0604379 3.11601 0.0602245 2.50783
C 0.180887 1.89965 0.478353 1.34061 0.915349 0.900745
C 1.20256 0.607528 1.54688 0.376366 1.92702 0.22156
C 2.30715 0.066755 2.715 -0.00840019 3.12535 0.000744786
C 3.54811 -0.000663782 3.96668 0.0844131 4.35535 0.250745
C 4.7172 0.396698 5.03933 0.626301 5.29535 0.920745
L 4.76535 1.45074
C 4.56576 1.21334 4.31369 1.02561 4.02906 0.902382
C 3.74443 0.779159 3.43504 0.723822 3.12535 0.740745
C 2.81299 0.739213 2.50354 0.800773 2.21555 0.921734
C 1.92756 1.0427 1.66697 1.22057 1.44938 1.44468
C 1.2318 1.6688 1.06172 1.93455 0.949336 2.22599
C 0.83695 2.51743 0.784574 2.82857 0.795349 3.14074
C 0.788797 3.60688 0.920444 4.06451 1.17368 4.45591
C 1.42692 4.84731 1.79041 5.15495 2.21828 5.34
C 2.64616 5.52506 3.11926 5.57925 3.5779 5.49574
C 4.03654 5.41222 4.46017 5.19475 4.79535 4.87074
C 5.10306 4.53728 5.28053 4.10425 5.29535 3.65074
L 3.12535 3.65074
L 3.12535 2.93074
L 6.03535 2.93074
C 6.06202 3.07926 6.07541 3.22985 6.07535 3.38074
Z"/>
<path id="path2_stroke" d="
M 6.07535 3.38074
L 5.97524 3.38071
L 5.97546 3.38537
L 6.07535 3.38074
Z
M 5.90571 4.45775
L 5.99934 4.49287
L 5.90571 4.45775
Z
M 5.32535 5.38074
L 5.39739 5.4501
L 5.39757 5.44992
L 5.32535 5.38074
Z
M 3.12535 6.27074
L 3.12891 6.17077
L 3.12613 6.17075
L 3.12535 6.27074
Z
M 1.38674 5.73109
L 1.33077 5.81396
L 1.38674 5.73109
Z
M 0.237041 4.31966
L 0.144566 4.35772
L 0.237041 4.31966
Z
M 0.0602245 2.50783
L 0.158313 2.52729
L 0.0602245 2.50783
Z
M 0.915349 0.900745
L 0.986292 0.971226
L 0.986788 0.97072
L 0.915349 0.900745
Z
M 1.92702 0.22156
L 1.8893 0.128946
L 1.92702 0.22156
Z
M 3.12535 0.000744786
L 3.12312 0.100753
L 3.12568 0.100744
L 3.12535 0.000744786
Z
M 4.35535 0.250745
L 4.316 0.3427
L 4.31794 0.343485
L 4.35535 0.250745
Z
M 5.29535 0.920745
L 5.36606 0.991455
L 5.43201 0.925509
L 5.37081 0.85513
L 5.29535 0.920745
Z
M 4.76535 1.45074
L 4.68881 1.5151
L 4.75897 1.59855
L 4.83606 1.52146
L 4.76535 1.45074
Z
M 4.02906 0.902382
L 4.06879 0.810613
L 4.02906 0.902382
Z
M 3.12535 0.740745
L 3.12486 0.840921
L 3.13081 0.840596
L 3.12535 0.740745
Z
M 2.21555 0.921734
L 2.25428 1.01393
L 2.25428 1.01393
L 2.21555 0.921734
Z
M 1.44938 1.44468
L 1.52113 1.51434
L 1.44938 1.44468
Z
M 0.949336 2.22599
L 0.856033 2.19001
L 0.856033 2.19001
L 0.949336 2.22599
Z
M 0.795349 3.14074
L 0.895457 3.14215
L 0.895289 3.1373
L 0.795349 3.14074
Z
M 1.17368 4.45591
L 1.08972 4.51024
L 1.17368 4.45591
Z
M 2.21828 5.34
L 2.25798 5.24822
L 2.21828 5.34
Z
M 4.79535 4.87074
L 4.86496 4.94276
L 4.86884 4.93856
L 4.79535 4.87074
Z
M 5.29535 3.65074
L 5.3953 3.65401
L 5.39867 3.55074
L 5.29535 3.55074
L 5.29535 3.65074
Z
M 3.12535 3.65074
L 3.02535 3.65074
L 3.02535 3.75074
L 3.12535 3.75074
L 3.12535 3.65074
Z
M 3.12535 2.93074
L 3.12535 2.83074
L 3.02535 2.83074
L 3.02535 2.93074
L 3.12535 2.93074
Z
M 6.03535 2.93074
L 6.13377 2.91307
L 6.11899 2.83074
L 6.03535 2.83074
L 6.03535 2.93074
Z
M 5.97546 3.38537
C 5.9925 3.74204 5.93793 4.08848 5.81207 4.42264
L 5.99934 4.49287
C 6.13134 4.13942 6.1922 3.75303 6.17524 3.37612
L 5.97546 3.38537
Z
M 5.81207 4.42264
C 5.68718 4.75716 5.50049 5.05406 5.25313 5.31157
L 5.39757 5.44992
C 5.65817 5.17709 5.86638 4.84596 5.99934 4.49287
L 5.81207 4.42264
Z
M 5.25331 5.31139
C 4.97738 5.59882 4.65225 5.8186 4.2827 5.9675
L 4.3577 6.15291
C 4.74628 5.99512 5.10614 5.75186 5.39739 5.4501
L 5.25331 5.31139
Z
M 4.2827 5.9675
C 3.91355 6.11743 3.52707 6.18554 3.12891 6.17081
L 3.12179 6.37068
C 3.54094 6.38505 3.96871 6.30968 4.3577 6.15291
L 4.2827 5.9675
Z
M 3.12613 6.17075
C 2.52071 6.16708 1.94381 5.98802 1.44272 5.64823
L 1.33077 5.81396
C 1.85726 6.16832 2.48995 6.3647 3.12457 6.37074
L 3.12613 6.17075
Z
M 1.44272 5.64823
C 0.940428 5.31022 0.558937 4.84188 0.329516 4.2816
L 0.144566 4.35772
C 0.387086 4.94419 0.805472 5.45782 1.33077 5.81396
L 1.44272 5.64823
Z
M 0.329516 4.2816
C 0.0981114 3.72214 0.0394406 3.12094 0.158313 2.52729
L -0.0378637 2.48837
C -0.160316 3.11109 -0.0959717 3.77042 0.144566 4.35772
L 0.329516 4.2816
Z
M 0.158313 2.52729
C 0.275081 1.93323 0.558827 1.39997 0.98629 0.971224
L 0.844408 0.830266
C 0.397879 1.28124 0.0866926 1.86607 -0.0378637 2.48837
L 0.158313 2.52729
Z
M 0.986788 0.97072
C 1.26648 0.68443 1.59386 0.464647 1.96473 0.314175
L 1.8893 0.128946
C 1.49991 0.288085 1.13864 0.530626 0.84391 0.83077
L 0.986788 0.97072
Z
M 1.96473 0.314175
C 2.33521 0.162736 2.72299 0.0912802 3.12312 0.10072
L 3.12758 -0.0992304
C 2.70702 -0.108081 2.27908 -0.0292258 1.8893 0.128946
L 1.96473 0.314175
Z
M 3.12568 0.100744
C 3.53826 0.0988506 3.9369 0.179874 4.316 0.34268
L 4.39469 0.15881
C 3.99647 -0.011048 3.55795 -0.100178 3.12502 -0.0992547
L 3.12568 0.100744
Z
M 4.31794 0.343485
C 4.66915 0.484393 4.97211 0.700339 5.21989 0.986359
L 5.37081 0.85513
C 5.10655 0.552264 4.76526 0.309003 4.39276 0.158005
L 4.31794 0.343485
Z
M 5.22464 0.850034
L 4.69464 1.38003
L 4.83606 1.52146
L 5.36606 0.991455
L 5.22464 0.850034
Z
M 4.84189 1.38639
C 4.63436 1.14058 4.36376 0.939041 4.06879 0.810613
L 3.98933 0.994151
C 4.26362 1.11217 4.49716 1.2861 4.68881 1.5151
L 4.84189 1.38639
Z
M 4.06879 0.810613
C 3.77329 0.683414 3.44116 0.624009 3.11989 0.640894
L 3.13081 0.840596
C 3.42893 0.823635 3.71557 0.874903 3.98933 0.994151
L 4.06879 0.810613
Z
M 3.12584 0.640746
C 2.80343 0.63967 2.47428 0.705151 2.17683 0.829536
L 2.25428 1.01393
C 2.53281 0.896394 2.82255 0.838755 3.12486 0.840744
L 3.12584 0.640746
Z
M 2.17683 0.829536
C 1.87977 0.954855 1.60258 1.14405 1.37764 1.37503
L 1.52113 1.51434
C 1.73135 1.29708 1.97535 1.13054 2.25428 1.01393
L 2.17683 0.829536
Z
M 1.37764 1.37503
C 1.15342 1.60671 0.972506 1.88938 0.856033 2.19001
L 1.04264 2.26197
C 1.15094 1.97972 1.31019 1.7309 1.52113 1.51434
L 1.37764 1.37503
Z
M 0.856033 2.19001
C 0.740504 2.49101 0.684793 2.82196 0.695408 3.14419
L 0.895289 3.1373
C 0.884355 2.83518 0.933396 2.54386 1.04264 2.26197
L 0.856033 2.19001
Z
M 0.695359 3.13934
C 0.68968 3.62014 0.829431 4.10594 1.08972 4.51024
L 1.25764 4.40159
C 1.01146 4.02308 0.887913 3.59362 0.895339 3.14215
L 0.695359 3.13934
Z
M 1.08972 4.51024
C 1.35183 4.91335 1.73769 5.23992 2.17859 5.43179
L 2.25798 5.24822
C 1.84312 5.06997 1.50201 4.78127 1.25764 4.40159
L 1.08972 4.51024
Z
M 2.17859 5.43179
C 2.62034 5.62167 3.12256 5.67919 3.59581 5.59412
L 3.55998 5.39735
C 3.11595 5.4793 2.67198 5.42845 2.25798 5.24822
L 2.17859 5.43179
Z
M 3.59581 5.59412
C 4.06867 5.50692 4.51838 5.27606 4.86485 4.94264
L 4.72585 4.79885
C 4.40195 5.11344 4.0044 5.31753 3.55998 5.39735
L 3.59581 5.59412
Z
M 4.86884 4.93856
C 5.1874 4.591 5.37832 4.12517 5.3953 3.65401
L 5.1954 3.64748
C 5.18275 4.08332 5.01871 4.48356 4.72186 4.80293
L 4.86884 4.93856
Z
M 5.29535 3.55074
L 3.12535 3.55074
L 3.12535 3.75074
L 5.29535 3.75074
L 5.29535 3.55074
Z
M 3.22535 3.65074
L 3.22535 2.93074
L 3.02535 2.93074
L 3.02535 3.65074
L 3.22535 3.65074
Z
M 3.12535 3.03074
L 6.03535 3.03074
L 6.03535 2.83074
L 3.12535 2.83074
L 3.12535 3.03074
Z
M 5.93692 2.94842
C 5.96291 3.09254 5.97551 3.23427 5.97535 3.38071
L 6.17535 3.38078
C 6.17531 3.22544 6.16114 3.06598 6.13377 2.91307
L 5.93692 2.94842
Z"/>
<path id="path3_fill" d="
M 3.5 0.74
L 0.8 0.74
L 0.8 2.64
L 3.26 2.64
L 3.26 3.36
L 0.8 3.36
L 0.8 5.26
L 3.5 5.26
L 3.5 6
L 0 6
L 0 0
L 3.5 0
L 3.5 0.74
Z"/>
<path id="path4_stroke" d="
M 3.5 0.74
L 3.5 0.84
L 3.6 0.84
L 3.6 0.74
L 3.5 0.74
Z
M 0.8 0.74
L 0.8 0.64
L 0.7 0.64
L 0.7 0.74
L 0.8 0.74
Z
M 0.8 2.64
L 0.7 2.64
L 0.7 2.74
L 0.8 2.74
L 0.8 2.64
Z
M 3.26 2.64
L 3.36 2.64
L 3.36 2.54
L 3.26 2.54
L 3.26 2.64
Z
M 3.26 3.36
L 3.26 3.46
L 3.36 3.46
L 3.36 3.36
L 3.26 3.36
Z
M 0.8 3.36
L 0.8 3.26
L 0.7 3.26
L 0.7 3.36
L 0.8 3.36
Z
M 0.8 5.26
L 0.7 5.26
L 0.7 5.36
L 0.8 5.36
L 0.8 5.26
Z
M 3.5 5.26
L 3.6 5.26
L 3.6 5.16
L 3.5 5.16
L 3.5 5.26
Z
M 3.5 6
L 3.5 6.1
L 3.6 6.1
L 3.6 6
L 3.5 6
Z
M 0 6
L -0.1 6
L -0.1 6.1
L 0 6.1
L 0 6
Z
M 0 0
L 0 -0.1
L -0.1 -0.1
L -0.1 0
L 0 0
Z
M 3.5 0
L 3.6 0
L 3.6 -0.1
L 3.5 -0.1
L 3.5 0
Z
M 3.5 0.64
L 0.8 0.64
L 0.8 0.84
L 3.5 0.84
L 3.5 0.64
Z
M 0.7 0.74
L 0.7 2.64
L 0.9 2.64
L 0.9 0.74
L 0.7 0.74
Z
M 0.8 2.74
L 3.26 2.74
L 3.26 2.54
L 0.8 2.54
L 0.8 2.74
Z
M 3.16 2.64
L 3.16 3.36
L 3.36 3.36
L 3.36 2.64
L 3.16 2.64
Z
M 3.26 3.26
L 0.8 3.26
L 0.8 3.46
L 3.26 3.46
L 3.26 3.26
Z
M 0.7 3.36
L 0.7 5.26
L 0.9 5.26
L 0.9 3.36
L 0.7 3.36
Z
M 0.8 5.36
L 3.5 5.36
L 3.5 5.16
L 0.8 5.16
L 0.8 5.36
Z
M 3.4 5.26
L 3.4 6
L 3.6 6
L 3.6 5.26
L 3.4 5.26
Z
M 3.5 5.9
L 0 5.9
L 0 6.1
L 3.5 6.1
L 3.5 5.9
Z
M 0.1 6
L 0.1 0
L -0.1 0
L -0.1 6
L 0.1 6
Z
M 0 0.1
L 3.5 0.1
L 3.5 -0.1
L 0 -0.1
L 0 0.1
Z
M 3.4 0
L 3.4 0.74
L 3.6 0.74
L 3.6 0
L 3.4 0
Z"/>
<path id="path5_fill" d="
M 2.45 6
L 1.68 6
L 1.68 0.74
L 0 0.74
L 0 0
L 4.17 0
L 4.17 0.74
L 2.45 0.74
L 2.45 6
Z"/>
<path id="path6_stroke" d="
M 2.45 6
L 2.45 6.1
L 2.55 6.1
L 2.55 6
L 2.45 6
Z
M 1.68 6
L 1.58 6
L 1.58 6.1
L 1.68 6.1
L 1.68 6
Z
M 1.68 0.74
L 1.78 0.74
L 1.78 0.64
L 1.68 0.64
L 1.68 0.74
Z
M 0 0.74
L -0.1 0.74
L -0.1 0.84
L 0 0.84
L 0 0.74
Z
M 0 0
L 0 -0.1
L -0.1 -0.1
L -0.1 0
L 0 0
Z
M 4.17 0
L 4.27 0
L 4.27 -0.1
L 4.17 -0.1
L 4.17 0
Z
M 4.17 0.74
L 4.17 0.84
L 4.27 0.84
L 4.27 0.74
L 4.17 0.74
Z
M 2.45 0.74
L 2.45 0.64
L 2.35 0.64
L 2.35 0.74
L 2.45 0.74
Z
M 2.45 5.9
L 1.68 5.9
L 1.68 6.1
L 2.45 6.1
L 2.45 5.9
Z
M 1.78 6
L 1.78 0.74
L 1.58 0.74
L 1.58 6
L 1.78 6
Z
M 1.68 0.64
L 0 0.64
L 0 0.84
L 1.68 0.84
L 1.68 0.64
Z
M 0.1 0.74
L 0.1 0
L -0.1 0
L -0.1 0.74
L 0.1 0.74
Z
M 0 0.1
L 4.17 0.1
L 4.17 -0.1
L 0 -0.1
L 0 0.1
Z
M 4.07 0
L 4.07 0.74
L 4.27 0.74
L 4.27 0
L 4.07 0
Z
M 4.17 0.64
L 2.45 0.64
L 2.45 0.84
L 4.17 0.84
L 4.17 0.64
Z
M 2.35 0.74
L 2.35 6
L 2.55 6
L 2.55 0.74
L 2.35 0.74
Z"/>
<path id="path7_fill" d="
M 0 6
L 0 0
L 0.77 0
L 0.77 6
L 0 6
Z"/>
<path id="path8_stroke" d="
M 0 6
L -0.1 6
L -0.1 6.1
L 0 6.1
L 0 6
Z
M 0 0
L 0 -0.1
L -0.1 -0.1
L -0.1 0
L 0 0
Z
M 0.77 0
L 0.87 0
L 0.87 -0.1
L 0.77 -0.1
L 0.77 0
Z
M 0.77 6
L 0.77 6.1
L 0.87 6.1
L 0.87 6
L 0.77 6
Z
M 0.1 6
L 0.1 0
L -0.1 0
L -0.1 6
L 0.1 6
Z
M 0 0.1
L 0.77 0.1
L 0.77 -0.1
L 0 -0.1
L 0 0.1
Z
M 0.67 0
L 0.67 6
L 0.87 6
L 0.87 0
L 0.67 0
Z
M 0.77 5.9
L 0 5.9
L 0 6.1
L 0.77 6.1
L 0.77 5.9
Z"/>
<path id="path9_fill" d="
M 2.45 6
L 1.68 6
L 1.68 0.74
L 0 0.74
L 0 0
L 4.12 0
L 4.12 0.74
L 2.45 0.74
L 2.45 6
Z"/>
<path id="path10_stroke" d="
M 2.45 6
L 2.45 6.1
L 2.55 6.1
L 2.55 6
L 2.45 6
Z
M 1.68 6
L 1.58 6
L 1.58 6.1
L 1.68 6.1
L 1.68 6
Z
M 1.68 0.74
L 1.78 0.74
L 1.78 0.64
L 1.68 0.64
L 1.68 0.74
Z
M 0 0.74
L -0.1 0.74
L -0.1 0.84
L 0 0.84
L 0 0.74
Z
M 0 0
L 0 -0.1
L -0.1 -0.1
L -0.1 0
L 0 0
Z
M 4.12 0
L 4.22 0
L 4.22 -0.1
L 4.12 -0.1
L 4.12 0
Z
M 4.12 0.74
L 4.12 0.84
L 4.22 0.84
L 4.22 0.74
L 4.12 0.74
Z
M 2.45 0.74
L 2.45 0.64
L 2.35 0.64
L 2.35 0.74
L 2.45 0.74
Z
M 2.45 5.9
L 1.68 5.9
L 1.68 6.1
L 2.45 6.1
L 2.45 5.9
Z
M 1.78 6
L 1.78 0.74
L 1.58 0.74
L 1.58 6
L 1.78 6
Z
M 1.68 0.64
L 0 0.64
L 0 0.84
L 1.68 0.84
L 1.68 0.64
Z
M 0.1 0.74
L 0.1 0
L -0.1 0
L -0.1 0.74
L 0.1 0.74
Z
M 0 0.1
L 4.12 0.1
L 4.12 -0.1
L 0 -0.1
L 0 0.1
Z
M 4.02 0
L 4.02 0.74
L 4.22 0.74
L 4.22 0
L 4.02 0
Z
M 4.12 0.64
L 2.45 0.64
L 2.45 0.84
L 4.12 0.84
L 4.12 0.64
Z
M 2.35 0.74
L 2.35 6
L 2.55 6
L 2.55 0.74
L 2.35 0.74
Z"/>
<path id="path11_fill" d="
M 5.2848 5.36597
C 4.70019 5.94731 3.90925 6.27364 3.0848 6.27364
C 2.26034 6.27364 1.4694 5.94731 0.884798 5.36597
C 0.316573 4.76449 0 3.96841 0 3.14097
C 0 2.31353 0.316573 1.51744 0.884798 0.915967
C 1.17295 0.62571 1.51569 0.395343 1.89327 0.238139
C 2.27085 0.080934 2.6758 0 3.0848 0
C 3.4938 0 3.89875 0.080934 4.27633 0.238139
C 4.65391 0.395343 4.99665 0.62571 5.2848 0.915967
C 5.85528 1.5163 6.17337 2.31281 6.17337 3.14097
C 6.17337 3.96912 5.85528 4.76564 5.2848 5.36597
Z
M 1.4548 4.86597
C 1.88773 5.29709 2.47382 5.53914 3.0848 5.53914
C 3.69578 5.53914 4.28187 5.29709 4.7148 4.86597
C 5.14204 4.39499 5.3787 3.78186 5.3787 3.14597
C 5.3787 2.51008 5.14204 1.89695 4.7148 1.42597
C 4.28187 0.994844 3.69578 0.752793 3.0848 0.752793
C 2.47382 0.752793 1.88773 0.994844 1.4548 1.42597
C 1.02756 1.89695 0.7909 2.51008 0.7909 3.14597
C 0.7909 3.78186 1.02756 4.39499 1.4548 4.86597
L 1.4548 4.86597
Z"/>
<path id="path12_stroke" d="
M 5.2848 5.36597
L 5.35534 5.4369
L 5.35729 5.43485
L 5.2848 5.36597
Z
M 0.884798 5.36597
L 0.812071 5.43467
L 0.814285 5.43688
L 0.884798 5.36597
Z
M 0.884798 0.915967
L 0.813809 0.845493
L 0.812107 0.847294
L 0.884798 0.915967
Z
M 4.27633 0.238139
L 4.23789 0.330457
L 4.27633 0.238139
Z
M 5.2848 0.915967
L 5.35731 0.847065
L 5.35577 0.845514
L 5.2848 0.915967
Z
M 1.4548 4.86597
L 1.52536 4.79511
L 1.3548 4.62526
L 1.3548 4.86597
L 1.4548 4.86597
Z
M 4.7148 4.86597
L 4.78545 4.93692
L 4.78886 4.93315
L 4.7148 4.86597
Z
M 5.3787 3.14597
L 5.2787 3.14597
L 5.3787 3.14597
Z
M 4.7148 1.42597
L 4.78896 1.35869
L 4.78536 1.35511
L 4.7148 1.42597
Z
M 3.0848 0.752793
L 3.0848 0.852793
L 3.0848 0.752793
Z
M 1.4548 1.42597
L 1.38414 1.35502
L 1.38073 1.35878
L 1.4548 1.42597
Z
M 0.7909 3.14597
L 0.8909 3.14597
L 0.7909 3.14597
Z
M 1.4548 4.86597
L 1.38073 4.93315
L 1.5548 5.12504
L 1.5548 4.86597
L 1.4548 4.86597
Z
M 5.21429 5.29506
C 4.64842 5.85777 3.88283 6.17364 3.0848 6.17364
L 3.0848 6.37364
C 3.93568 6.37364 4.75197 6.03685 5.35531 5.43688
L 5.21429 5.29506
Z
M 3.0848 6.17364
C 2.28677 6.17364 1.52118 5.85777 0.955311 5.29506
L 0.814285 5.43688
C 1.41763 6.03685 2.23392 6.37364 3.0848 6.37364
L 3.0848 6.17364
Z
M 0.95749 5.29729
C 0.400885 4.71072 0.0982147 3.94959 0.1 3.14097
L -0.1 3.14097
C -0.0982147 3.98722 0.232261 4.81826 0.812107 5.43464
L 0.95749 5.29729
Z
M 0.1 3.14097
C 0.0982147 2.33234 0.400885 1.57122 0.95749 0.98464
L 0.812107 0.847294
C 0.232261 1.46367 -0.0982147 2.29472 -0.1 3.14097
L 0.1 3.14097
Z
M 0.955766 0.98642
C 1.23663 0.702809 1.56303 0.483428 1.9317 0.330457
L 1.85483 0.14582
C 1.46835 0.307258 1.10926 0.548612 0.813831 0.845514
L 0.955766 0.98642
Z
M 1.9317 0.330457
C 2.3 0.176588 2.68565 0.099514 3.0848 0.1
L 3.0848 -0.1
C 2.66595 -0.099514 2.24169 -0.0147203 1.85483 0.14582
L 1.9317 0.330457
Z
M 3.0848 0.1
C 3.48395 0.099514 3.86959 0.176588 4.23789 0.330457
L 4.31477 0.14582
C 3.92791 -0.0147203 3.50364 -0.099514 3.0848 -0.1
L 3.0848 0.1
Z
M 4.23789 0.330457
C 4.60657 0.483428 4.93296 0.702809 5.21383 0.98642
L 5.35577 0.845514
C 5.06033 0.548612 4.70125 0.307258 4.31477 0.14582
L 4.23789 0.330457
Z
M 5.21231 0.984852
C 5.76512 1.5666 6.07337 2.33845 6.07337 3.14097
L 6.27337 3.14097
C 6.27337 2.28717 5.94543 1.466 5.35729 0.847082
L 5.21231 0.984852
Z
M 6.07337 3.14097
C 6.07337 3.94348 5.76512 4.71534 5.21231 5.29708
L 5.35729 5.43485
C 5.94543 4.81594 6.27337 3.99476 6.27337 3.14097
L 6.07337 3.14097
Z
M 1.38424 4.93683
C 1.83591 5.38661 2.44737 5.63914 3.0848 5.63914
L 3.0848 5.43914
C 2.50027 5.43914 1.93955 5.20757 1.52536 4.79511
L 1.38424 4.93683
Z
M 3.0848 5.63914
C 3.72223 5.63914 4.33369 5.38661 4.78536 4.93683
L 4.64424 4.79511
C 4.23005 5.20757 3.66933 5.43914 3.0848 5.43914
L 3.0848 5.63914
Z
M 4.78886 4.93315
C 5.22716 4.44747 5.47701 3.80017 5.4787 3.14597
L 5.2787 3.14597
C 5.28039 3.76354 5.05692 4.3425 4.64073 4.79878
L 4.78886 4.93315
Z
M 5.4787 3.14597
C 5.47701 2.49176 5.22716 1.84446 4.78886 1.35878
L 4.64073 1.49315
C 5.05692 1.94943 5.28039 2.52839 5.2787 3.14597
L 5.4787 3.14597
Z
M 4.78536 1.35511
C 4.33369 0.905323 3.72223 0.652793 3.0848 0.652793
L 3.0848 0.852793
C 3.66933 0.852793 4.23005 1.08437 4.64424 1.49683
L 4.78536 1.35511
Z
M 3.0848 0.652793
C 2.44737 0.652793 1.83591 0.905323 1.38424 1.35511
L 1.52536 1.49683
C 1.93955 1.08437 2.50027 0.852793 3.0848 0.852793
L 3.0848 0.652793
Z
M 1.38073 1.35878
C 0.942441 1.84446 0.692591 2.49176 0.6909 3.14597
L 0.8909 3.14597
C 0.889208 2.52839 1.11268 1.94943 1.52886 1.49315
L 1.38073 1.35878
Z
M 0.6909 3.14597
C 0.692591 3.80017 0.942441 4.44747 1.38073 4.93315
L 1.52886 4.79878
C 1.11268 4.3425 0.889208 3.76354 0.8909 3.14597
L 0.6909 3.14597
Z
M 1.5548 4.86597
L 1.5548 4.86597
L 1.3548 4.86597
L 1.3548 4.86597
L 1.5548 4.86597
Z"/>
<path id="path13_fill" d="
M 0 6
L 0 0
L 0.94 0
L 3.86 4.67
L 3.86 3.51
L 3.86 0
L 4.62 0
L 4.62 6
L 3.82 6
L 0.77 1.11
L 0.77 2.27
L 0.77 6
L 0 6
Z"/>
<path id="path14_stroke" d="
M 0 6
L -0.1 6
L -0.1 6.1
L 0 6.1
L 0 6
Z
M 0 0
L 0 -0.1
L -0.1 -0.1
L -0.1 0
L 0 0
Z
M 0.94 0
L 1.02479 -0.0530162
L 0.995412 -0.1
L 0.94 -0.1
L 0.94 0
Z
M 3.86 4.67
L 3.77521 4.72302
L 3.96 5.01855
L 3.96 4.67
L 3.86 4.67
Z
M 3.86 0
L 3.86 -0.1
L 3.76 -0.1
L 3.76 0
L 3.86 0
Z
M 4.62 0
L 4.72 0
L 4.72 -0.1
L 4.62 -0.1
L 4.62 0
Z
M 4.62 6
L 4.62 6.1
L 4.72 6.1
L 4.72 6
L 4.62 6
Z
M 3.82 6
L 3.73515 6.05292
L 3.76452 6.1
L 3.82 6.1
L 3.82 6
Z
M 0.77 1.11
L 0.854849 1.05708
L 0.67 0.760714
L 0.67 1.11
L 0.77 1.11
Z
M 0.77 6
L 0.77 6.1
L 0.87 6.1
L 0.87 6
L 0.77 6
Z
M 0.1 6
L 0.1 0
L -0.1 0
L -0.1 6
L 0.1 6
Z
M 0 0.1
L 0.94 0.1
L 0.94 -0.1
L 0 -0.1
L 0 0.1
Z
M 0.85521 0.0530162
L 3.77521 4.72302
L 3.94479 4.61698
L 1.02479 -0.0530162
L 0.85521 0.0530162
Z
M 3.96 4.67
L 3.96 3.51
L 3.76 3.51
L 3.76 4.67
L 3.96 4.67
Z
M 3.96 3.51
L 3.96 0
L 3.76 0
L 3.76 3.51
L 3.96 3.51
Z
M 3.86 0.1
L 4.62 0.1
L 4.62 -0.1
L 3.86 -0.1
L 3.86 0.1
Z
M 4.52 0
L 4.52 6
L 4.72 6
L 4.72 0
L 4.52 0
Z
M 4.62 5.9
L 3.82 5.9
L 3.82 6.1
L 4.62 6.1
L 4.62 5.9
Z
M 3.90485 5.94708
L 0.854849 1.05708
L 0.685151 1.16292
L 3.73515 6.05292
L 3.90485 5.94708
Z
M 0.67 1.11
L 0.67 2.27
L 0.87 2.27
L 0.87 1.11
L 0.67 1.11
Z
M 0.67 2.27
L 0.67 6
L 0.87 6
L 0.87 2.27
L 0.67 2.27
Z
M 0.77 5.9
L 0 5.9
L 0 6.1
L 0.77 6.1
L 0.77 5.9
Z"/>
<path id="path15_fill" d="
M 27.2671 4.755
C 26.4273 4.75895 25.6076 5.01156 24.9114 5.48096
C 24.2151 5.95035 23.6735 6.61548 23.3549 7.39241
C 23.0362 8.16933 22.9549 9.02323 23.1212 9.84633
C 23.2874 10.6694 23.6937 11.4248 24.2889 12.0172
C 24.8841 12.6096 25.6414 13.0124 26.4652 13.1747
C 27.2891 13.3371 28.1426 13.2518 28.918 12.9295
C 29.6935 12.6073 30.356 12.0626 30.8222 11.3641
C 31.2883 10.6656 31.537 9.84472 31.5371 9.005
C 31.5452 8.44294 31.4402 7.88498 31.2282 7.36434
C 31.0163 6.84371 30.7017 6.37105 30.3033 5.9745
C 29.9049 5.57796 29.4308 5.26563 28.9091 5.05612
C 28.3875 4.84662 27.8291 4.74421 27.2671 4.755
L 27.2671 4.755
Z
M 27.2671 11.585
C 26.7506 11.6211 26.2353 11.501 25.788 11.2404
C 25.3407 10.9797 24.9822 10.5906 24.7591 10.1234
C 24.5359 9.65632 24.4584 9.13288 24.5367 8.62115
C 24.615 8.10942 24.8454 7.63308 25.198 7.25404
C 25.5506 6.875 26.0091 6.6108 26.5138 6.49578
C 27.0186 6.38075 27.5462 6.42023 28.0282 6.60908
C 28.5102 6.79793 28.9243 7.12742 29.2166 7.5547
C 29.5088 7.98199 29.6658 8.48732 29.6671 9.005
C 29.6832 9.33301 29.6334 9.66093 29.5208 9.96942
C 29.4081 10.2779 29.2349 10.5607 29.0112 10.8012
C 28.7875 11.0416 28.5179 11.2349 28.2184 11.3695
C 27.9188 11.5041 27.5954 11.5774 27.2671 11.585
Z
M 17.9571 4.755
C 17.1169 4.75698 16.2962 5.00791 15.5986 5.47611
C 14.901 5.94431 14.3578 6.60875 14.0377 7.38551
C 13.7176 8.16227 13.6348 9.01649 13.7999 9.84025
C 13.9651 10.664 14.3706 11.4203 14.9654 12.0137
C 15.5601 12.6071 16.3174 13.0109 17.1416 13.1741
C 17.9657 13.3372 18.8198 13.2525 19.5958 12.9305
C 20.3718 12.6086 21.0349 12.0638 21.5015 11.3651
C 21.968 10.6664 22.217 9.84514 22.2171 9.005
C 22.2252 8.44294 22.1202 7.88498 21.9082 7.36434
C 21.6963 6.84371 21.3817 6.37105 20.9833 5.9745
C 20.5849 5.57796 20.1108 5.26563 19.5891 5.05612
C 19.0675 4.84662 18.5091 4.74421 17.9471 4.755
L 17.9571 4.755
Z
M 17.9571 11.585
C 17.4404 11.6232 16.9242 11.5049 16.4757 11.2456
C 16.0272 10.9862 15.6671 10.5979 15.4424 10.1311
C 15.2177 9.66429 15.1387 9.14065 15.2157 8.62833
C 15.2928 8.11601 15.5223 7.63876 15.8744 7.25869
C 16.2264 6.87863 16.6848 6.61337 17.1897 6.49743
C 17.6947 6.3815 18.2228 6.42027 18.7054 6.60869
C 19.188 6.79712 19.6027 7.12647 19.8955 7.55387
C 20.1883 7.98127 20.3456 8.48692 20.3471 9.005
C 20.3632 9.33301 20.3134 9.66093 20.2008 9.96942
C 20.0881 10.2779 19.9149 10.5607 19.6912 10.8012
C 19.4675 11.0416 19.1979 11.2349 18.8984 11.3695
C 18.5988 11.5041 18.2754 11.5774 17.9471 11.585
L 17.9571 11.585
Z
M 6.86705 6.065
L 6.86705 7.865
L 11.1871 7.865
C 11.1193 8.7128 10.7669 9.51279 10.1871 10.135
C 9.75485 10.5752 9.23528 10.9201 8.66176 11.1475
C 8.08825 11.3748 7.47349 11.4796 6.85705 11.455
C 5.58401 11.455 4.36311 10.9493 3.46294 10.0491
C 2.56276 9.14894 2.05705 7.92804 2.05705 6.655
C 2.05705 5.38196 2.56276 4.16106 3.46294 3.26089
C 4.36311 2.36071 5.58401 1.855 6.85705 1.855
C 8.07485 1.83514 9.25081 2.29905 10.1271 3.145
L 11.3971 1.875
C 10.8055 1.27603 10.0998 0.801882 9.32166 0.480667
C 8.54353 0.159452 7.70884 -0.00229839 6.86705 0.00500027
C 5.97805 -0.0295976 5.09121 0.115626 4.25967 0.43197
C 3.42814 0.748314 2.66902 1.22927 2.02781 1.84601
C 1.38659 2.46275 0.876485 3.20259 0.528043 4.0212
C 0.179602 4.8398 -7.10543e-15 5.72032 0 6.61
C -7.10543e-15 7.49968 0.179602 8.3802 0.528043 9.1988
C 0.876485 10.0174 1.38659 10.7572 2.02781 11.374
C 2.66902 11.9907 3.42814 12.4717 4.25967 12.788
C 5.09121 13.1044 5.97805 13.2496 6.86705 13.215
C 7.723 13.2537 8.57731 13.1086 9.37249 12.7895
C 10.1677 12.4704 10.8853 11.9846 11.4771 11.365
C 12.5247 10.2139 13.0841 8.70076 13.0371 7.145
C 13.0403 6.76599 13.0068 6.38756 12.9371 6.015
L 6.86705 6.015
L 6.86705 6.065
Z
M 52.1771 7.465
C 51.9163 6.69774 51.4286 6.02778 50.7786 5.54385
C 50.1285 5.05991 49.3469 4.78482 48.5371 4.755
C 47.99 4.75393 47.4486 4.86507 46.9463 5.08153
C 46.4439 5.298 45.9913 5.61521 45.6164 6.01353
C 45.2415 6.41186 44.9523 6.88285 44.7667 7.39739
C 44.581 7.91192 44.5029 8.45907 44.5371 9.005
C 44.5249 9.56391 44.6255 10.1195 44.8329 10.6387
C 45.0403 11.1578 45.3502 11.6299 45.7441 12.0266
C 46.138 12.4233 46.6078 12.7365 47.1255 12.9476
C 47.6432 13.1586 48.1981 13.2632 48.7571 13.255
C 49.4566 13.2588 50.1461 13.089 50.7639 12.7609
C 51.3817 12.4328 51.9084 11.9566 52.2971 11.375
L 50.8471 10.375
C 50.6306 10.7358 50.3243 11.0342 49.9579 11.241
C 49.5915 11.4479 49.1778 11.5561 48.7571 11.555
C 48.3239 11.5715 47.8958 11.4573 47.5284 11.2272
C 47.161 10.9972 46.8713 10.6619 46.6971 10.265
L 52.3871 7.915
L 52.1771 7.465
Z
M 46.3771 8.885
C 46.3568 8.57569 46.3984 8.26545 46.4996 7.97244
C 46.6007 7.67943 46.7593 7.40955 46.966 7.17859
C 47.1728 6.94764 47.4235 6.76026 47.7036 6.62742
C 47.9836 6.49459 48.2874 6.41897 48.5971 6.405
C 48.9196 6.38375 49.2413 6.45771 49.5222 6.61771
C 49.8031 6.77771 50.0308 7.0167 50.1771 7.305
L 46.3771 8.885
Z
M 41.7571 13.005
L 43.6271 13.005
L 43.6271 0.505
L 41.7571 0.505
L 41.7571 13.005
Z
M 38.6971 5.705
L 38.6271 5.705
C 38.3452 5.3899 38 5.13792 37.6139 4.96558
C 37.2279 4.79325 36.8098 4.70445 36.3871 4.705
C 35.2942 4.75799 34.2637 5.22942 33.509 6.02158
C 32.7543 6.81374 32.3334 7.8659 32.3334 8.96
C 32.3334 10.0541 32.7543 11.1063 33.509 11.8984
C 34.2637 12.6906 35.2942 13.162 36.3871 13.215
C 36.8108 13.2221 37.231 13.1363 37.618 12.9635
C 38.005 12.7907 38.3494 12.5352 38.6271 12.215
L 38.6871 12.215
L 38.6871 12.905
C 38.6871 14.535 37.8171 15.405 36.4171 15.405
C 35.9508 15.3941 35.4983 15.2447 35.1172 14.9758
C 34.7361 14.7069 34.4436 14.3306 34.2771 13.895
L 32.6471 14.575
C 32.9539 15.3214 33.4767 15.959 34.1484 16.4063
C 34.8201 16.8535 35.6101 17.0898 36.4171 17.085
C 38.6071 17.085 40.4171 15.795 40.4171 12.655
L 40.4171 5.005
L 38.6971 5.005
L 38.6971 5.705
Z
M 36.5571 11.585
C 35.912 11.5282 35.3116 11.2317 34.8743 10.7542
C 34.437 10.2766 34.1944 9.65255 34.1944 9.005
C 34.1944 8.35745 34.437 7.73339 34.8743 7.25583
C 35.3116 6.77827 35.912 6.48185 36.5571 6.425
C 36.8769 6.44141 37.1902 6.52167 37.4785 6.66104
C 37.7668 6.8004 38.0244 6.99607 38.2359 7.2365
C 38.4474 7.47693 38.6087 7.75726 38.7103 8.06099
C 38.8118 8.36472 38.8515 8.68569 38.8271 9.005
C 38.8543 9.32569 38.8163 9.64859 38.7152 9.95415
C 38.6141 10.2597 38.4521 10.5416 38.239 10.7828
C 38.0259 11.024 37.7661 11.2194 37.4752 11.3573
C 37.1844 11.4952 36.8687 11.5726 36.5471 11.585
L 36.5571 11.585
Z
M 60.9371 0.505
L 56.4671 0.505
L 56.4671 13.005
L 58.3371 13.005
L 58.3371 8.265
L 60.9471 8.265
C 61.48 8.3026 62.0151 8.22998 62.5188 8.05169
C 63.0225 7.87339 63.484 7.59324 63.8747 7.2287
C 64.2654 6.86416 64.5767 6.42305 64.7894 5.93287
C 65.002 5.44269 65.1114 4.91395 65.1107 4.37963
C 65.1101 3.84531 64.9993 3.31685 64.7854 2.82722
C 64.5715 2.33759 64.259 1.89728 63.8674 1.53375
C 63.4758 1.17022 63.0135 0.891257 62.5093 0.714261
C 62.0052 0.537266 61.47 0.466031 60.9371 0.505
L 60.9371 0.505
Z
M 60.9371 6.505
L 58.3271 6.505
L 58.3271 2.245
L 60.9771 2.245
C 61.5446 2.245 62.0889 2.47046 62.4903 2.87179
C 62.8916 3.27312 63.1171 3.81744 63.1171 4.385
C 63.1171 4.95256 62.8916 5.49688 62.4903 5.89821
C 62.0889 6.29954 61.5446 6.525 60.9771 6.525
L 60.9371 6.505
Z
M 72.4671 4.705
C 71.7863 4.66431 71.1084 4.8234 70.5168 5.16272
C 69.9252 5.50205 69.4457 6.00682 69.1371 6.615
L 70.7971 7.305
C 70.9607 7.00335 71.2085 6.75579 71.5104 6.59245
C 71.8122 6.42911 72.155 6.35703 72.4971 6.385
C 72.7344 6.35728 72.975 6.3771 73.2046 6.44333
C 73.4343 6.50955 73.6484 6.62084 73.8346 6.77071
C 74.0208 6.92058 74.1752 7.10602 74.289 7.31622
C 74.4027 7.52642 74.4734 7.75717 74.4971 7.995
L 74.4971 8.125
C 73.8964 7.807 73.2266 7.64213 72.5471 7.645
C 70.7571 7.645 68.9471 8.645 68.9471 10.455
C 68.9647 10.8409 69.0596 11.2194 69.226 11.5681
C 69.3925 11.9167 69.6272 12.2284 69.9162 12.4848
C 70.2052 12.7412 70.5427 12.937 70.9087 13.0607
C 71.2747 13.1844 71.6618 13.2335 72.0471 13.205
C 72.518 13.2388 72.9893 13.1452 73.4116 12.9341
C 73.8339 12.723 74.1916 12.402 74.4471 12.005
L 74.5071 12.005
L 74.5071 13.005
L 76.3071 13.005
L 76.3071 8.195
C 76.3071 6.005 74.6471 4.735 72.5171 4.735
L 72.4671 4.705
Z
M 72.2371 11.555
C 71.9038 11.6016 71.5655 11.5172 71.2932 11.3195
C 71.021 11.1218 70.8359 10.8263 70.7771 10.495
C 70.7771 9.495 71.8371 9.165 72.7771 9.165
C 73.3711 9.15034 73.9582 9.29539 74.4771 9.585
C 74.4145 10.1264 74.1584 10.627 73.756 10.9945
C 73.3536 11.362 72.8319 11.5717 72.2871 11.585
L 72.2371 11.555
Z
M 82.8671 5.005
L 80.7271 10.425
L 80.6671 10.425
L 78.4471 5.005
L 76.4471 5.005
L 79.7771 12.585
L 77.8771 16.795
L 79.8271 16.795
L 84.9471 5.005
L 82.8771 5.005
L 82.8671 5.005
Z
M 66.0571 13.005
L 67.9271 13.005
L 67.9271 0.505
L 66.0571 0.505
L 66.0571 13.005
Z"/>
<path id="path16_fill" d="
M 0.463582 0.07
C 0.137647 0.461108 -0.0268641 0.961795 0.00358221 1.47
L 0.00358221 23.59
C -0.0268641 24.0982 0.137647 24.5989 0.463582 24.99
L 0.533582 25.06
L 12.9236 12.68
L 12.9236 12.38
L 0.533582 0
L 0.463582 0.07
Z"/>
<path id="path17_fill" d="
M 4.1 8.56
L 0 4.43
L 0 4.13
L 4.1 0
L 4.19 0.05
L 9.1 2.84
C 10.5 3.63 10.5 4.93 9.1 5.73
L 4.21 8.51
L 4.1 8.56
Z"/>
<path id="path18_fill" d="
M 16.68 4.22
L 12.46 0
L 0 12.46
C 0.285362 12.7109 0.649392 12.8541 1.02918 12.8651
C 1.40897 12.876 1.78065 12.754 2.08 12.52
L 16.69 4.22"/>
<path id="path19_fill" d="
M 16.69 8.64577
L 2.08 0.345771
C 1.78065 0.111785 1.40897 -0.0102772 1.02918 0.000678202
C 0.649392 0.0116336 0.285362 0.154918 0 0.405771
L 12.47 12.8658
L 16.69 8.64577
Z"/>
<path id="path20_fill" d="
M 16.56 0
L 2.07 8.25
C 1.78129 8.46586 1.43048 8.5825 1.07 8.5825
C 0.709516 8.5825 0.35871 8.46586 0.07 8.25
L 0 8.32
L 0.07 8.39
C 0.358056 8.6074 0.709113 8.72501 1.07 8.72501
C 1.43089 8.72501 1.78194 8.6074 2.07 8.39
L 16.68 0.09
L 16.56 0
Z"/>
<path id="path21_fill" d="
M 0.463582 1.4
C 0.137647 1.00889 -0.0268641 0.508205 0.00358221 0
L 0.00358221 0.15
C -0.0268641 0.658205 0.137647 1.15889 0.463582 1.55
L 0.533582 1.48
L 0.463582 1.4
Z"/>
<path id="path22_fill" d="
M 5 1.3
L 0 4.13
L 0.09 4.22
L 5 1.44
C 5.2786 1.30912 5.51775 1.10708 5.69333 0.854255
C 5.8689 0.601429 5.97468 0.306767 6 3.55271e-15
L 6 0
C 5.94376 0.278707 5.82438 0.540812 5.65103 0.766174
C 5.47767 0.991536 5.25496 1.17416 5 1.3
Z"/>
<path id="path23_fill" d="
M 2.54 0.473941
L 22.03 11.5539
C 22.285 11.6798 22.5077 11.8624 22.681 12.0878
C 22.8544 12.3131 22.9738 12.5752 23.03 12.8539
L 23.03 12.8539
C 23.0047 12.5472 22.8989 12.2525 22.7233 11.9997
C 22.5478 11.7469 22.3086 11.5448 22.03 11.4139
L 2.54 0.333941
C 1.14 -0.456059 0 0.203941 0 1.80394
L 0 1.95394
C 0.03 0.343941 1.15 -0.316059 2.54 0.473941
Z"/>
</defs>
</svg>
